SplineFontDB: 3.0
FontName: OtherLetter
FullName: Other Letter
FamilyName: OtherLetter
Weight: Regular
Copyright: Copyright (c) 2013 Pathum Egodawatta, .Copyright (c) 2014 moonaik <http://moonaik.com> \n\n Licensed under the SIL Open Font License 1.1 (see file OFL.txt)
Version: 0.1
ItalicAngle: 0
UnderlinePosition: -368
UnderlineWidth: 24
Ascent: 819
Descent: 205
sfntRevision: 0x0000199a
LayerCount: 2
Layer: 0 1 "Back"  1
Layer: 1 1 "Fore"  0
XUID: [1021 792 -450466945 14250590]
FSType: 0
OS2Version: 3
OS2_WeightWidthSlopeOnly: 0
OS2_UseTypoMetrics: 1
CreationTime: 1316601550
ModificationTime: 1409294273
PfmFamily: 17
TTFWeight: 400
TTFWidth: 5
LineGap: 0
VLineGap: 0
Panose: 2 0 6 0 0 0 0 0 0 0
OS2TypoAscent: 1400
OS2TypoAOffset: 0
OS2TypoDescent: -648
OS2TypoDOffset: 0
OS2TypoLinegap: 20
OS2WinAscent: 866
OS2WinAOffset: 0
OS2WinDescent: 363
OS2WinDOffset: 0
HheadAscent: 866
HheadAOffset: 0
HheadDescent: -380
HheadDOffset: 0
OS2SubXSize: 861
OS2SubYSize: 799
OS2SubXOff: 0
OS2SubYOff: 246
OS2SupXSize: 861
OS2SupYSize: 799
OS2SupXOff: 0
OS2SupYOff: 615
OS2StrikeYSize: 61
OS2StrikeYPos: 307
OS2Vendor: 'ACE '
OS2CodePages: 00000001.00000000
OS2UnicodeRanges: 80108003.00002042.00000000.00000000
Lookup: 4 0 0 "'abvs' Above Base Substitutions in Tamil lookup 0"  {"'abvs' Above Base Substitutions in Tamil lookup 0 subtable"  } ['abvs' ('taml' <'dflt' > ) ]
Lookup: 4 0 0 "'akhn' Akhand in Tamil lookup 1"  {"'akhn' Akhand in Tamil lookup 1 subtable"  } ['akhn' ('taml' <'dflt' > ) ]
Lookup: 4 0 0 "'blws' Below Base Substitutions in Tamil lookup 2"  {"'blws' Below Base Substitutions in Tamil lookup 2 subtable"  } ['blws' ('taml' <'dflt' > ) ]
Lookup: 4 0 0 "'half' Half Forms in Tamil lookup 3"  {"'half' Half Forms in Tamil lookup 3 subtable"  } ['half' ('taml' <'dflt' > ) ]
Lookup: 4 0 0 "'haln' Halant Forms in Tamil lookup 4"  {"'haln' Halant Forms in Tamil lookup 4 subtable"  } ['haln' ('taml' <'dflt' > ) ]

StartChar: .notdef
Encoding: 65536 -1 0
Width: 614
Flags: W
LayerCount: 2
Fore
SplineSet
96 731 m 1,0,-1
 517 731 l 1,1,-1
 517 0 l 1,2,-1
 96 0 l 1,3,-1
 96 731 l 1,0,-1
148 52 m 1,4,-1
 465 52 l 1,5,-1
 465 679 l 1,6,-1
 148 679 l 1,7,-1
 148 52 l 1,4,-1
EndSplineSet
EndChar

StartChar: .notdef#1
Encoding: 65537 -1 1
Width: 614
Flags: W
LayerCount: 2
Fore
SplineSet
96 731 m 1,0,-1
 517 731 l 1,1,-1
 517 0 l 1,2,-1
 96 0 l 1,3,-1
 96 731 l 1,0,-1
148 52 m 1,4,-1
 465 52 l 1,5,-1
 465 679 l 1,6,-1
 148 679 l 1,7,-1
 148 52 l 1,4,-1
EndSplineSet
EndChar

StartChar: exclam
Encoding: 33 33 8
Width: 291
Flags: W
LayerCount: 2
Fore
SplineSet
89 259 m 1,0,-1
 89 734 l 1,1,-1
 202 734 l 1,2,-1
 202 259 l 1,3,-1
 89 259 l 1,0,-1
89 0 m 1,4,-1
 89 140 l 1,5,-1
 202 140 l 1,6,-1
 202 0 l 1,7,-1
 89 0 l 1,4,-1
EndSplineSet
EndChar

StartChar: quotedbl
Encoding: 34 34 9
Width: 366
Flags: W
LayerCount: 2
Fore
SplineSet
66 513 m 1,0,-1
 66 738 l 1,1,-1
 162 738 l 1,2,-1
 162 513 l 1,3,-1
 66 513 l 1,0,-1
204 513 m 1,4,-1
 204 738 l 1,5,-1
 300 738 l 1,6,-1
 300 513 l 1,7,-1
 204 513 l 1,4,-1
EndSplineSet
EndChar

StartChar: numbersign
Encoding: 35 35 10
Width: 723
Flags: W
LayerCount: 2
Fore
SplineSet
685 446 m 1,0,-1
 543 446 l 1,1,-1
 504 285 l 1,2,-1
 639 285 l 1,3,-1
 639 199 l 1,4,-1
 483 199 l 1,5,-1
 435 0 l 1,6,-1
 343 0 l 1,7,-1
 392 199 l 1,8,-1
 244 199 l 1,9,-1
 196 0 l 1,10,-1
 103 0 l 1,11,-1
 154 199 l 1,12,-1
 38 199 l 1,13,-1
 38 285 l 1,14,-1
 173 285 l 1,15,-1
 212 446 l 1,16,-1
 84 446 l 1,17,-1
 84 526 l 1,18,-1
 232 526 l 1,19,-1
 281 727 l 1,20,-1
 373 727 l 1,21,-1
 324 526 l 1,22,-1
 471 526 l 1,23,-1
 520 727 l 1,24,-1
 612 727 l 1,25,-1
 562 526 l 1,26,-1
 685 526 l 1,27,-1
 685 446 l 1,0,-1
413 285 m 1,28,-1
 452 446 l 1,29,-1
 303 446 l 1,30,-1
 264 285 l 1,31,-1
 413 285 l 1,28,-1
EndSplineSet
EndChar

StartChar: dollar
Encoding: 36 36 11
Width: 643
Flags: W
LayerCount: 2
Fore
SplineSet
521 556 m 1,0,1
 512 566 512 566 494 578 c 128,-1,2
 476 590 476 590 452.5 600.5 c 128,-1,3
 429 611 429 611 401 619 c 128,-1,4
 373 627 373 627 343 629 c 1,5,-1
 343 417 l 1,6,-1
 362 413 l 2,7,8
 418 399 418 399 462.5 383 c 128,-1,9
 507 367 507 367 537.5 343 c 128,-1,10
 568 319 568 319 585 285 c 128,-1,11
 602 251 602 251 602 202 c 0,12,13
 602 147 602 147 582.5 109 c 128,-1,14
 563 71 563 71 529 45 c 128,-1,15
 495 19 495 19 449 6.5 c 128,-1,16
 403 -6 403 -6 351 -7 c 1,17,-1
 351 -115 l 1,18,-1
 298 -115 l 1,19,-1
 298 -5 l 1,20,21
 224 0 224 0 157.5 24 c 128,-1,22
 91 48 91 48 36 91 c 1,23,-1
 88 189 l 1,24,25
 99 177 99 177 120.5 162.5 c 128,-1,26
 142 148 142 148 171 135 c 128,-1,27
 200 122 200 122 234 111.5 c 128,-1,28
 268 101 268 101 305 97 c 1,29,-1
 305 309 l 1,30,31
 299 311 299 311 292.5 312.5 c 128,-1,32
 286 314 286 314 280 316 c 0,33,34
 225 331 225 331 184.5 346.5 c 128,-1,35
 144 362 144 362 117.5 385 c 128,-1,36
 91 408 91 408 77 438 c 128,-1,37
 63 468 63 468 63 511 c 0,38,39
 63 561 63 561 80.5 600 c 128,-1,40
 98 639 98 639 130 667 c 128,-1,41
 162 695 162 695 204.5 711 c 128,-1,42
 247 727 247 727 298 731 c 1,43,-1
 298 835 l 1,44,-1
 351 835 l 1,45,-1
 351 731 l 1,46,47
 418 727 418 727 474 704.5 c 128,-1,48
 530 682 530 682 573 650 c 1,49,-1
 521 556 l 1,0,1
479 189 m 256,50,51
 479 234 479 234 443.5 257.5 c 128,-1,52
 408 281 408 281 343 299 c 1,53,-1
 343 96 l 1,54,55
 409 97 409 97 444 120.5 c 128,-1,56
 479 144 479 144 479 189 c 256,50,51
183 529 m 0,57,58
 183 486 183 486 213.5 464.5 c 128,-1,59
 244 443 244 443 305 427 c 1,60,-1
 305 629 l 1,61,62
 243 626 243 626 213 599.5 c 128,-1,63
 183 573 183 573 183 529 c 0,57,58
EndSplineSet
EndChar

StartChar: percent
Encoding: 37 37 12
Width: 851
Flags: W
LayerCount: 2
Fore
SplineSet
199 282 m 0,0,1
 126 282 126 282 88 343 c 0,2,3
 50 403 50 403 50 513 c 0,4,5
 50 626 50 626 87.5 683.5 c 128,-1,6
 125 741 125 741 199 741 c 0,7,8
 274 741 274 741 313.5 683 c 128,-1,9
 353 625 353 625 353 513 c 0,10,11
 353 398 353 398 314 340 c 128,-1,12
 275 282 275 282 199 282 c 0,0,1
199 347 m 0,13,14
 281 347 281 347 281 513 c 0,15,16
 281 678 281 678 199 678 c 0,17,18
 158 678 158 678 140 636.5 c 128,-1,19
 122 595 122 595 122 513 c 0,20,21
 122 430 122 430 140 388.5 c 128,-1,22
 158 347 158 347 199 347 c 0,13,14
667 731 m 1,23,-1
 262 0 l 1,24,-1
 183 0 l 1,25,-1
 589 731 l 1,26,-1
 667 731 l 1,23,-1
647 -10 m 0,27,28
 575 -10 575 -10 536 50 c 128,-1,29
 497 110 497 110 497 220 c 0,30,31
 497 448 497 448 647 448 c 0,32,33
 721 448 721 448 761 389 c 128,-1,34
 801 330 801 330 801 220 c 0,35,36
 801 106 801 106 762 48 c 128,-1,37
 723 -10 723 -10 647 -10 c 0,27,28
647 54 m 0,38,39
 729 54 729 54 729 220 c 0,40,41
 729 384 729 384 647 384 c 0,42,43
 606 384 606 384 587.5 343 c 128,-1,44
 569 302 569 302 569 220 c 0,45,46
 569 136 569 136 587.5 95 c 128,-1,47
 606 54 606 54 647 54 c 0,38,39
EndSplineSet
EndChar

StartChar: ampersand
Encoding: 38 38 13
Width: 713
Flags: W
LayerCount: 2
Fore
SplineSet
561 0 m 1,0,-1
 495 70 l 1,1,2
 450 31 450 31 396 10.5 c 128,-1,3
 342 -10 342 -10 284 -10 c 0,4,5
 230 -10 230 -10 186 6.5 c 128,-1,6
 142 23 142 23 110.5 51 c 128,-1,7
 79 79 79 79 61.5 117.5 c 128,-1,8
 44 156 44 156 44 199 c 0,9,10
 44 233 44 233 55 263 c 128,-1,11
 66 293 66 293 84 318.5 c 128,-1,12
 102 344 102 344 127 365.5 c 128,-1,13
 152 387 152 387 178 406 c 1,14,15
 155 431 155 431 139 452.5 c 128,-1,16
 123 474 123 474 113 493 c 128,-1,17
 103 512 103 512 98.5 530 c 128,-1,18
 94 548 94 548 94 567 c 0,19,20
 94 604 94 604 109 635.5 c 128,-1,21
 124 667 124 667 149.5 689.5 c 128,-1,22
 175 712 175 712 210.5 724 c 128,-1,23
 246 736 246 736 287 736 c 0,24,25
 324 736 324 736 357.5 726 c 128,-1,26
 391 716 391 716 416.5 696.5 c 128,-1,27
 442 677 442 677 457 647.5 c 128,-1,28
 472 618 472 618 472 582 c 0,29,30
 472 551 472 551 461.5 525.5 c 128,-1,31
 451 500 451 500 432.5 477 c 128,-1,32
 414 454 414 454 389 433 c 128,-1,33
 364 412 364 412 335 392 c 1,34,-1
 499 220 l 1,35,36
 516 256 516 256 526 297.5 c 128,-1,37
 536 339 536 339 536 386 c 1,38,-1
 628 386 l 1,39,40
 627 316 627 316 610.5 257.5 c 128,-1,41
 594 199 594 199 564 152 c 1,42,-1
 710 0 l 1,43,-1
 561 0 l 1,0,-1
296 79 m 0,44,45
 334 79 334 79 369 93.5 c 128,-1,46
 404 108 404 108 434 134 c 1,47,-1
 246 334 l 1,48,49
 204 304 204 304 178.5 271.5 c 128,-1,50
 153 239 153 239 153 198 c 0,51,52
 153 171 153 171 164 149 c 128,-1,53
 175 127 175 127 195 111.5 c 128,-1,54
 215 96 215 96 240.5 87.5 c 128,-1,55
 266 79 266 79 296 79 c 0,44,45
198 570 m 0,56,57
 198 560 198 560 201 550.5 c 128,-1,58
 204 541 204 541 211.5 528.5 c 128,-1,59
 219 516 219 516 233 500.5 c 128,-1,60
 247 485 247 485 267 463 c 1,61,62
 314 493 314 493 341.5 520 c 128,-1,63
 369 547 369 547 369 580 c 0,64,65
 369 612 369 612 346 632 c 128,-1,66
 323 652 323 652 287 652 c 0,67,68
 248 652 248 652 223 628 c 128,-1,69
 198 604 198 604 198 570 c 0,56,57
EndSplineSet
EndChar

StartChar: quotesingle
Encoding: 39 39 14
Width: 227
Flags: W
LayerCount: 2
Fore
SplineSet
66 512 m 1,0,-1
 66 738 l 1,1,-1
 162 738 l 1,2,-1
 162 512 l 1,3,-1
 66 512 l 1,0,-1
EndSplineSet
EndChar

StartChar: parenleft
Encoding: 40 40 15
Width: 303
Flags: W
LayerCount: 2
Fore
SplineSet
39 354 m 0,0,1
 39 407 39 407 50.5 458 c 128,-1,2
 62 509 62 509 82 560.5 c 128,-1,3
 102 612 102 612 129.5 664 c 128,-1,4
 157 716 157 716 187 768 c 1,5,-1
 274 731 l 1,6,7
 256 705 256 705 233.5 661 c 128,-1,8
 211 617 211 617 191 565.5 c 128,-1,9
 171 514 171 514 157.5 458 c 128,-1,10
 144 402 144 402 144 351 c 0,11,12
 144 270 144 270 178.5 179 c 128,-1,13
 213 88 213 88 271 -6 c 1,14,-1
 189 -48 l 1,15,16
 125 48 125 48 82 150 c 128,-1,17
 39 252 39 252 39 354 c 0,0,1
EndSplineSet
EndChar

StartChar: parenright
Encoding: 41 41 16
Width: 303
Flags: W
LayerCount: 2
Fore
SplineSet
263 354 m 0,0,1
 263 252 263 252 220.5 150 c 128,-1,2
 178 48 178 48 114 -48 c 1,3,-1
 31 -6 l 1,4,5
 89 88 89 88 124 179 c 128,-1,6
 159 270 159 270 159 351 c 0,7,8
 159 402 159 402 145 458 c 128,-1,9
 131 514 131 514 111 565.5 c 128,-1,10
 91 617 91 617 68.5 661 c 128,-1,11
 46 705 46 705 29 731 c 1,12,-1
 115 768 l 1,13,14
 145 716 145 716 172.5 664 c 128,-1,15
 200 612 200 612 220 560.5 c 128,-1,16
 240 509 240 509 251.5 458 c 128,-1,17
 263 407 263 407 263 354 c 0,0,1
EndSplineSet
EndChar

StartChar: asterisk
Encoding: 42 42 17
Width: 345
Flags: W
LayerCount: 2
Fore
SplineSet
82 543 m 1,0,-1
 128 611 l 1,1,-1
 56 634 l 1,2,-1
 73 685 l 1,3,-1
 145 655 l 1,4,-1
 141 733 l 1,5,-1
 204 733 l 1,6,-1
 200 655 l 1,7,-1
 272 685 l 1,8,-1
 288 634 l 1,9,-1
 217 611 l 1,10,-1
 263 543 l 1,11,-1
 218 512 l 1,12,-1
 173 585 l 1,13,-1
 127 512 l 1,14,-1
 82 543 l 1,0,-1
EndSplineSet
EndChar

StartChar: plus
Encoding: 43 43 18
Width: 585
Flags: W
LayerCount: 2
Fore
SplineSet
328 397 m 1,0,-1
 532 397 l 1,1,-1
 532 324 l 1,2,-1
 328 324 l 1,3,-1
 328 113 l 1,4,-1
 255 113 l 1,5,-1
 255 324 l 1,6,-1
 51 324 l 1,7,-1
 51 397 l 1,8,-1
 255 397 l 1,9,-1
 255 609 l 1,10,-1
 328 609 l 1,11,-1
 328 397 l 1,0,-1
EndSplineSet
EndChar

StartChar: comma
Encoding: 44 44 19
Width: 226
Flags: W
LayerCount: 2
Fore
SplineSet
75 -99 m 1,0,-1
 99 6 l 1,1,-1
 62 6 l 1,2,-1
 62 131 l 1,3,-1
 164 131 l 1,4,-1
 164 6 l 1,5,-1
 128 -99 l 1,6,-1
 75 -99 l 1,0,-1
EndSplineSet
EndChar

StartChar: hyphen
Encoding: 45 45 20
Width: 431
Flags: W
LayerCount: 2
Fore
SplineSet
62 229 m 1,0,-1
 62 331 l 1,1,-1
 369 331 l 1,2,-1
 369 229 l 1,3,-1
 62 229 l 1,0,-1
EndSplineSet
EndChar

StartChar: period
Encoding: 46 46 21
Width: 218
Flags: W
LayerCount: 2
Fore
SplineSet
62 0 m 1,0,-1
 62 131 l 1,1,-1
 156 131 l 1,2,-1
 156 0 l 1,3,-1
 62 0 l 1,0,-1
EndSplineSet
EndChar

StartChar: slash
Encoding: 47 47 22
Width: 680
Flags: W
LayerCount: 2
Fore
SplineSet
651 727 m 1,0,-1
 153 0 l 1,1,-1
 28 0 l 1,2,-1
 526 727 l 1,3,-1
 651 727 l 1,0,-1
EndSplineSet
EndChar

StartChar: zero
Encoding: 48 48 23
Width: 629
Flags: W
LayerCount: 2
Fore
SplineSet
577 300 m 256,0,1
 577 232 577 232 557 175.5 c 128,-1,2
 537 119 537 119 501.5 77.5 c 128,-1,3
 466 36 466 36 418.5 13 c 128,-1,4
 371 -10 371 -10 314 -10 c 0,5,6
 258 -10 258 -10 210 13 c 128,-1,7
 162 36 162 36 127 77.5 c 128,-1,8
 92 119 92 119 72 175.5 c 128,-1,9
 52 232 52 232 52 300 c 256,10,11
 52 368 52 368 72 424.5 c 128,-1,12
 92 481 92 481 127 522.5 c 128,-1,13
 162 564 162 564 210 587.5 c 128,-1,14
 258 611 258 611 314 611 c 0,15,16
 371 611 371 611 418.5 587.5 c 128,-1,17
 466 564 466 564 501.5 522.5 c 128,-1,18
 537 481 537 481 557 424.5 c 128,-1,19
 577 368 577 368 577 300 c 256,0,1
462 300 m 256,20,21
 462 346 462 346 451 384 c 128,-1,22
 440 422 440 422 420 449.5 c 128,-1,23
 400 477 400 477 373 492 c 128,-1,24
 346 507 346 507 314 507 c 0,25,26
 281 507 281 507 253.5 492 c 128,-1,27
 226 477 226 477 206 449.5 c 128,-1,28
 186 422 186 422 175.5 384 c 128,-1,29
 165 346 165 346 165 300 c 256,30,31
 165 254 165 254 175.5 216 c 128,-1,32
 186 178 186 178 206 151 c 128,-1,33
 226 124 226 124 253.5 109 c 128,-1,34
 281 94 281 94 314 94 c 0,35,36
 346 94 346 94 373 109 c 128,-1,37
 400 124 400 124 420 151 c 128,-1,38
 440 178 440 178 451 216 c 128,-1,39
 462 254 462 254 462 300 c 256,20,21
EndSplineSet
EndChar

StartChar: one
Encoding: 49 49 24
Width: 482
Flags: W
LayerCount: 2
Fore
SplineSet
458 101 m 1,0,-1
 458 0 l 1,1,-1
 67 0 l 1,2,-1
 67 101 l 1,3,-1
 212 101 l 1,4,-1
 212 459 l 1,5,6
 203 446 203 446 183.5 433 c 128,-1,7
 164 420 164 420 140.5 408.5 c 128,-1,8
 117 397 117 397 91.5 389.5 c 128,-1,9
 66 382 66 382 46 382 c 1,10,-1
 46 487 l 1,11,12
 67 487 67 487 94 499.5 c 128,-1,13
 121 512 121 512 146 528.5 c 128,-1,14
 171 545 171 545 190 561.5 c 128,-1,15
 209 578 209 578 212 585 c 1,16,-1
 328 585 l 1,17,-1
 328 101 l 1,18,-1
 458 101 l 1,0,-1
EndSplineSet
EndChar

StartChar: two
Encoding: 50 50 25
Width: 562
Flags: W
LayerCount: 2
Fore
SplineSet
41 0 m 1,0,1
 41 43 41 43 48 80 c 128,-1,2
 55 117 55 117 73.5 149 c 128,-1,3
 92 181 92 181 124 210.5 c 128,-1,4
 156 240 156 240 206 267 c 0,5,6
 242 287 242 287 273.5 303 c 128,-1,7
 305 319 305 319 329 335 c 128,-1,8
 353 351 353 351 367.5 369 c 128,-1,9
 382 387 382 387 382 411 c 0,10,11
 382 443 382 443 354 469.5 c 128,-1,12
 326 496 326 496 272 496 c 0,13,14
 245 496 245 496 222 488 c 128,-1,15
 199 480 199 480 180 468.5 c 128,-1,16
 161 457 161 457 146.5 442.5 c 128,-1,17
 132 428 132 428 121 415 c 1,18,-1
 49 498 l 1,19,20
 59 509 59 509 81 526 c 128,-1,21
 103 543 103 543 134.5 558 c 128,-1,22
 166 573 166 573 206 584 c 128,-1,23
 246 595 246 595 293 595 c 0,24,25
 342 595 342 595 381.5 582 c 128,-1,26
 421 569 421 569 448 546.5 c 128,-1,27
 475 524 475 524 489.5 493 c 128,-1,28
 504 462 504 462 504 426 c 0,29,30
 504 388 504 388 488.5 358.5 c 128,-1,31
 473 329 473 329 450.5 306.5 c 128,-1,32
 428 284 428 284 401.5 268 c 128,-1,33
 375 252 375 252 352 241 c 0,34,35
 331 230 331 230 303.5 216.5 c 128,-1,36
 276 203 276 203 250.5 185 c 128,-1,37
 225 167 225 167 204.5 146.5 c 128,-1,38
 184 126 184 126 176 101 c 1,39,-1
 515 101 l 1,40,-1
 515 0 l 1,41,-1
 41 0 l 1,0,1
EndSplineSet
EndChar

StartChar: three
Encoding: 51 51 26
Width: 562
Flags: W
LayerCount: 2
Fore
SplineSet
378 242 m 1,0,1
 410 236 410 236 436.5 220 c 128,-1,2
 463 204 463 204 481.5 180.5 c 128,-1,3
 500 157 500 157 510 126 c 128,-1,4
 520 95 520 95 520 59 c 0,5,6
 520 11 520 11 502 -27.5 c 128,-1,7
 484 -66 484 -66 451 -93.5 c 128,-1,8
 418 -121 418 -121 371 -136 c 128,-1,9
 324 -151 324 -151 265 -151 c 0,10,11
 187 -151 187 -151 128 -123.5 c 128,-1,12
 69 -96 69 -96 33 -45 c 1,13,-1
 101 33 l 1,14,15
 126 -5 126 -5 165 -26.5 c 128,-1,16
 204 -48 204 -48 263 -48 c 0,17,18
 331 -48 331 -48 367 -19.5 c 128,-1,19
 403 9 403 9 403 67 c 0,20,21
 403 126 403 126 362.5 160 c 128,-1,22
 322 194 322 194 242 194 c 2,23,-1
 214 194 l 1,24,-1
 214 282 l 1,25,-1
 245 282 l 2,26,27
 313 282 313 282 350 314 c 128,-1,28
 387 346 387 346 387 395 c 256,29,30
 387 444 387 444 354.5 467 c 128,-1,31
 322 490 322 490 269 490 c 0,32,33
 217 490 217 490 177 467.5 c 128,-1,34
 137 445 137 445 114 403 c 1,35,-1
 43 480 l 1,36,37
 57 505 57 505 81.5 525 c 128,-1,38
 106 545 106 545 137.5 559.5 c 128,-1,39
 169 574 169 574 205.5 582 c 128,-1,40
 242 590 242 590 281 590 c 0,41,42
 331 590 331 590 372.5 576.5 c 128,-1,43
 414 563 414 563 444 539.5 c 128,-1,44
 474 516 474 516 490.5 482.5 c 128,-1,45
 507 449 507 449 507 408 c 0,46,47
 507 377 507 377 497.5 349.5 c 128,-1,48
 488 322 488 322 471.5 299 c 128,-1,49
 455 276 455 276 431.5 261.5 c 128,-1,50
 408 247 408 247 378 242 c 1,0,1
EndSplineSet
EndChar

StartChar: four
Encoding: 52 52 27
Width: 578
Flags: W
LayerCount: 2
Fore
SplineSet
337 -130 m 1,0,-1
 337 33 l 1,1,-1
 23 33 l 1,2,-1
 23 133 l 1,3,-1
 373 585 l 1,4,-1
 450 585 l 1,5,-1
 450 135 l 1,6,-1
 540 135 l 1,7,-1
 540 33 l 1,8,-1
 450 33 l 1,9,-1
 450 -130 l 1,10,-1
 337 -130 l 1,0,-1
137 135 m 1,11,-1
 349 135 l 1,12,-1
 349 413 l 1,13,-1
 137 135 l 1,11,-1
EndSplineSet
EndChar

StartChar: five
Encoding: 53 53 28
Width: 564
Flags: W
LayerCount: 2
Fore
SplineSet
292 325 m 0,0,1
 343 325 343 325 386.5 307.5 c 128,-1,2
 430 290 430 290 462.5 259 c 128,-1,3
 495 228 495 228 512.5 185 c 128,-1,4
 530 142 530 142 530 91 c 0,5,6
 530 37 530 37 510 -8 c 128,-1,7
 490 -53 490 -53 455 -85.5 c 128,-1,8
 420 -118 420 -118 372 -135.5 c 128,-1,9
 324 -153 324 -153 268 -153 c 0,10,11
 189 -153 189 -153 127 -117.5 c 128,-1,12
 65 -82 65 -82 32 -22 c 1,13,-1
 99 43 l 1,14,15
 128 0 128 0 173 -26.5 c 128,-1,16
 218 -53 218 -53 269 -53 c 0,17,18
 333 -53 333 -53 374 -14 c 128,-1,19
 415 25 415 25 415 89 c 0,20,21
 415 120 415 120 404 145 c 128,-1,22
 393 170 393 170 374.5 188 c 128,-1,23
 356 206 356 206 331 216 c 128,-1,24
 306 226 306 226 276 226 c 0,25,26
 238 226 238 226 204 209.5 c 128,-1,27
 170 193 170 193 148 160 c 1,28,-1
 49 160 l 1,29,30
 50 164 50 164 53.5 184.5 c 128,-1,31
 57 205 57 205 63.5 235.5 c 128,-1,32
 70 266 70 266 77 304 c 128,-1,33
 84 342 84 342 92 381 c 0,34,35
 111 472 111 472 132 585 c 1,36,-1
 487 585 l 1,37,-1
 487 481 l 1,38,-1
 214 481 l 1,39,-1
 177 283 l 1,40,41
 195 302 195 302 224 313.5 c 128,-1,42
 253 325 253 325 292 325 c 0,0,1
EndSplineSet
EndChar

StartChar: six
Encoding: 54 54 29
Width: 622
Flags: W
LayerCount: 2
Fore
SplineSet
578 242 m 0,0,1
 578 189 578 189 558 143 c 128,-1,2
 538 97 538 97 502.5 63 c 128,-1,3
 467 29 467 29 419 9.5 c 128,-1,4
 371 -10 371 -10 315 -10 c 0,5,6
 255 -10 255 -10 206 12 c 128,-1,7
 157 34 157 34 122 75.5 c 128,-1,8
 87 117 87 117 68 177 c 128,-1,9
 49 237 49 237 49 312 c 0,10,11
 49 417 49 417 69 495 c 128,-1,12
 89 573 89 573 125 626 c 128,-1,13
 161 679 161 679 212 705.5 c 128,-1,14
 263 732 263 732 327 732 c 0,15,16
 396 732 396 732 454 700.5 c 128,-1,17
 512 669 512 669 548 610 c 1,18,-1
 481 541 l 1,19,20
 458 584 458 584 416.5 609 c 128,-1,21
 375 634 375 634 325 634 c 0,22,23
 248 634 248 634 202.5 569 c 128,-1,24
 157 504 157 504 155 386 c 1,25,26
 177 432 177 432 222 458.5 c 128,-1,27
 267 485 267 485 326 485 c 0,28,29
 379 485 379 485 425 466 c 128,-1,30
 471 447 471 447 505 414.5 c 128,-1,31
 539 382 539 382 558.5 337.5 c 128,-1,32
 578 293 578 293 578 242 c 0,0,1
315 86 m 0,33,34
 347 86 347 86 375 98.5 c 128,-1,35
 403 111 403 111 424 132.5 c 128,-1,36
 445 154 445 154 457.5 182 c 128,-1,37
 470 210 470 210 470 242 c 0,38,39
 470 273 470 273 457.5 301 c 128,-1,40
 445 329 445 329 424 350 c 128,-1,41
 403 371 403 371 375 383 c 128,-1,42
 347 395 347 395 315 395 c 0,43,44
 284 395 284 395 255.5 383 c 128,-1,45
 227 371 227 371 206 350 c 128,-1,46
 185 329 185 329 173 301 c 128,-1,47
 161 273 161 273 161 242 c 0,48,49
 161 210 161 210 173 182 c 128,-1,50
 185 154 185 154 206 132.5 c 128,-1,51
 227 111 227 111 255.5 98.5 c 128,-1,52
 284 86 284 86 315 86 c 0,33,34
EndSplineSet
EndChar

StartChar: seven
Encoding: 55 55 30
Width: 561
Flags: W
LayerCount: 2
Fore
SplineSet
381 494 m 1,0,-1
 29 494 l 1,1,-1
 29 597 l 1,2,-1
 559 597 l 1,3,-1
 196 -130 l 1,4,-1
 68 -130 l 1,5,-1
 381 494 l 1,0,-1
EndSplineSet
EndChar

StartChar: eight
Encoding: 56 56 31
Width: 615
Flags: W
LayerCount: 2
Fore
SplineSet
567 210 m 0,0,1
 567 161 567 161 546 120.5 c 128,-1,2
 525 80 525 80 489.5 51.5 c 128,-1,3
 454 23 454 23 406.5 7.5 c 128,-1,4
 359 -8 359 -8 306 -8 c 0,5,6
 252 -8 252 -8 204.5 9 c 128,-1,7
 157 26 157 26 122 55.5 c 128,-1,8
 87 85 87 85 67 126 c 128,-1,9
 47 167 47 167 47 215 c 0,10,11
 47 247 47 247 58.5 274.5 c 128,-1,12
 70 302 70 302 87.5 324 c 128,-1,13
 105 346 105 346 128 362.5 c 128,-1,14
 151 379 151 379 173 389 c 1,15,16
 131 408 131 408 101.5 445.5 c 128,-1,17
 72 483 72 483 72 531 c 256,18,19
 72 579 72 579 93.5 615 c 128,-1,20
 115 651 115 651 148.5 676 c 128,-1,21
 182 701 182 701 224 714 c 128,-1,22
 266 727 266 727 307 727 c 256,23,24
 348 727 348 727 390.5 714 c 128,-1,25
 433 701 433 701 467.5 676.5 c 128,-1,26
 502 652 502 652 523.5 616 c 128,-1,27
 545 580 545 580 545 532 c 256,28,29
 545 484 545 484 514.5 446 c 128,-1,30
 484 408 484 408 441 389 c 1,31,32
 466 378 466 378 489 361 c 128,-1,33
 512 344 512 344 529.5 321 c 128,-1,34
 547 298 547 298 557 270.5 c 128,-1,35
 567 243 567 243 567 210 c 0,0,1
454 217 m 0,36,37
 454 247 454 247 441 270 c 128,-1,38
 428 293 428 293 407 309.5 c 128,-1,39
 386 326 386 326 360 334 c 128,-1,40
 334 342 334 342 307 342 c 256,41,42
 280 342 280 342 253.5 333.5 c 128,-1,43
 227 325 227 325 207 308.5 c 128,-1,44
 187 292 187 292 175 269 c 128,-1,45
 163 246 163 246 163 217 c 256,46,47
 163 188 163 188 175.5 165 c 128,-1,48
 188 142 188 142 208.5 126.5 c 128,-1,49
 229 111 229 111 255.5 102 c 128,-1,50
 282 93 282 93 308 93 c 0,51,52
 336 93 336 93 362 102.5 c 128,-1,53
 388 112 388 112 408.5 128 c 128,-1,54
 429 144 429 144 441.5 166.5 c 128,-1,55
 454 189 454 189 454 217 c 0,36,37
185 527 m 0,56,57
 185 503 185 503 196.5 484.5 c 128,-1,58
 208 466 208 466 225.5 453.5 c 128,-1,59
 243 441 243 441 264.5 434.5 c 128,-1,60
 286 428 286 428 307 428 c 0,61,62
 329 428 329 428 351 434.5 c 128,-1,63
 373 441 373 441 390.5 454 c 128,-1,64
 408 467 408 467 419 486 c 128,-1,65
 430 505 430 505 430 529 c 0,66,67
 430 552 430 552 420 570 c 128,-1,68
 410 588 410 588 393 600.5 c 128,-1,69
 376 613 376 613 354 620 c 128,-1,70
 332 627 332 627 307 627 c 0,71,72
 283 627 283 627 261 619.5 c 128,-1,73
 239 612 239 612 222 599.5 c 128,-1,74
 205 587 205 587 195 568.5 c 128,-1,75
 185 550 185 550 185 527 c 0,56,57
EndSplineSet
EndChar

StartChar: nine
Encoding: 57 57 32
Width: 603
Flags: W
LayerCount: 2
Fore
SplineSet
35 333 m 0,0,1
 35 385 35 385 55.5 431 c 128,-1,2
 76 477 76 477 111 511.5 c 128,-1,3
 146 546 146 546 194.5 565.5 c 128,-1,4
 243 585 243 585 298 585 c 0,5,6
 357 585 357 585 406.5 563 c 128,-1,7
 456 541 456 541 490.5 499.5 c 128,-1,8
 525 458 525 458 544 398 c 128,-1,9
 563 338 563 338 563 262 c 0,10,11
 563 158 563 158 543 79.5 c 128,-1,12
 523 1 523 1 487.5 -51.5 c 128,-1,13
 452 -104 452 -104 400 -131 c 128,-1,14
 348 -158 348 -158 286 -158 c 0,15,16
 216 -158 216 -158 158 -126 c 128,-1,17
 100 -94 100 -94 65 -36 c 1,18,-1
 131 34 l 1,19,20
 155 -9 155 -9 196.5 -34 c 128,-1,21
 238 -59 238 -59 288 -59 c 0,22,23
 365 -59 365 -59 410.5 6 c 128,-1,24
 456 71 456 71 458 188 c 1,25,26
 436 142 436 142 390.5 115.5 c 128,-1,27
 345 89 345 89 287 89 c 0,28,29
 233 89 233 89 187 108 c 128,-1,30
 141 127 141 127 107.5 160 c 128,-1,31
 74 193 74 193 54.5 237.5 c 128,-1,32
 35 282 35 282 35 333 c 0,0,1
297 488 m 256,33,34
 265 488 265 488 237 476 c 128,-1,35
 209 464 209 464 188 442.5 c 128,-1,36
 167 421 167 421 154.5 393 c 128,-1,37
 142 365 142 365 142 333 c 256,38,39
 142 301 142 301 154.5 273.5 c 128,-1,40
 167 246 167 246 188 225 c 128,-1,41
 209 204 209 204 237 191.5 c 128,-1,42
 265 179 265 179 297 179 c 256,43,44
 329 179 329 179 357 191.5 c 128,-1,45
 385 204 385 204 406 225 c 128,-1,46
 427 246 427 246 439.5 273.5 c 128,-1,47
 452 301 452 301 452 333 c 256,48,49
 452 365 452 365 439.5 393 c 128,-1,50
 427 421 427 421 406 442.5 c 128,-1,51
 385 464 385 464 357 476 c 128,-1,52
 329 488 329 488 297 488 c 256,33,34
EndSplineSet
EndChar

StartChar: colon
Encoding: 58 58 33
Width: 228
Flags: W
LayerCount: 2
Fore
SplineSet
68 400 m 1,0,-1
 68 530 l 1,1,-1
 161 530 l 1,2,-1
 161 400 l 1,3,-1
 68 400 l 1,0,-1
68 0 m 1,4,-1
 68 131 l 1,5,-1
 161 131 l 1,6,-1
 161 0 l 1,7,-1
 68 0 l 1,4,-1
EndSplineSet
EndChar

StartChar: semicolon
Encoding: 59 59 34
Width: 245
Flags: W
LayerCount: 2
Fore
SplineSet
73 400 m 1,0,-1
 73 530 l 1,1,-1
 165 530 l 1,2,-1
 165 400 l 1,3,-1
 73 400 l 1,0,-1
84 -99 m 1,4,-1
 109 6 l 1,5,-1
 72 6 l 1,6,-1
 72 131 l 1,7,-1
 173 131 l 1,8,-1
 173 6 l 1,9,-1
 137 -99 l 1,10,-1
 84 -99 l 1,4,-1
EndSplineSet
EndChar

StartChar: less
Encoding: 60 60 35
Width: 585
Flags: W
LayerCount: 2
Fore
SplineSet
533 119 m 1,0,-1
 51 331 l 1,1,-1
 51 382 l 1,2,-1
 533 622 l 1,3,-1
 533 542 l 1,4,-1
 147 360 l 1,5,-1
 533 198 l 1,6,-1
 533 119 l 1,0,-1
EndSplineSet
EndChar

StartChar: equal
Encoding: 61 61 36
Width: 449
Flags: W
LayerCount: 2
Fore
SplineSet
66 166 m 1,0,-1
 66 241 l 1,1,-1
 382 241 l 1,2,-1
 382 166 l 1,3,-1
 66 166 l 1,0,-1
66 325 m 1,4,-1
 66 399 l 1,5,-1
 382 399 l 1,6,-1
 382 325 l 1,7,-1
 66 325 l 1,4,-1
EndSplineSet
EndChar

StartChar: greater
Encoding: 62 62 37
Width: 585
Flags: W
LayerCount: 2
Fore
SplineSet
51 198 m 1,0,-1
 437 359 l 1,1,-1
 51 542 l 1,2,-1
 51 622 l 1,3,-1
 533 382 l 1,4,-1
 533 331 l 1,5,-1
 51 119 l 1,6,-1
 51 198 l 1,0,-1
EndSplineSet
EndChar

StartChar: question
Encoding: 63 63 38
Width: 494
Flags: W
LayerCount: 2
Fore
SplineSet
136 226 m 1,0,1
 136 280 136 280 154 320.5 c 128,-1,2
 172 361 172 361 221 391 c 0,3,4
 239 401 239 401 262.5 414 c 128,-1,5
 286 427 286 427 307.5 444.5 c 128,-1,6
 329 462 329 462 343.5 485.5 c 128,-1,7
 358 509 358 509 358 541 c 0,8,9
 358 565 358 565 348.5 584.5 c 128,-1,10
 339 604 339 604 323.5 617.5 c 128,-1,11
 308 631 308 631 287.5 637.5 c 128,-1,12
 267 644 267 644 246 644 c 0,13,14
 221 644 221 644 200.5 636.5 c 128,-1,15
 180 629 180 629 162.5 616 c 128,-1,16
 145 603 145 603 131.5 586.5 c 128,-1,17
 118 570 118 570 109 554 c 1,18,-1
 35 604 l 1,19,20
 62 668 62 668 120.5 702 c 128,-1,21
 179 736 179 736 249 736 c 0,22,23
 287 736 287 736 324 724.5 c 128,-1,24
 361 713 361 713 391 689 c 128,-1,25
 421 665 421 665 439 627 c 128,-1,26
 457 589 457 589 457 537 c 0,27,28
 457 501 457 501 447.5 475 c 128,-1,29
 438 449 438 449 422.5 428 c 128,-1,30
 407 407 407 407 384.5 391 c 128,-1,31
 362 375 362 375 338 361 c 0,32,33
 317 350 317 350 298 338.5 c 128,-1,34
 279 327 279 327 264 311.5 c 128,-1,35
 249 296 249 296 239.5 275.5 c 128,-1,36
 230 255 230 255 230 226 c 1,37,-1
 136 226 l 1,0,1
136 0 m 1,38,-1
 136 129 l 1,39,-1
 230 129 l 1,40,-1
 230 0 l 1,41,-1
 136 0 l 1,38,-1
EndSplineSet
EndChar

StartChar: at
Encoding: 64 64 39
Width: 863
Flags: W
LayerCount: 2
Fore
SplineSet
430 617 m 256,0,1
 506 617 506 617 574.5 590.5 c 128,-1,2
 643 564 643 564 695.5 514.5 c 128,-1,3
 748 465 748 465 779 392 c 128,-1,4
 810 319 810 319 810 227 c 0,5,6
 810 213 810 213 808.5 189 c 128,-1,7
 807 165 807 165 802 138.5 c 128,-1,8
 797 112 797 112 786.5 84 c 128,-1,9
 776 56 776 56 758.5 33.5 c 128,-1,10
 741 11 741 11 715.5 -2.5 c 128,-1,11
 690 -16 690 -16 654 -16 c 0,12,13
 628 -16 628 -16 610.5 -8.5 c 128,-1,14
 593 -1 593 -1 582.5 11.5 c 128,-1,15
 572 24 572 24 567.5 39.5 c 128,-1,16
 563 55 563 55 561 72 c 1,17,18
 531 40 531 40 485.5 20 c 128,-1,19
 440 0 440 0 387 0 c 0,20,21
 311 0 311 0 271 40 c 128,-1,22
 231 80 231 80 231 141 c 0,23,24
 231 182 231 182 248 210.5 c 128,-1,25
 265 239 265 239 292 255.5 c 128,-1,26
 319 272 319 272 353.5 279.5 c 128,-1,27
 388 287 388 287 422 287 c 0,28,29
 465 287 465 287 496.5 278.5 c 128,-1,30
 528 270 528 270 544 264 c 1,31,32
 544 295 544 295 539 320.5 c 128,-1,33
 534 346 534 346 520 364.5 c 128,-1,34
 506 383 506 383 482.5 393 c 128,-1,35
 459 403 459 403 423 403 c 0,36,37
 381 403 381 403 345.5 391 c 128,-1,38
 310 379 310 379 284 357 c 1,39,-1
 261 419 l 1,40,41
 299 443 299 443 342 456.5 c 128,-1,42
 385 470 385 470 433 470 c 0,43,44
 496 470 496 470 532 450 c 128,-1,45
 568 430 568 430 586 399.5 c 128,-1,46
 604 369 604 369 608.5 331 c 128,-1,47
 613 293 613 293 613 258 c 2,48,-1
 613 147 l 2,49,50
 613 125 613 125 614.5 105 c 128,-1,51
 616 85 616 85 621.5 69.5 c 128,-1,52
 627 54 627 54 637 45.5 c 128,-1,53
 647 37 647 37 665 37 c 0,54,55
 693 37 693 37 712 58 c 128,-1,56
 731 79 731 79 741.5 109 c 128,-1,57
 752 139 752 139 756 172.5 c 128,-1,58
 760 206 760 206 760 229 c 0,59,60
 760 302 760 302 735.5 364.5 c 128,-1,61
 711 427 711 427 667 472.5 c 128,-1,62
 623 518 623 518 561.5 544 c 128,-1,63
 500 570 500 570 427 570 c 0,64,65
 355 570 355 570 294.5 545 c 128,-1,66
 234 520 234 520 189.5 475.5 c 128,-1,67
 145 431 145 431 120 369.5 c 128,-1,68
 95 308 95 308 95 236 c 0,69,70
 95 166 95 166 118.5 104.5 c 128,-1,71
 142 43 142 43 184.5 -3 c 128,-1,72
 227 -49 227 -49 286.5 -75.5 c 128,-1,73
 346 -102 346 -102 418 -102 c 0,74,75
 466 -102 466 -102 502.5 -91.5 c 128,-1,76
 539 -81 539 -81 577 -63 c 1,77,-1
 593 -109 l 1,78,79
 550 -129 550 -129 506 -139.5 c 128,-1,80
 462 -150 462 -150 417 -150 c 0,81,82
 340 -150 340 -150 272.5 -121.5 c 128,-1,83
 205 -93 205 -93 154 -42 c 128,-1,84
 103 9 103 9 74 80 c 128,-1,85
 45 151 45 151 45 236 c 0,86,87
 45 325 45 325 77 396 c 128,-1,88
 109 467 109 467 162 516 c 128,-1,89
 215 565 215 565 284.5 591 c 128,-1,90
 354 617 354 617 430 617 c 256,0,1
485 83 m 0,91,92
 519 99 519 99 531 122 c 128,-1,93
 543 145 543 145 543 170 c 2,94,-1
 543 209 l 1,95,96
 528 212 528 212 496.5 221 c 128,-1,97
 465 230 465 230 422 230 c 0,98,99
 372 230 372 230 336.5 210.5 c 128,-1,100
 301 191 301 191 301 144 c 0,101,102
 301 109 301 109 325.5 85 c 128,-1,103
 350 61 350 61 393 61 c 0,104,105
 416 61 416 61 440.5 67.5 c 128,-1,106
 465 74 465 74 485 83 c 0,91,92
EndSplineSet
EndChar

StartChar: A
Encoding: 65 65 40
Width: 691
Flags: W
LayerCount: 2
Fore
SplineSet
296 727 m 1,0,-1
 396 727 l 1,1,-1
 683 0 l 1,2,-1
 562 0 l 1,3,-1
 485 198 l 1,4,-1
 205 198 l 1,5,-1
 129 0 l 1,6,-1
 7 0 l 1,7,-1
 296 727 l 1,0,-1
463 283 m 1,8,-1
 346 595 l 1,9,-1
 225 283 l 1,10,-1
 463 283 l 1,8,-1
EndSplineSet
EndChar

StartChar: B
Encoding: 66 66 41
Width: 691
Flags: W
LayerCount: 2
Fore
SplineSet
653 187 m 0,0,1
 653 143 653 143 635 108.5 c 128,-1,2
 617 74 617 74 587 50 c 128,-1,3
 557 26 557 26 516 13 c 128,-1,4
 475 0 475 0 429 0 c 2,5,-1
 82 0 l 1,6,-1
 82 727 l 1,7,-1
 457 727 l 2,8,9
 495 727 495 727 525.5 710.5 c 128,-1,10
 556 694 556 694 577.5 668 c 128,-1,11
 599 642 599 642 611 608.5 c 128,-1,12
 623 575 623 575 623 542 c 0,13,14
 623 488 623 488 595.5 441.5 c 128,-1,15
 568 395 568 395 518 373 c 1,16,17
 581 354 581 354 617 305.5 c 128,-1,18
 653 257 653 257 653 187 c 0,0,1
536 209 m 0,19,20
 536 231 536 231 528 251.5 c 128,-1,21
 520 272 520 272 507.5 287.5 c 128,-1,22
 495 303 495 303 476.5 312.5 c 128,-1,23
 458 322 458 322 436 322 c 2,24,-1
 197 322 l 1,25,-1
 197 99 l 1,26,-1
 429 99 l 2,27,28
 452 99 452 99 471 108 c 128,-1,29
 490 117 490 117 504.5 131.5 c 128,-1,30
 519 146 519 146 527.5 166 c 128,-1,31
 536 186 536 186 536 209 c 0,19,20
197 628 m 1,32,-1
 197 414 l 1,33,-1
 408 414 l 2,34,35
 429 414 429 414 447 422 c 128,-1,36
 465 430 465 430 479 444 c 128,-1,37
 493 458 493 458 500.5 477.5 c 128,-1,38
 508 497 508 497 508 520 c 0,39,40
 508 567 508 567 481.5 597.5 c 128,-1,41
 455 628 455 628 414 628 c 2,42,-1
 197 628 l 1,32,-1
EndSplineSet
EndChar

StartChar: C
Encoding: 67 67 42
Width: 700
Flags: W
LayerCount: 2
Fore
SplineSet
36 369 m 0,0,1
 36 434 36 434 59.5 499 c 128,-1,2
 83 564 83 564 128.5 616 c 128,-1,3
 174 668 174 668 239.5 699.5 c 128,-1,4
 305 731 305 731 388 731 c 0,5,6
 487 731 487 731 558 687 c 128,-1,7
 629 643 629 643 665 572 c 1,8,-1
 574 512 l 1,9,10
 559 545 559 545 537.5 567.5 c 128,-1,11
 516 590 516 590 490.5 603 c 128,-1,12
 465 616 465 616 437.5 622 c 128,-1,13
 410 628 410 628 384 628 c 0,14,15
 327 628 327 628 284 605 c 128,-1,16
 241 582 241 582 211.5 544 c 128,-1,17
 182 506 182 506 167.5 459 c 128,-1,18
 153 412 153 412 153 365 c 0,19,20
 153 311 153 311 170 263 c 128,-1,21
 187 215 187 215 218.5 178 c 128,-1,22
 250 141 250 141 293 119 c 128,-1,23
 336 97 336 97 387 97 c 0,24,25
 414 97 414 97 442 104 c 128,-1,26
 470 111 470 111 496 125.5 c 128,-1,27
 522 140 522 140 544 162.5 c 128,-1,28
 566 185 566 185 581 217 c 1,29,-1
 676 163 l 1,30,31
 658 122 658 122 626.5 90.5 c 128,-1,32
 595 59 595 59 555 37.5 c 128,-1,33
 515 16 515 16 470.5 5 c 128,-1,34
 426 -6 426 -6 383 -6 c 0,35,36
 306 -6 306 -6 242.5 26.5 c 128,-1,37
 179 59 179 59 133 112 c 128,-1,38
 87 165 87 165 61.5 232 c 128,-1,39
 36 299 36 299 36 369 c 0,0,1
EndSplineSet
EndChar

StartChar: D
Encoding: 68 68 43
Width: 733
Flags: W
LayerCount: 2
Fore
SplineSet
82 0 m 1,0,-1
 82 727 l 1,1,-1
 340 727 l 2,2,3
 428 727 428 727 494 698.5 c 128,-1,4
 560 670 560 670 604.5 620.5 c 128,-1,5
 649 571 649 571 671.5 505 c 128,-1,6
 694 439 694 439 694 365 c 0,7,8
 694 282 694 282 669 214.5 c 128,-1,9
 644 147 644 147 598 99.5 c 128,-1,10
 552 52 552 52 486.5 26 c 128,-1,11
 421 0 421 0 340 0 c 2,12,-1
 82 0 l 1,0,-1
578 365 m 256,13,14
 578 422 578 422 562 470 c 128,-1,15
 546 518 546 518 515 552.5 c 128,-1,16
 484 587 484 587 440 606.5 c 128,-1,17
 396 626 396 626 340 626 c 2,18,-1
 197 626 l 1,19,-1
 197 101 l 1,20,-1
 340 101 l 2,21,22
 397 101 397 101 441.5 121 c 128,-1,23
 486 141 486 141 516.5 176.5 c 128,-1,24
 547 212 547 212 562.5 260 c 128,-1,25
 578 308 578 308 578 365 c 256,13,14
EndSplineSet
EndChar

StartChar: E
Encoding: 69 69 44
Width: 617
Flags: W
LayerCount: 2
Fore
SplineSet
581 101 m 1,0,-1
 581 0 l 1,1,-1
 82 0 l 1,2,-1
 82 727 l 1,3,-1
 571 727 l 1,4,-1
 571 626 l 1,5,-1
 197 626 l 1,6,-1
 197 419 l 1,7,-1
 521 419 l 1,8,-1
 521 324 l 1,9,-1
 197 324 l 1,10,-1
 197 101 l 1,11,-1
 581 101 l 1,0,-1
EndSplineSet
EndChar

StartChar: F
Encoding: 70 70 45
Width: 593
Flags: W
LayerCount: 2
Fore
SplineSet
82 0 m 1,0,-1
 82 727 l 1,1,-1
 566 727 l 1,2,-1
 566 626 l 1,3,-1
 197 626 l 1,4,-1
 197 409 l 1,5,-1
 506 409 l 1,6,-1
 506 313 l 1,7,-1
 197 313 l 1,8,-1
 197 0 l 1,9,-1
 82 0 l 1,0,-1
EndSplineSet
EndChar

StartChar: G
Encoding: 71 71 46
Width: 736
Flags: W
LayerCount: 2
Fore
SplineSet
591 90 m 1,0,1
 499 -5 499 -5 379 -5 c 0,2,3
 306 -5 306 -5 243.5 25 c 128,-1,4
 181 55 181 55 135 106.5 c 128,-1,5
 89 158 89 158 63 225.5 c 128,-1,6
 37 293 37 293 37 367 c 0,7,8
 37 440 37 440 63 506.5 c 128,-1,9
 89 573 89 573 135 623.5 c 128,-1,10
 181 674 181 674 244.5 703 c 128,-1,11
 308 732 308 732 383 732 c 0,12,13
 487 732 487 732 558 688.5 c 128,-1,14
 629 645 629 645 665 573 c 1,15,-1
 577 510 l 1,16,17
 547 569 547 569 494.5 599 c 128,-1,18
 442 629 442 629 380 629 c 0,19,20
 329 629 329 629 287 607 c 128,-1,21
 245 585 245 585 215 548.5 c 128,-1,22
 185 512 185 512 169.5 464 c 128,-1,23
 154 416 154 416 154 364 c 0,24,25
 154 308 154 308 171.5 260 c 128,-1,26
 189 212 189 212 220.5 176 c 128,-1,27
 252 140 252 140 295 119 c 128,-1,28
 338 98 338 98 388 98 c 0,29,30
 443 98 443 98 494 124 c 128,-1,31
 545 150 545 150 591 205 c 1,32,-1
 591 283 l 1,33,-1
 438 283 l 1,34,-1
 438 368 l 1,35,-1
 687 368 l 1,36,-1
 687 0 l 1,37,-1
 591 0 l 1,38,-1
 591 90 l 1,0,1
EndSplineSet
EndChar

StartChar: H
Encoding: 72 72 47
Width: 761
Flags: W
LayerCount: 2
Fore
SplineSet
679 727 m 1,0,-1
 679 0 l 1,1,-1
 563 0 l 1,2,-1
 563 321 l 1,3,-1
 197 321 l 1,4,-1
 197 0 l 1,5,-1
 82 0 l 1,6,-1
 82 727 l 1,7,-1
 197 727 l 1,8,-1
 197 423 l 1,9,-1
 563 423 l 1,10,-1
 563 727 l 1,11,-1
 679 727 l 1,0,-1
EndSplineSet
EndChar

StartChar: I
Encoding: 73 73 48
Width: 279
Flags: W
LayerCount: 2
Fore
SplineSet
82 0 m 1,0,-1
 82 727 l 1,1,-1
 197 727 l 1,2,-1
 197 0 l 1,3,-1
 82 0 l 1,0,-1
EndSplineSet
EndChar

StartChar: J
Encoding: 74 74 49
Width: 500
Flags: W
LayerCount: 2
Fore
SplineSet
38 128 m 1,0,1
 55 116 55 116 89.5 104 c 128,-1,2
 124 92 124 92 168 92 c 0,3,4
 215 92 215 92 243 109 c 128,-1,5
 271 126 271 126 286 159.5 c 128,-1,6
 301 193 301 193 305.5 242.5 c 128,-1,7
 310 292 310 292 310 357 c 2,8,-1
 310 727 l 1,9,-1
 426 727 l 1,10,-1
 426 357 l 2,11,12
 426 274 426 274 418 206 c 128,-1,13
 410 138 410 138 383 90 c 128,-1,14
 356 42 356 42 305 15.5 c 128,-1,15
 254 -11 254 -11 168 -11 c 0,16,17
 76 -11 76 -11 10 34 c 1,18,-1
 38 128 l 1,0,1
EndSplineSet
EndChar

StartChar: K
Encoding: 75 75 50
Width: 676
Flags: W
LayerCount: 2
Fore
SplineSet
82 0 m 1,0,-1
 82 726 l 1,1,-1
 197 726 l 1,2,-1
 197 352 l 1,3,-1
 539 727 l 1,4,-1
 666 727 l 1,5,-1
 379 406 l 1,6,-1
 682 0 l 1,7,-1
 554 0 l 1,8,-1
 308 335 l 1,9,-1
 197 219 l 1,10,-1
 197 0 l 1,11,-1
 82 0 l 1,0,-1
EndSplineSet
EndChar

StartChar: L
Encoding: 76 76 51
Width: 598
Flags: W
LayerCount: 2
Fore
SplineSet
82 0 m 1,0,-1
 82 727 l 1,1,-1
 197 727 l 1,2,-1
 197 101 l 1,3,-1
 587 101 l 1,4,-1
 587 0 l 1,5,-1
 82 0 l 1,0,-1
EndSplineSet
EndChar

StartChar: M
Encoding: 77 77 52
Width: 891
Flags: W
LayerCount: 2
Fore
SplineSet
693 0 m 1,0,-1
 693 523 l 1,1,-1
 477 127 l 1,2,-1
 414 127 l 1,3,-1
 197 523 l 1,4,-1
 197 0 l 1,5,-1
 82 0 l 1,6,-1
 82 727 l 1,7,-1
 205 727 l 1,8,-1
 445 283 l 1,9,-1
 686 727 l 1,10,-1
 809 727 l 1,11,-1
 809 0 l 1,12,-1
 693 0 l 1,0,-1
EndSplineSet
EndChar

StartChar: N
Encoding: 78 78 53
Width: 785
Flags: W
LayerCount: 2
Fore
SplineSet
197 512 m 1,0,-1
 197 0 l 1,1,-1
 82 0 l 1,2,-1
 82 727 l 1,3,-1
 172 727 l 1,4,-1
 588 203 l 1,5,-1
 588 726 l 1,6,-1
 703 726 l 1,7,-1
 703 0 l 1,8,-1
 608 0 l 1,9,-1
 197 512 l 1,0,-1
EndSplineSet
EndChar

StartChar: O
Encoding: 79 79 54
Width: 770
Flags: W
LayerCount: 2
Fore
SplineSet
384 -5 m 0,0,1
 306 -5 306 -5 242 26 c 128,-1,2
 178 57 178 57 132 109 c 128,-1,3
 86 161 86 161 61 227.5 c 128,-1,4
 36 294 36 294 36 364 c 0,5,6
 36 436 36 436 62.5 502.5 c 128,-1,7
 89 569 89 569 135.5 620.5 c 128,-1,8
 182 672 182 672 246 702 c 128,-1,9
 310 732 310 732 386 732 c 0,10,11
 464 732 464 732 528 700 c 128,-1,12
 592 668 592 668 637.5 615.5 c 128,-1,13
 683 563 683 563 708 497 c 128,-1,14
 733 431 733 431 733 362 c 0,15,16
 733 290 733 290 707 223.5 c 128,-1,17
 681 157 681 157 634 106 c 128,-1,18
 587 55 587 55 523 25 c 128,-1,19
 459 -5 459 -5 384 -5 c 0,0,1
153 364 m 0,20,21
 153 312 153 312 169 264 c 128,-1,22
 185 216 185 216 215.5 179 c 128,-1,23
 246 142 246 142 289 120 c 128,-1,24
 332 98 332 98 385 98 c 0,25,26
 440 98 440 98 482.5 121 c 128,-1,27
 525 144 525 144 555 182 c 128,-1,28
 585 220 585 220 600 267 c 128,-1,29
 615 314 615 314 615 364 c 0,30,31
 615 416 615 416 599 463.5 c 128,-1,32
 583 511 583 511 552.5 547.5 c 128,-1,33
 522 584 522 584 479.5 606 c 128,-1,34
 437 628 437 628 385 628 c 0,35,36
 330 628 330 628 287 605 c 128,-1,37
 244 582 244 582 214 545 c 128,-1,38
 184 508 184 508 168.5 460.5 c 128,-1,39
 153 413 153 413 153 364 c 0,20,21
EndSplineSet
EndChar

StartChar: P
Encoding: 80 80 55
Width: 638
Flags: W
LayerCount: 2
Fore
SplineSet
82 0 m 1,0,-1
 82 727 l 1,1,-1
 387 727 l 2,2,3
 436 727 436 727 477.5 706.5 c 128,-1,4
 519 686 519 686 549 653 c 128,-1,5
 579 620 579 620 595.5 577.5 c 128,-1,6
 612 535 612 535 612 490 c 0,7,8
 612 444 612 444 596.5 401.5 c 128,-1,9
 581 359 581 359 552 326 c 128,-1,10
 523 293 523 293 482.5 273 c 128,-1,11
 442 253 442 253 393 253 c 2,12,-1
 197 253 l 1,13,-1
 197 0 l 1,14,-1
 82 0 l 1,0,-1
197 354 m 1,15,-1
 386 354 l 2,16,17
 411 354 411 354 431 364.5 c 128,-1,18
 451 375 451 375 465 393.5 c 128,-1,19
 479 412 479 412 487.5 436.5 c 128,-1,20
 496 461 496 461 496 490 c 0,21,22
 496 521 496 521 486.5 545.5 c 128,-1,23
 477 570 477 570 460.5 588 c 128,-1,24
 444 606 444 606 423 616 c 128,-1,25
 402 626 402 626 380 626 c 2,26,-1
 197 626 l 1,27,-1
 197 354 l 1,15,-1
EndSplineSet
EndChar

StartChar: Q
Encoding: 81 81 56
Width: 768
Flags: W
LayerCount: 2
Fore
SplineSet
573 53 m 1,0,1
 532 26 532 26 484.5 10.5 c 128,-1,2
 437 -5 437 -5 384 -5 c 0,3,4
 306 -5 306 -5 242 26.5 c 128,-1,5
 178 58 178 58 132 109.5 c 128,-1,6
 86 161 86 161 61 227.5 c 128,-1,7
 36 294 36 294 36 364 c 0,8,9
 36 436 36 436 62.5 502.5 c 128,-1,10
 89 569 89 569 135.5 620.5 c 128,-1,11
 182 672 182 672 246 702 c 128,-1,12
 310 732 310 732 386 732 c 0,13,14
 464 732 464 732 528 700 c 128,-1,15
 592 668 592 668 637.5 615.5 c 128,-1,16
 683 563 683 563 708 497 c 128,-1,17
 733 431 733 431 733 362 c 0,18,19
 733 290 733 290 707.5 225 c 128,-1,20
 682 160 682 160 636 109 c 1,21,-1
 731 0 l 1,22,-1
 621 0 l 1,23,-1
 573 53 l 1,0,1
385 98 m 0,24,25
 419 98 419 98 448.5 107.5 c 128,-1,26
 478 117 478 117 503 133 c 1,27,-1
 399 253 l 1,28,-1
 510 253 l 1,29,-1
 562 193 l 1,30,31
 589 228 589 228 602 272.5 c 128,-1,32
 615 317 615 317 615 364 c 0,33,34
 615 416 615 416 599 463.5 c 128,-1,35
 583 511 583 511 552.5 548 c 128,-1,36
 522 585 522 585 479.5 607 c 128,-1,37
 437 629 437 629 385 629 c 0,38,39
 330 629 330 629 287 606 c 128,-1,40
 244 583 244 583 214 545.5 c 128,-1,41
 184 508 184 508 168.5 460.5 c 128,-1,42
 153 413 153 413 153 364 c 0,43,44
 153 312 153 312 169 264 c 128,-1,45
 185 216 185 216 215.5 179 c 128,-1,46
 246 142 246 142 289 120 c 128,-1,47
 332 98 332 98 385 98 c 0,24,25
EndSplineSet
EndChar

StartChar: R
Encoding: 82 82 57
Width: 677
Flags: W
LayerCount: 2
Fore
SplineSet
82 0 m 1,0,-1
 82 727 l 1,1,-1
 398 727 l 2,2,3
 447 727 447 727 488.5 706.5 c 128,-1,4
 530 686 530 686 560 653 c 128,-1,5
 590 620 590 620 607 577.5 c 128,-1,6
 624 535 624 535 624 490 c 0,7,8
 624 454 624 454 613.5 420 c 128,-1,9
 603 386 603 386 584.5 357.5 c 128,-1,10
 566 329 566 329 539.5 308 c 128,-1,11
 513 287 513 287 481 276 c 1,12,-1
 652 0 l 1,13,-1
 522 0 l 1,14,-1
 365 253 l 1,15,-1
 197 253 l 1,16,-1
 197 0 l 1,17,-1
 82 0 l 1,0,-1
197 354 m 1,18,-1
 397 354 l 2,19,20
 422 354 422 354 442 365 c 128,-1,21
 462 376 462 376 476 395 c 128,-1,22
 490 414 490 414 498.5 438.5 c 128,-1,23
 507 463 507 463 507 490 c 0,24,25
 507 518 507 518 497 542.5 c 128,-1,26
 487 567 487 567 471.5 585.5 c 128,-1,27
 456 604 456 604 435 615 c 128,-1,28
 414 626 414 626 391 626 c 2,29,-1
 197 626 l 1,30,-1
 197 354 l 1,18,-1
EndSplineSet
EndChar

StartChar: S
Encoding: 83 83 58
Width: 626
Flags: W
LayerCount: 2
Fore
SplineSet
512 556 m 1,0,1
 502 567 502 567 482.5 580 c 128,-1,2
 463 593 463 593 437 604 c 128,-1,3
 411 615 411 615 379.5 622.5 c 128,-1,4
 348 630 348 630 315 630 c 0,5,6
 243 630 243 630 208.5 603.5 c 128,-1,7
 174 577 174 577 174 529 c 0,8,9
 174 503 174 503 185 486 c 128,-1,10
 196 469 196 469 218.5 456 c 128,-1,11
 241 443 241 443 274.5 433.5 c 128,-1,12
 308 424 308 424 353 413 c 0,13,14
 409 399 409 399 453.5 383 c 128,-1,15
 498 367 498 367 528.5 343 c 128,-1,16
 559 319 559 319 576 285 c 128,-1,17
 593 251 593 251 593 202 c 0,18,19
 593 146 593 146 572 106.5 c 128,-1,20
 551 67 551 67 514.5 41.5 c 128,-1,21
 478 16 478 16 430 4.5 c 128,-1,22
 382 -7 382 -7 327 -7 c 0,23,24
 244 -7 244 -7 166.5 18 c 128,-1,25
 89 43 89 43 27 91 c 1,26,-1
 79 189 l 1,27,28
 92 176 92 176 117 159.5 c 128,-1,29
 142 143 142 143 175.5 129.5 c 128,-1,30
 209 116 209 116 248 106 c 128,-1,31
 287 96 287 96 329 96 c 0,32,33
 396 96 396 96 433 119.5 c 128,-1,34
 470 143 470 143 470 189 c 0,35,36
 470 217 470 217 456 235.5 c 128,-1,37
 442 254 442 254 416.5 268 c 128,-1,38
 391 282 391 282 354 293 c 128,-1,39
 317 304 317 304 270 316 c 0,40,41
 216 331 216 331 175.5 346.5 c 128,-1,42
 135 362 135 362 108.5 385 c 128,-1,43
 82 408 82 408 68 438 c 128,-1,44
 54 468 54 468 54 511 c 0,45,46
 54 564 54 564 74.5 605.5 c 128,-1,47
 95 647 95 647 130.5 675 c 128,-1,48
 166 703 166 703 214 717.5 c 128,-1,49
 262 732 262 732 318 732 c 0,50,51
 392 732 392 732 454.5 708.5 c 128,-1,52
 517 685 517 685 564 650 c 1,53,-1
 512 556 l 1,0,1
EndSplineSet
EndChar

StartChar: T
Encoding: 84 84 59
Width: 631
Flags: W
LayerCount: 2
Fore
SplineSet
615 626 m 1,0,-1
 374 626 l 1,1,-1
 374 0 l 1,2,-1
 258 0 l 1,3,-1
 258 626 l 1,4,-1
 15 626 l 1,5,-1
 15 727 l 1,6,-1
 615 727 l 1,7,-1
 615 626 l 1,0,-1
EndSplineSet
EndChar

StartChar: U
Encoding: 85 85 60
Width: 770
Flags: W
LayerCount: 2
Fore
SplineSet
385 98 m 0,0,1
 442 98 442 98 480 120.5 c 128,-1,2
 518 143 518 143 541 179.5 c 128,-1,3
 564 216 564 216 574 262.5 c 128,-1,4
 584 309 584 309 584 358 c 2,5,-1
 584 727 l 1,6,-1
 699 727 l 1,7,-1
 699 358 l 2,8,9
 699 284 699 284 682 218 c 128,-1,10
 665 152 665 152 627 102 c 128,-1,11
 589 52 589 52 529 23.5 c 128,-1,12
 469 -5 469 -5 385 -5 c 0,13,14
 298 -5 298 -5 238 25 c 128,-1,15
 178 55 178 55 141 106 c 128,-1,16
 104 157 104 157 88 222.5 c 128,-1,17
 72 288 72 288 72 358 c 2,18,-1
 72 727 l 1,19,-1
 186 727 l 1,20,-1
 186 358 l 2,21,22
 186 308 186 308 196 261.5 c 128,-1,23
 206 215 206 215 229 178.5 c 128,-1,24
 252 142 252 142 290.5 120 c 128,-1,25
 329 98 329 98 385 98 c 0,0,1
EndSplineSet
EndChar

StartChar: V
Encoding: 86 86 61
Width: 694
Flags: W
LayerCount: 2
Fore
SplineSet
128 727 m 1,0,-1
 347 144 l 1,1,-1
 565 727 l 1,2,-1
 687 727 l 1,3,-1
 396 0 l 1,4,-1
 298 0 l 1,5,-1
 6 727 l 1,6,-1
 128 727 l 1,0,-1
EndSplineSet
EndChar

StartChar: W
Encoding: 87 87 62
Width: 1076
Flags: W
LayerCount: 2
Fore
SplineSet
340 724 m 1,0,-1
 449 724 l 1,1,-1
 538 477 l 1,2,-1
 628 724 l 1,3,-1
 735 724 l 1,4,-1
 611 400 l 1,5,-1
 720 133 l 1,6,-1
 946 727 l 1,7,-1
 1072 727 l 1,8,-1
 772 0 l 1,9,-1
 674 0 l 1,10,-1
 539 326 l 1,11,-1
 402 0 l 1,12,-1
 304 0 l 1,13,-1
 4 727 l 1,14,-1
 129 727 l 1,15,-1
 356 133 l 1,16,-1
 465 400 l 1,17,-1
 340 724 l 1,0,-1
EndSplineSet
EndChar

StartChar: X
Encoding: 88 88 63
Width: 656
Flags: W
LayerCount: 2
Fore
SplineSet
127 727 m 1,0,-1
 329 440 l 1,1,-1
 530 727 l 1,2,-1
 656 727 l 1,3,-1
 390 358 l 1,4,-1
 648 0 l 1,5,-1
 522 0 l 1,6,-1
 329 276 l 1,7,-1
 135 0 l 1,8,-1
 8 0 l 1,9,-1
 267 358 l 1,10,-1
 0 727 l 1,11,-1
 127 727 l 1,0,-1
EndSplineSet
EndChar

StartChar: Y
Encoding: 89 89 64
Width: 673
Flags: W
LayerCount: 2
Fore
SplineSet
135 727 m 1,0,-1
 336 362 l 1,1,-1
 539 727 l 1,2,-1
 665 727 l 1,3,-1
 393 260 l 1,4,-1
 393 0 l 1,5,-1
 279 0 l 1,6,-1
 279 262 l 1,7,-1
 9 727 l 1,8,-1
 135 727 l 1,0,-1
EndSplineSet
EndChar

StartChar: Z
Encoding: 90 90 65
Width: 644
Flags: W
LayerCount: 2
Fore
SplineSet
32 88 m 1,0,-1
 473 626 l 1,1,-1
 42 626 l 1,2,-1
 42 727 l 1,3,-1
 607 727 l 1,4,-1
 607 639 l 1,5,-1
 176 101 l 1,6,-1
 608 101 l 1,7,-1
 608 0 l 1,8,-1
 32 0 l 1,9,-1
 32 88 l 1,0,-1
EndSplineSet
EndChar

StartChar: bracketleft
Encoding: 91 91 66
Width: 299
Flags: W
LayerCount: 2
Fore
SplineSet
85 -41 m 1,0,-1
 85 758 l 1,1,-1
 252 758 l 1,2,-1
 252 667 l 1,3,-1
 189 667 l 1,4,-1
 189 50 l 1,5,-1
 252 50 l 1,6,-1
 252 -41 l 1,7,-1
 85 -41 l 1,0,-1
EndSplineSet
EndChar

StartChar: backslash
Encoding: 92 92 67
Width: 627
Flags: W
LayerCount: 2
Fore
SplineSet
154 727 m 1,0,-1
 599 0 l 1,1,-1
 474 0 l 1,2,-1
 28 727 l 1,3,-1
 154 727 l 1,0,-1
EndSplineSet
EndChar

StartChar: bracketright
Encoding: 93 93 68
Width: 299
Flags: W
LayerCount: 2
Fore
SplineSet
47 -41 m 1,0,-1
 47 50 l 1,1,-1
 110 50 l 1,2,-1
 110 667 l 1,3,-1
 47 667 l 1,4,-1
 47 758 l 1,5,-1
 214 758 l 1,6,-1
 214 -41 l 1,7,-1
 47 -41 l 1,0,-1
EndSplineSet
EndChar

StartChar: asciicircum
Encoding: 94 94 69
Width: 583
Flags: W
LayerCount: 2
Fore
SplineSet
42 310 m 1,0,-1
 245 727 l 1,1,-1
 339 727 l 1,2,-1
 541 310 l 1,3,-1
 446 310 l 1,4,-1
 292 630 l 1,5,-1
 134 310 l 1,6,-1
 42 310 l 1,0,-1
EndSplineSet
EndChar

StartChar: underscore
Encoding: 95 95 70
Width: 502
Flags: W
LayerCount: 2
Fore
SplineSet
60 -101 m 1,0,-1
 60 0 l 1,1,-1
 441 0 l 1,2,-1
 441 -101 l 1,3,-1
 60 -101 l 1,0,-1
EndSplineSet
EndChar

StartChar: grave
Encoding: 96 96 71
Width: 249
Flags: W
LayerCount: 2
Fore
SplineSet
48 748 m 1,0,-1
 156 748 l 1,1,-1
 214 635 l 1,2,-1
 142 612 l 1,3,-1
 48 748 l 1,0,-1
EndSplineSet
EndChar

StartChar: a
Encoding: 97 97 72
Width: 578
Flags: W
LayerCount: 2
Fore
SplineSet
210 -10 m 0,0,1
 171 -10 171 -10 137.5 2.5 c 128,-1,2
 104 15 104 15 80 37.5 c 128,-1,3
 56 60 56 60 42.5 91 c 128,-1,4
 29 122 29 122 29 158 c 0,5,6
 29 196 29 196 45 226.5 c 128,-1,7
 61 257 61 257 91.5 279.5 c 128,-1,8
 122 302 122 302 163.5 314.5 c 128,-1,9
 205 327 205 327 255 327 c 0,10,11
 293 327 293 327 330 320 c 128,-1,12
 367 313 367 313 396 302 c 1,13,-1
 396 339 l 2,14,15
 396 398 396 398 362.5 431.5 c 128,-1,16
 329 465 329 465 265 465 c 0,17,18
 222 465 222 465 180.5 449 c 128,-1,19
 139 433 139 433 95 403 c 1,20,-1
 60 475 l 1,21,22
 164 545 164 545 275 545 c 256,23,24
 386 545 386 545 447.5 488.5 c 128,-1,25
 509 432 509 432 509 327 c 2,26,-1
 509 133 l 2,27,28
 509 97 509 97 539 96 c 1,29,-1
 539 0 l 1,30,31
 522 -3 522 -3 510.5 -4 c 128,-1,32
 499 -5 499 -5 487 -5 c 0,33,34
 455 -5 455 -5 437 11.5 c 128,-1,35
 419 28 419 28 415 53 c 2,36,-1
 412 87 l 1,37,38
 376 40 376 40 323 15 c 128,-1,39
 270 -10 270 -10 210 -10 c 0,0,1
241 73 m 0,40,41
 282 73 282 73 318 87.5 c 128,-1,42
 354 102 354 102 375 129 c 1,43,44
 396 147 396 147 396 168 c 2,45,-1
 396 239 l 1,46,47
 368 250 368 250 335.5 256 c 128,-1,48
 303 262 303 262 272 262 c 0,49,50
 212 262 212 262 173.5 236 c 128,-1,51
 135 210 135 210 135 167 c 0,52,53
 135 127 135 127 165 100 c 128,-1,54
 195 73 195 73 241 73 c 0,40,41
EndSplineSet
EndChar

StartChar: b
Encoding: 98 98 73
Width: 643
Flags: W
LayerCount: 2
Fore
SplineSet
356 -10 m 0,0,1
 295 -10 295 -10 245.5 19 c 128,-1,2
 196 48 196 48 167 97 c 1,3,-1
 167 0 l 1,4,-1
 68 0 l 1,5,-1
 68 748 l 1,6,-1
 180 748 l 1,7,-1
 180 434 l 1,8,9
 212 485 212 485 259.5 515 c 128,-1,10
 307 545 307 545 372 545 c 0,11,12
 425 545 425 545 469 522 c 128,-1,13
 513 499 513 499 544 460.5 c 128,-1,14
 575 422 575 422 592 371.5 c 128,-1,15
 609 321 609 321 609 265 c 0,16,17
 609 208 609 208 589.5 158 c 128,-1,18
 570 108 570 108 536.5 70.5 c 128,-1,19
 503 33 503 33 456.5 11.5 c 128,-1,20
 410 -10 410 -10 356 -10 c 0,0,1
327 86 m 0,21,22
 364 86 364 86 394.5 101 c 128,-1,23
 425 116 425 116 447 140.5 c 128,-1,24
 469 165 469 165 481.5 197 c 128,-1,25
 494 229 494 229 494 265 c 256,26,27
 494 301 494 301 482 334.5 c 128,-1,28
 470 368 470 368 449 393 c 128,-1,29
 428 418 428 418 399 433.5 c 128,-1,30
 370 449 370 449 335 449 c 0,31,32
 283 449 283 449 242.5 415 c 128,-1,33
 202 381 202 381 180 333 c 1,34,-1
 180 191 l 1,35,36
 186 168 186 168 201.5 149 c 128,-1,37
 217 130 217 130 237.5 115.5 c 128,-1,38
 258 101 258 101 281.5 93.5 c 128,-1,39
 305 86 305 86 327 86 c 0,21,22
EndSplineSet
EndChar

StartChar: c
Encoding: 99 99 74
Width: 572
Flags: W
LayerCount: 2
Fore
SplineSet
33 268 m 0,0,1
 33 325 33 325 52.5 375 c 128,-1,2
 72 425 72 425 108 463 c 128,-1,3
 144 501 144 501 195.5 523 c 128,-1,4
 247 545 247 545 310 545 c 0,5,6
 393 545 393 545 453 508.5 c 128,-1,7
 513 472 513 472 543 412 c 1,8,-1
 433 377 l 1,9,10
 414 411 414 411 381 430 c 128,-1,11
 348 449 348 449 308 449 c 0,12,13
 274 449 274 449 245 435.5 c 128,-1,14
 216 422 216 422 194.5 398 c 128,-1,15
 173 374 173 374 160.5 341 c 128,-1,16
 148 308 148 308 148 268 c 0,17,18
 148 229 148 229 161 196 c 128,-1,19
 174 163 174 163 196 138.5 c 128,-1,20
 218 114 218 114 247 100 c 128,-1,21
 276 86 276 86 309 86 c 0,22,23
 330 86 330 86 350.5 91.5 c 128,-1,24
 371 97 371 97 387.5 107.5 c 128,-1,25
 404 118 404 118 417 131 c 128,-1,26
 430 144 430 144 436 160 c 1,27,-1
 547 127 l 1,28,29
 520 67 520 67 457.5 28.5 c 128,-1,30
 395 -10 395 -10 310 -10 c 0,31,32
 248 -10 248 -10 196.5 12.5 c 128,-1,33
 145 35 145 35 109 73.5 c 128,-1,34
 73 112 73 112 53 162 c 128,-1,35
 33 212 33 212 33 268 c 0,0,1
EndSplineSet
EndChar

StartChar: d
Encoding: 100 100 75
Width: 652
Flags: W
LayerCount: 2
Fore
SplineSet
286 -10 m 0,0,1
 231 -10 231 -10 185 12 c 128,-1,2
 139 34 139 34 105.5 72 c 128,-1,3
 72 110 72 110 53 160.5 c 128,-1,4
 34 211 34 211 34 269 c 0,5,6
 34 326 34 326 52 375.5 c 128,-1,7
 70 425 70 425 102 463 c 128,-1,8
 134 501 134 501 177.5 523 c 128,-1,9
 221 545 221 545 273 545 c 0,10,11
 338 545 338 545 387 513.5 c 128,-1,12
 436 482 436 482 464 434 c 1,13,-1
 464 748 l 1,14,-1
 577 748 l 1,15,-1
 577 133 l 2,16,17
 577 114 577 114 583.5 105.5 c 128,-1,18
 590 97 590 97 607 96 c 1,19,-1
 607 0 l 1,20,21
 590 -3 590 -3 579 -4 c 128,-1,22
 568 -5 568 -5 561 -5 c 0,23,24
 527 -5 527 -5 505.5 12.5 c 128,-1,25
 484 30 484 30 482 57 c 2,26,-1
 480 97 l 1,27,28
 451 47 451 47 399.5 18.5 c 128,-1,29
 348 -10 348 -10 286 -10 c 0,0,1
313 86 m 0,30,31
 338 86 338 86 362.5 94 c 128,-1,32
 387 102 387 102 407.5 116.5 c 128,-1,33
 428 131 428 131 443 150.5 c 128,-1,34
 458 170 458 170 464 193 c 1,35,-1
 464 333 l 1,36,37
 455 358 455 358 438 379.5 c 128,-1,38
 421 401 421 401 399.5 416.5 c 128,-1,39
 378 432 378 432 354 440.5 c 128,-1,40
 330 449 330 449 305 449 c 0,41,42
 271 449 271 449 243 433.5 c 128,-1,43
 215 418 215 418 194.5 392.5 c 128,-1,44
 174 367 174 367 162.5 334 c 128,-1,45
 151 301 151 301 151 266 c 0,46,47
 151 229 151 229 163.5 196.5 c 128,-1,48
 176 164 176 164 198.5 139.5 c 128,-1,49
 221 115 221 115 250.5 100.5 c 128,-1,50
 280 86 280 86 313 86 c 0,30,31
EndSplineSet
EndChar

StartChar: e
Encoding: 101 101 76
Width: 609
Flags: W
LayerCount: 2
Fore
SplineSet
310 -10 m 0,0,1
 248 -10 248 -10 196.5 12 c 128,-1,2
 145 34 145 34 109 72 c 128,-1,3
 73 110 73 110 53 160 c 128,-1,4
 33 210 33 210 33 266 c 0,5,6
 33 323 33 323 53 373.5 c 128,-1,7
 73 424 73 424 109 462.5 c 128,-1,8
 145 501 145 501 196.5 523 c 128,-1,9
 248 545 248 545 311 545 c 256,10,11
 374 545 374 545 424.5 522.5 c 128,-1,12
 475 500 475 500 511 462.5 c 128,-1,13
 547 425 547 425 566 375.5 c 128,-1,14
 585 326 585 326 585 271 c 0,15,16
 585 259 585 259 584 248.5 c 128,-1,17
 583 238 583 238 582 230 c 1,18,-1
 153 230 l 1,19,20
 156 195 156 195 169.5 166 c 128,-1,21
 183 137 183 137 205 116 c 128,-1,22
 227 95 227 95 255.5 84 c 128,-1,23
 284 73 284 73 314 73 c 0,24,25
 337 73 337 73 359 78.5 c 128,-1,26
 381 84 381 84 399.5 94.5 c 128,-1,27
 418 105 418 105 432 120.5 c 128,-1,28
 446 136 446 136 455 155 c 1,29,-1
 551 127 l 1,30,31
 523 67 523 67 459 28.5 c 128,-1,32
 395 -10 395 -10 310 -10 c 0,0,1
473 308 m 1,33,34
 470 342 470 342 456 370.5 c 128,-1,35
 442 399 442 399 420.5 419 c 128,-1,36
 399 439 399 439 370.5 450.5 c 128,-1,37
 342 462 342 462 310 462 c 0,38,39
 279 462 279 462 250.5 450.5 c 128,-1,40
 222 439 222 439 200.5 419 c 128,-1,41
 179 399 179 399 166 370.5 c 128,-1,42
 153 342 153 342 150 308 c 1,43,-1
 473 308 l 1,33,34
EndSplineSet
EndChar

StartChar: f
Encoding: 102 102 77
Width: 365
Flags: W
LayerCount: 2
Fore
SplineSet
98 0 m 1,0,-1
 98 435 l 1,1,-1
 27 435 l 1,2,-1
 27 522 l 1,3,-1
 98 522 l 1,4,-1
 98 544 l 2,5,6
 98 643 98 643 144 700.5 c 128,-1,7
 190 758 190 758 269 758 c 0,8,9
 302 758 302 758 334 749 c 128,-1,10
 366 740 366 740 394 725 c 1,11,-1
 370 641 l 1,12,13
 354 650 354 650 333 656.5 c 128,-1,14
 312 663 312 663 293 663 c 0,15,16
 253 663 253 663 232 633 c 128,-1,17
 211 603 211 603 211 547 c 2,18,-1
 211 522 l 1,19,-1
 348 522 l 1,20,-1
 348 435 l 1,21,-1
 211 435 l 1,22,-1
 211 0 l 1,23,-1
 98 0 l 1,0,-1
EndSplineSet
EndChar

StartChar: g
Encoding: 103 103 78
Width: 644
Flags: W
LayerCount: 2
Fore
SplineSet
280 -5 m 256,0,1
 225 -5 225 -5 180 17 c 128,-1,2
 135 39 135 39 103 77 c 128,-1,3
 71 115 71 115 53 164 c 128,-1,4
 35 213 35 213 35 267 c 0,5,6
 35 325 35 325 53.5 375.5 c 128,-1,7
 72 426 72 426 104.5 463.5 c 128,-1,8
 137 501 137 501 182.5 523 c 128,-1,9
 228 545 228 545 284 545 c 0,10,11
 348 545 348 545 396.5 514 c 128,-1,12
 445 483 445 483 477 434 c 1,13,-1
 477 536 l 1,14,-1
 577 536 l 1,15,-1
 577 15 l 2,16,17
 577 -43 577 -43 555.5 -88 c 128,-1,18
 534 -133 534 -133 495.5 -164.5 c 128,-1,19
 457 -196 457 -196 404.5 -212 c 128,-1,20
 352 -228 352 -228 292 -228 c 0,21,22
 203 -228 203 -228 144 -198 c 128,-1,23
 85 -168 85 -168 45 -114 c 1,24,-1
 109 -54 l 1,25,26
 139 -97 139 -97 188 -119.5 c 128,-1,27
 237 -142 237 -142 292 -142 c 0,28,29
 327 -142 327 -142 358 -133 c 128,-1,30
 389 -124 389 -124 412.5 -104.5 c 128,-1,31
 436 -85 436 -85 450 -55.5 c 128,-1,32
 464 -26 464 -26 464 15 c 2,33,-1
 464 97 l 1,34,35
 435 48 435 48 385 21.5 c 128,-1,36
 335 -5 335 -5 280 -5 c 256,0,1
316 86 m 0,37,38
 342 86 342 86 365.5 94.5 c 128,-1,39
 389 103 389 103 409 118 c 128,-1,40
 429 133 429 133 443.5 152 c 128,-1,41
 458 171 458 171 464 193 c 1,42,-1
 464 333 l 1,43,44
 454 358 454 358 437.5 379 c 128,-1,45
 421 400 421 400 400 415.5 c 128,-1,46
 379 431 379 431 355.5 440 c 128,-1,47
 332 449 332 449 308 449 c 0,48,49
 271 449 271 449 242 433 c 128,-1,50
 213 417 213 417 192.5 391 c 128,-1,51
 172 365 172 365 161 332 c 128,-1,52
 150 299 150 299 150 264 c 0,53,54
 150 227 150 227 162.5 195 c 128,-1,55
 175 163 175 163 197.5 139 c 128,-1,56
 220 115 220 115 250.5 100.5 c 128,-1,57
 281 86 281 86 316 86 c 0,37,38
EndSplineSet
EndChar

StartChar: h
Encoding: 104 104 79
Width: 611
Flags: W
LayerCount: 2
Fore
SplineSet
548 0 m 1,0,-1
 435 0 l 1,1,-1
 435 300 l 2,2,3
 435 374 435 374 409 409 c 128,-1,4
 383 444 383 444 334 444 c 0,5,6
 310 444 310 444 286.5 435 c 128,-1,7
 263 426 263 426 242 409 c 128,-1,8
 221 392 221 392 204.5 369 c 128,-1,9
 188 346 188 346 180 318 c 1,10,-1
 180 0 l 1,11,-1
 68 0 l 1,12,-1
 68 748 l 1,13,-1
 180 748 l 1,14,-1
 180 428 l 1,15,16
 211 483 211 483 263.5 514 c 128,-1,17
 316 545 316 545 379 545 c 0,18,19
 429 545 429 545 461.5 527 c 128,-1,20
 494 509 494 509 513 479.5 c 128,-1,21
 532 450 532 450 540 410.5 c 128,-1,22
 548 371 548 371 548 327 c 2,23,-1
 548 0 l 1,0,-1
EndSplineSet
EndChar

StartChar: i
Encoding: 105 105 80
Width: 248
Flags: W
LayerCount: 2
Fore
SplineSet
68 0 m 1,0,-1
 68 536 l 1,1,-1
 180 536 l 1,2,-1
 180 0 l 1,3,-1
 68 0 l 1,0,-1
68 624 m 1,4,-1
 68 748 l 1,5,-1
 180 748 l 1,6,-1
 180 624 l 1,7,-1
 68 624 l 1,4,-1
EndSplineSet
EndChar

StartChar: j
Encoding: 106 106 81
Width: 254
Flags: W
LayerCount: 2
Fore
SplineSet
11 -196 m 0,0,1
 -26 -196 -26 -196 -58.5 -184.5 c 128,-1,2
 -91 -173 -91 -173 -118 -150 c 1,3,-1
 -68 -74 l 1,4,5
 -54 -86 -54 -86 -36.5 -91.5 c 128,-1,6
 -19 -97 -19 -97 -2 -97 c 0,7,8
 28 -97 28 -97 51 -75 c 128,-1,9
 74 -53 74 -53 74 -19 c 2,10,-1
 74 536 l 1,11,-1
 186 536 l 1,12,-1
 186 -11 l 2,13,14
 186 -52 186 -52 172.5 -86 c 128,-1,15
 159 -120 159 -120 135 -144.5 c 128,-1,16
 111 -169 111 -169 79 -182.5 c 128,-1,17
 47 -196 47 -196 11 -196 c 0,0,1
74 624 m 1,18,-1
 74 748 l 1,19,-1
 186 748 l 1,20,-1
 186 624 l 1,21,-1
 74 624 l 1,18,-1
EndSplineSet
EndChar

StartChar: k
Encoding: 107 107 82
Width: 561
Flags: W
LayerCount: 2
Fore
SplineSet
440 0 m 1,0,-1
 269 247 l 1,1,-1
 180 163 l 1,2,-1
 180 0 l 1,3,-1
 68 0 l 1,4,-1
 68 748 l 1,5,-1
 180 748 l 1,6,-1
 180 273 l 1,7,-1
 426 535 l 1,8,-1
 549 535 l 1,9,-1
 341 310 l 1,10,-1
 560 0 l 1,11,-1
 440 0 l 1,0,-1
EndSplineSet
EndChar

StartChar: l
Encoding: 108 108 83
Width: 308
Flags: W
LayerCount: 2
Fore
SplineSet
69 748 m 1,0,-1
 181 748 l 1,1,-1
 181 155 l 2,2,3
 181 125 181 125 196.5 108 c 128,-1,4
 212 91 212 91 240 91 c 0,5,6
 251 91 251 91 266 95 c 128,-1,7
 281 99 281 99 294 104 c 1,8,-1
 310 16 l 1,9,10
 286 5 286 5 252 -1.5 c 128,-1,11
 218 -8 218 -8 191 -8 c 0,12,13
 133 -8 133 -8 101 23.5 c 128,-1,14
 69 55 69 55 69 114 c 2,15,-1
 69 748 l 1,0,-1
EndSplineSet
EndChar

StartChar: m
Encoding: 109 109 84
Width: 949
Flags: W
LayerCount: 2
Fore
SplineSet
887 0 m 1,0,-1
 774 0 l 1,1,-1
 774 300 l 2,2,3
 774 375 774 375 749.5 409.5 c 128,-1,4
 725 444 725 444 678 444 c 0,5,6
 630 444 630 444 590.5 409 c 128,-1,7
 551 374 551 374 534 317 c 1,8,-1
 534 0 l 1,9,-1
 421 0 l 1,10,-1
 421 300 l 2,11,12
 421 376 421 376 396.5 410 c 128,-1,13
 372 444 372 444 326 444 c 0,14,15
 278 444 278 444 238 409.5 c 128,-1,16
 198 375 198 375 180 318 c 1,17,-1
 180 0 l 1,18,-1
 68 0 l 1,19,-1
 68 536 l 1,20,-1
 170 536 l 1,21,-1
 170 428 l 1,22,23
 202 484 202 484 253.5 514.5 c 128,-1,24
 305 545 305 545 372 545 c 0,25,26
 438 545 438 545 476.5 510 c 128,-1,27
 515 475 515 475 524 423 c 1,28,29
 558 482 558 482 609 513.5 c 128,-1,30
 660 545 660 545 726 545 c 0,31,32
 773 545 773 545 804.5 527 c 128,-1,33
 836 509 836 509 854 479.5 c 128,-1,34
 872 450 872 450 879.5 410.5 c 128,-1,35
 887 371 887 371 887 327 c 2,36,-1
 887 0 l 1,0,-1
EndSplineSet
EndChar

StartChar: n
Encoding: 110 110 85
Width: 611
Flags: W
LayerCount: 2
Fore
SplineSet
548 0 m 1,0,-1
 435 0 l 1,1,-1
 435 300 l 2,2,3
 435 376 435 376 411 410 c 128,-1,4
 387 444 387 444 340 444 c 0,5,6
 315 444 315 444 290.5 435 c 128,-1,7
 266 426 266 426 244.5 409 c 128,-1,8
 223 392 223 392 206 369 c 128,-1,9
 189 346 189 346 180 318 c 1,10,-1
 180 0 l 1,11,-1
 68 0 l 1,12,-1
 68 536 l 1,13,-1
 170 536 l 1,14,-1
 170 428 l 1,15,16
 201 482 201 482 259 513.5 c 128,-1,17
 317 545 317 545 388 545 c 0,18,19
 436 545 436 545 467 527.5 c 128,-1,20
 498 510 498 510 516 480 c 128,-1,21
 534 450 534 450 541 410.5 c 128,-1,22
 548 371 548 371 548 327 c 2,23,-1
 548 0 l 1,0,-1
EndSplineSet
EndChar

StartChar: o
Encoding: 111 111 86
Width: 616
Flags: W
LayerCount: 2
Fore
SplineSet
308 -10 m 256,0,1
 245 -10 245 -10 194 12.5 c 128,-1,2
 143 35 143 35 107.5 73 c 128,-1,3
 72 111 72 111 52.5 161.5 c 128,-1,4
 33 212 33 212 33 267 c 0,5,6
 33 323 33 323 52.5 373.5 c 128,-1,7
 72 424 72 424 108 462 c 128,-1,8
 144 500 144 500 195 522.5 c 128,-1,9
 246 545 246 545 308 545 c 0,10,11
 371 545 371 545 421.5 522.5 c 128,-1,12
 472 500 472 500 508.5 462 c 128,-1,13
 545 424 545 424 564.5 373.5 c 128,-1,14
 584 323 584 323 584 267 c 0,15,16
 584 212 584 212 564.5 161.5 c 128,-1,17
 545 111 545 111 508.5 73 c 128,-1,18
 472 35 472 35 421.5 12.5 c 128,-1,19
 371 -10 371 -10 308 -10 c 256,0,1
148 266 m 0,20,21
 148 227 148 227 160.5 194.5 c 128,-1,22
 173 162 173 162 194.5 138 c 128,-1,23
 216 114 216 114 245 100 c 128,-1,24
 274 86 274 86 308 86 c 256,25,26
 342 86 342 86 371 100 c 128,-1,27
 400 114 400 114 421.5 138.5 c 128,-1,28
 443 163 443 163 455.5 195.5 c 128,-1,29
 468 228 468 228 468 267 c 0,30,31
 468 305 468 305 455.5 338.5 c 128,-1,32
 443 372 443 372 421.5 396.5 c 128,-1,33
 400 421 400 421 371 435 c 128,-1,34
 342 449 342 449 308 449 c 0,35,36
 275 449 275 449 246 434.5 c 128,-1,37
 217 420 217 420 195.5 395.5 c 128,-1,38
 174 371 174 371 161 337.5 c 128,-1,39
 148 304 148 304 148 266 c 0,20,21
EndSplineSet
EndChar

StartChar: p
Encoding: 112 112 87
Width: 643
Flags: W
LayerCount: 2
Fore
SplineSet
372 -10 m 0,0,1
 307 -10 307 -10 258 20.5 c 128,-1,2
 209 51 209 51 180 100 c 1,3,-1
 180 -218 l 1,4,-1
 68 -218 l 1,5,-1
 68 536 l 1,6,-1
 167 536 l 1,7,-1
 167 439 l 1,8,9
 198 487 198 487 246.5 516 c 128,-1,10
 295 545 295 545 356 545 c 0,11,12
 412 545 412 545 458 522.5 c 128,-1,13
 504 500 504 500 537.5 462 c 128,-1,14
 571 424 571 424 590 374 c 128,-1,15
 609 324 609 324 609 268 c 0,16,17
 609 210 609 210 591.5 159.5 c 128,-1,18
 574 109 574 109 542.5 71.5 c 128,-1,19
 511 34 511 34 467.5 12 c 128,-1,20
 424 -10 424 -10 372 -10 c 0,0,1
335 86 m 0,21,22
 371 86 371 86 400 101.5 c 128,-1,23
 429 117 429 117 450 142.5 c 128,-1,24
 471 168 471 168 482.5 200.5 c 128,-1,25
 494 233 494 233 494 268 c 0,26,27
 494 305 494 305 481 338 c 128,-1,28
 468 371 468 371 446 395.5 c 128,-1,29
 424 420 424 420 393 434.5 c 128,-1,30
 362 449 362 449 327 449 c 0,31,32
 305 449 305 449 281.5 440.5 c 128,-1,33
 258 432 258 432 237.5 417.5 c 128,-1,34
 217 403 217 403 201.5 384.5 c 128,-1,35
 186 366 186 366 180 343 c 1,36,-1
 180 203 l 1,37,38
 190 178 190 178 206.5 156.5 c 128,-1,39
 223 135 223 135 243 119.5 c 128,-1,40
 263 104 263 104 286.5 95 c 128,-1,41
 310 86 310 86 335 86 c 0,21,22
EndSplineSet
EndChar

StartChar: q
Encoding: 113 113 88
Width: 643
Flags: W
LayerCount: 2
Fore
SplineSet
271 -10 m 0,0,1
 219 -10 219 -10 175.5 12.5 c 128,-1,2
 132 35 132 35 101 73 c 128,-1,3
 70 111 70 111 52.5 161.5 c 128,-1,4
 35 212 35 212 35 268 c 0,5,6
 35 326 35 326 54 376 c 128,-1,7
 73 426 73 426 106.5 464 c 128,-1,8
 140 502 140 502 186 523.5 c 128,-1,9
 232 545 232 545 287 545 c 0,10,11
 348 545 348 545 397 515 c 128,-1,12
 446 485 446 485 476 438 c 1,13,-1
 476 536 l 1,14,-1
 575 536 l 1,15,-1
 575 -80 l 2,16,17
 575 -99 575 -99 583 -107 c 128,-1,18
 591 -115 591 -115 608 -117 c 1,19,-1
 608 -213 l 1,20,21
 593 -215 593 -215 577 -216 c 128,-1,22
 561 -217 561 -217 548 -217 c 0,23,24
 513 -217 513 -217 488 -193.5 c 128,-1,25
 463 -170 463 -170 463 -135 c 2,26,-1
 463 100 l 1,27,28
 430 45 430 45 381.5 17.5 c 128,-1,29
 333 -10 333 -10 271 -10 c 0,0,1
312 86 m 0,30,31
 364 86 364 86 401 115 c 128,-1,32
 438 144 438 144 463 188 c 1,33,-1
 463 330 l 1,34,35
 458 354 458 354 442.5 375.5 c 128,-1,36
 427 397 427 397 406 413 c 128,-1,37
 385 429 385 429 360.5 439 c 128,-1,38
 336 449 336 449 312 449 c 0,39,40
 276 449 276 449 246.5 433.5 c 128,-1,41
 217 418 217 418 195.5 392.5 c 128,-1,42
 174 367 174 367 162 333.5 c 128,-1,43
 150 300 150 300 150 265 c 0,44,45
 150 228 150 228 162 195.5 c 128,-1,46
 174 163 174 163 195.5 139 c 128,-1,47
 217 115 217 115 246.5 100.5 c 128,-1,48
 276 86 276 86 312 86 c 0,30,31
EndSplineSet
EndChar

StartChar: r
Encoding: 114 114 89
Width: 383
Flags: W
LayerCount: 2
Fore
SplineSet
369 438 m 1,0,1
 303 436 303 436 252.5 408 c 128,-1,2
 202 380 202 380 180 328 c 1,3,-1
 180 0 l 1,4,-1
 68 0 l 1,5,-1
 68 536 l 1,6,-1
 172 536 l 1,7,-1
 172 416 l 1,8,9
 200 471 200 471 244.5 504.5 c 128,-1,10
 289 538 289 538 340 541 c 0,11,12
 350 541 350 541 357 541 c 128,-1,13
 364 541 364 541 369 540 c 1,14,-1
 369 438 l 1,0,1
EndSplineSet
EndChar

StartChar: s
Encoding: 115 115 90
Width: 508
Flags: W
LayerCount: 2
Fore
SplineSet
262 -10 m 0,0,1
 198 -10 198 -10 134 11 c 128,-1,2
 70 32 70 32 24 71 c 1,3,-1
 69 142 l 1,4,5
 117 108 117 108 164 90 c 128,-1,6
 211 72 211 72 260 72 c 0,7,8
 310 72 310 72 339.5 91.5 c 128,-1,9
 369 111 369 111 369 146 c 0,10,11
 369 180 369 180 336 195.5 c 128,-1,12
 303 211 303 211 233 229 c 0,13,14
 183 243 183 243 147.5 255 c 128,-1,15
 112 267 112 267 89.5 283.5 c 128,-1,16
 67 300 67 300 56.5 321.5 c 128,-1,17
 46 343 46 343 46 374 c 0,18,19
 46 415 46 415 62 446.5 c 128,-1,20
 78 478 78 478 106 500 c 128,-1,21
 134 522 134 522 172 533.5 c 128,-1,22
 210 545 210 545 254 545 c 0,23,24
 314 545 314 545 366.5 526.5 c 128,-1,25
 419 508 419 508 460 473 c 1,26,-1
 412 406 l 1,27,28
 337 465 337 465 253 465 c 0,29,30
 210 465 210 465 181 447 c 128,-1,31
 152 429 152 429 152 390 c 0,32,33
 152 374 152 374 158 362.5 c 128,-1,34
 164 351 164 351 177.5 343 c 128,-1,35
 191 335 191 335 213.5 328.5 c 128,-1,36
 236 322 236 322 268 313 c 0,37,38
 323 300 323 300 362 286.5 c 128,-1,39
 401 273 401 273 427 255.5 c 128,-1,40
 453 238 453 238 465 213.5 c 128,-1,41
 477 189 477 189 477 156 c 0,42,43
 477 79 477 79 419 34.5 c 128,-1,44
 361 -10 361 -10 262 -10 c 0,0,1
EndSplineSet
EndChar

StartChar: t
Encoding: 116 116 91
Width: 376
Flags: W
LayerCount: 2
Fore
SplineSet
366 28 m 1,0,1
 344 17 344 17 306 4.5 c 128,-1,2
 268 -8 268 -8 225 -8 c 0,3,4
 199 -8 199 -8 175.5 -1 c 128,-1,5
 152 6 152 6 134 20.5 c 128,-1,6
 116 35 116 35 105.5 58 c 128,-1,7
 95 81 95 81 95 114 c 2,8,-1
 95 449 l 1,9,-1
 25 449 l 1,10,-1
 25 536 l 1,11,-1
 95 536 l 1,12,-1
 95 712 l 1,13,-1
 208 712 l 1,14,-1
 208 536 l 1,15,-1
 325 536 l 1,16,-1
 325 449 l 1,17,-1
 208 449 l 1,18,-1
 208 150 l 2,19,20
 210 121 210 121 226 108 c 128,-1,21
 242 95 242 95 265 95 c 0,22,23
 289 95 289 95 310.5 103.5 c 128,-1,24
 332 112 332 112 342 117 c 1,25,-1
 366 28 l 1,0,1
EndSplineSet
EndChar

StartChar: u
Encoding: 117 117 92
Width: 624
Flags: W
LayerCount: 2
Fore
SplineSet
232 -10 m 0,0,1
 148 -10 148 -10 105 44.5 c 128,-1,2
 62 99 62 99 62 208 c 2,3,-1
 62 536 l 1,4,-1
 175 536 l 1,5,-1
 175 230 l 2,6,7
 175 86 175 86 278 86 c 0,8,9
 326 86 326 86 369 115.5 c 128,-1,10
 412 145 412 145 435 202 c 1,11,-1
 435 536 l 1,12,-1
 548 536 l 1,13,-1
 548 133 l 2,14,15
 548 114 548 114 554.5 105.5 c 128,-1,16
 561 97 561 97 579 96 c 1,17,-1
 579 0 l 1,18,19
 561 -3 561 -3 550 -4 c 128,-1,20
 539 -5 539 -5 528 -5 c 0,21,22
 498 -5 498 -5 476.5 12 c 128,-1,23
 455 29 455 29 454 55 c 2,24,-1
 452 109 l 1,25,26
 416 50 416 50 358.5 20 c 128,-1,27
 301 -10 301 -10 232 -10 c 0,0,1
EndSplineSet
EndChar

StartChar: v
Encoding: 118 118 93
Width: 556
Flags: W
LayerCount: 2
Fore
SplineSet
218 0 m 1,0,-1
 13 536 l 1,1,-1
 129 536 l 1,2,-1
 283 95 l 1,3,-1
 437 536 l 1,4,-1
 544 536 l 1,5,-1
 339 0 l 1,6,-1
 218 0 l 1,0,-1
EndSplineSet
EndChar

StartChar: w
Encoding: 119 119 94
Width: 850
Flags: W
LayerCount: 2
Fore
SplineSet
735 536 m 1,0,-1
 843 536 l 1,1,-1
 617 0 l 1,2,-1
 524 0 l 1,3,-1
 425 249 l 1,4,-1
 326 0 l 1,5,-1
 232 0 l 1,6,-1
 6 536 l 1,7,-1
 114 536 l 1,8,-1
 287 109 l 1,9,-1
 365 307 l 1,10,-1
 271 535 l 1,11,-1
 364 535 l 1,12,-1
 425 367 l 1,13,-1
 485 535 l 1,14,-1
 578 535 l 1,15,-1
 485 307 l 1,16,-1
 563 109 l 1,17,-1
 735 536 l 1,0,-1
EndSplineSet
EndChar

StartChar: x
Encoding: 120 120 95
Width: 535
Flags: W
LayerCount: 2
Fore
SplineSet
127 536 m 1,0,-1
 258 352 l 1,1,-1
 267 335 l 1,2,-1
 276 352 l 1,3,-1
 407 536 l 1,4,-1
 524 536 l 1,5,-1
 329 267 l 1,6,-1
 526 0 l 1,7,-1
 409 0 l 1,8,-1
 276 182 l 1,9,-1
 267 199 l 1,10,-1
 258 182 l 1,11,-1
 126 0 l 1,12,-1
 8 0 l 1,13,-1
 206 267 l 1,14,-1
 10 536 l 1,15,-1
 127 536 l 1,0,-1
EndSplineSet
EndChar

StartChar: y
Encoding: 121 121 96
Width: 560
Flags: W
LayerCount: 2
Fore
SplineSet
86 -126 m 1,0,1
 101 -129 101 -129 116 -131 c 128,-1,2
 131 -133 131 -133 140 -133 c 0,3,4
 154 -133 154 -133 163.5 -127.5 c 128,-1,5
 173 -122 173 -122 183.5 -107.5 c 128,-1,6
 194 -93 194 -93 204.5 -67 c 128,-1,7
 215 -41 215 -41 229 0 c 1,8,-1
 9 536 l 1,9,-1
 125 536 l 1,10,-1
 291 99 l 1,11,-1
 438 536 l 1,12,-1
 545 536 l 1,13,-1
 302 -124 l 2,14,15
 286 -170 286 -170 245.5 -201 c 128,-1,16
 205 -232 205 -232 141 -232 c 0,17,18
 129 -232 129 -232 115.5 -230.5 c 128,-1,19
 102 -229 102 -229 86 -224 c 1,20,-1
 86 -126 l 1,0,1
EndSplineSet
EndChar

StartChar: z
Encoding: 122 122 97
Width: 505
Flags: W
LayerCount: 2
Fore
SplineSet
29 71 m 1,0,-1
 350 456 l 1,1,-1
 40 456 l 1,2,-1
 40 536 l 1,3,-1
 469 536 l 1,4,-1
 469 465 l 1,5,-1
 150 80 l 1,6,-1
 472 80 l 1,7,-1
 472 0 l 1,8,-1
 29 0 l 1,9,-1
 29 71 l 1,0,-1
EndSplineSet
EndChar

StartChar: braceleft
Encoding: 123 123 98
Width: 300
Flags: W
LayerCount: 2
Fore
SplineSet
195 667 m 1,0,-1
 195 437 l 2,1,2
 195 420 195 420 186.5 401.5 c 128,-1,3
 178 383 178 383 162 369 c 1,4,5
 177 354 177 354 186 335.5 c 128,-1,6
 195 317 195 317 195 300 c 2,7,-1
 195 59 l 1,8,-1
 251 59 l 1,9,-1
 251 -32 l 1,10,-1
 116 -32 l 2,11,12
 109 -32 109 -32 100.5 -25 c 128,-1,13
 92 -18 92 -18 92 -1 c 2,14,-1
 92 265 l 2,15,16
 92 290 92 290 79 308 c 128,-1,17
 66 326 66 326 45 330 c 1,18,-1
 45 410 l 1,19,20
 55 410 55 410 64 416 c 128,-1,21
 73 422 73 422 79 431.5 c 128,-1,22
 85 441 85 441 88.5 452 c 128,-1,23
 92 463 92 463 92 472 c 2,24,-1
 92 727 l 2,25,26
 92 746 92 746 101.5 752 c 128,-1,27
 111 758 111 758 116 758 c 2,28,-1
 251 758 l 1,29,-1
 251 667 l 1,30,-1
 195 667 l 1,0,-1
EndSplineSet
EndChar

StartChar: bar
Encoding: 124 124 99
Width: 262
Flags: W
LayerCount: 2
Fore
SplineSet
83 -133 m 1,0,-1
 83 794 l 1,1,-1
 179 794 l 1,2,-1
 179 -133 l 1,3,-1
 83 -133 l 1,0,-1
EndSplineSet
EndChar

StartChar: braceright
Encoding: 125 125 100
Width: 300
Flags: W
LayerCount: 2
Fore
SplineSet
50 667 m 1,0,-1
 50 758 l 1,1,-1
 184 758 l 2,2,3
 189 758 189 758 198.5 752 c 128,-1,4
 208 746 208 746 208 727 c 2,5,-1
 208 472 l 2,6,7
 208 463 208 463 211 452 c 128,-1,8
 214 441 214 441 220 431.5 c 128,-1,9
 226 422 226 422 235 416 c 128,-1,10
 244 410 244 410 255 410 c 1,11,-1
 255 330 l 1,12,13
 234 326 234 326 221 308 c 128,-1,14
 208 290 208 290 208 265 c 2,15,-1
 208 -1 l 2,16,17
 208 -18 208 -18 199.5 -25 c 128,-1,18
 191 -32 191 -32 184 -32 c 2,19,-1
 50 -32 l 1,20,-1
 50 59 l 1,21,-1
 106 59 l 1,22,-1
 106 300 l 2,23,24
 106 317 106 317 114 335.5 c 128,-1,25
 122 354 122 354 138 369 c 1,26,27
 122 383 122 383 114 401.5 c 128,-1,28
 106 420 106 420 106 437 c 2,29,-1
 106 667 l 1,30,-1
 50 667 l 1,0,-1
EndSplineSet
EndChar

StartChar: asciitilde
Encoding: 126 126 101
Width: 562
Flags: W
LayerCount: 2
Fore
SplineSet
62 238 m 1,0,1
 62 245 62 245 69 265.5 c 128,-1,2
 76 286 76 286 91 307.5 c 128,-1,3
 106 329 106 329 131 345.5 c 128,-1,4
 156 362 156 362 193 362 c 0,5,6
 218 362 218 362 240.5 353.5 c 128,-1,7
 263 345 263 345 283.5 334.5 c 128,-1,8
 304 324 304 324 324 315 c 128,-1,9
 344 306 344 306 367 306 c 0,10,11
 387 306 387 306 401 314 c 128,-1,12
 415 322 415 322 423 331 c 128,-1,13
 431 340 431 340 434 348 c 128,-1,14
 437 356 437 356 437 358 c 2,15,-1
 502 358 l 1,16,17
 502 354 502 354 495 334.5 c 128,-1,18
 488 315 488 315 472.5 293.5 c 128,-1,19
 457 272 457 272 430.5 255 c 128,-1,20
 404 238 404 238 366 238 c 0,21,22
 339 238 339 238 316 246.5 c 128,-1,23
 293 255 293 255 272.5 265.5 c 128,-1,24
 252 276 252 276 232 285 c 128,-1,25
 212 294 212 294 191 294 c 0,26,27
 171 294 171 294 158.5 285 c 128,-1,28
 146 276 146 276 138.5 266 c 128,-1,29
 131 256 131 256 128.5 247.5 c 128,-1,30
 126 239 126 239 126 238 c 2,31,-1
 62 238 l 1,32,-1
 62 238 l 1,0,1
EndSplineSet
EndChar

StartChar: exclamdown
Encoding: 161 161 103
Width: 289
Flags: W
LayerCount: 2
Fore
SplineSet
201 471 m 1,0,-1
 201 -4 l 1,1,-1
 88 -4 l 1,2,-1
 88 471 l 1,3,-1
 201 471 l 1,0,-1
201 730 m 1,4,-1
 201 590 l 1,5,-1
 88 590 l 1,6,-1
 88 730 l 1,7,-1
 201 730 l 1,4,-1
EndSplineSet
EndChar

StartChar: cent
Encoding: 162 162 104
Width: 594
Flags: W
LayerCount: 2
Fore
SplineSet
283 -123 m 1,0,-1
 283 -9 l 1,1,2
 229 -5 229 -5 185 20 c 128,-1,3
 141 45 141 45 109.5 83 c 128,-1,4
 78 121 78 121 60 168 c 128,-1,5
 42 215 42 215 42 264 c 0,6,7
 42 316 42 316 58.5 363.5 c 128,-1,8
 75 411 75 411 105.5 448.5 c 128,-1,9
 136 486 136 486 180.5 511.5 c 128,-1,10
 225 537 225 537 283 544 c 1,11,-1
 283 660 l 1,12,-1
 336 660 l 1,13,-1
 336 544 l 1,14,15
 410 542 410 542 465 507.5 c 128,-1,16
 520 473 520 473 552 412 c 1,17,-1
 443 377 l 1,18,19
 425 409 425 409 397 425.5 c 128,-1,20
 369 442 369 442 336 444 c 1,21,-1
 336 89 l 1,22,23
 351 91 351 91 368.5 96.5 c 128,-1,24
 386 102 386 102 402 111.5 c 128,-1,25
 418 121 418 121 429.5 133 c 128,-1,26
 441 145 441 145 446 160 c 1,27,-1
 556 127 l 1,28,29
 542 93 542 93 515.5 67 c 128,-1,30
 489 41 489 41 458 24 c 128,-1,31
 427 7 427 7 394.5 -1.5 c 128,-1,32
 362 -10 362 -10 336 -10 c 1,33,-1
 336 -123 l 1,34,-1
 283 -123 l 1,0,-1
158 264 m 0,35,36
 158 234 158 234 167 206 c 128,-1,37
 176 178 176 178 192.5 155.5 c 128,-1,38
 209 133 209 133 232 116.5 c 128,-1,39
 255 100 255 100 283 94 c 1,40,-1
 283 440 l 1,41,42
 253 435 253 435 230 418.5 c 128,-1,43
 207 402 207 402 190.5 378 c 128,-1,44
 174 354 174 354 166 324.5 c 128,-1,45
 158 295 158 295 158 264 c 0,35,36
EndSplineSet
EndChar

StartChar: sterling
Encoding: 163 163 105
Width: 541
Flags: W
LayerCount: 2
Fore
SplineSet
56 387 m 1,0,-1
 138 387 l 1,1,2
 118 428 118 428 98 468 c 128,-1,3
 78 508 78 508 78 553 c 0,4,5
 78 590 78 590 94 622.5 c 128,-1,6
 110 655 110 655 137.5 680 c 128,-1,7
 165 705 165 705 202 718.5 c 128,-1,8
 239 732 239 732 281 732 c 0,9,10
 340 732 340 732 393 703.5 c 128,-1,11
 446 675 446 675 482 625 c 1,12,-1
 422 555 l 1,13,14
 397 594 397 594 357 617 c 128,-1,15
 317 640 317 640 279 640 c 0,16,17
 236 640 236 640 208 612.5 c 128,-1,18
 180 585 180 585 180 543 c 0,19,20
 180 523 180 523 186.5 504 c 128,-1,21
 193 485 193 485 202 466 c 128,-1,22
 211 447 211 447 221.5 428 c 128,-1,23
 232 409 232 409 242 387 c 1,24,-1
 428 387 l 1,25,-1
 428 301 l 1,26,-1
 265 301 l 1,27,28
 266 295 266 295 266.5 289.5 c 128,-1,29
 267 284 267 284 267 278 c 0,30,31
 267 229 267 229 245.5 185.5 c 128,-1,32
 224 142 224 142 173 88 c 1,33,34
 194 93 194 93 212.5 96 c 128,-1,35
 231 99 231 99 250 99 c 0,36,37
 289 99 289 99 322 90 c 128,-1,38
 355 81 355 81 391 81 c 0,39,40
 411 81 411 81 430 85.5 c 128,-1,41
 449 90 449 90 473 98 c 1,42,-1
 501 14 l 1,43,44
 475 0 475 0 445 -7.5 c 128,-1,45
 415 -15 415 -15 385 -15 c 0,46,47
 361 -15 361 -15 339 -11 c 128,-1,48
 317 -7 317 -7 294.5 -1.5 c 128,-1,49
 272 4 272 4 249.5 8 c 128,-1,50
 227 12 227 12 203 12 c 0,51,52
 176 12 176 12 143 6.5 c 128,-1,53
 110 1 110 1 80 -8 c 1,54,-1
 53 73 l 1,55,56
 115 127 115 127 142 175 c 128,-1,57
 169 223 169 223 169 272 c 0,58,59
 169 280 169 280 168.5 287 c 128,-1,60
 168 294 168 294 167 301 c 1,61,-1
 56 301 l 1,62,-1
 56 387 l 1,0,-1
EndSplineSet
EndChar

StartChar: currency
Encoding: 164 164 106
Width: 558
Flags: W
LayerCount: 2
Fore
SplineSet
169 503 m 1,0,1
 191 518 191 518 219 527 c 128,-1,2
 247 536 247 536 280 536 c 0,3,4
 311 536 311 536 338.5 527 c 128,-1,5
 366 518 366 518 389 503 c 1,6,-1
 461 575 l 1,7,-1
 510 527 l 1,8,-1
 437 456 l 1,9,10
 471 408 471 408 471 345 c 0,11,12
 471 284 471 284 436 234 c 1,13,-1
 510 163 l 1,14,-1
 466 120 l 1,15,-1
 391 189 l 1,16,17
 369 174 369 174 340.5 165 c 128,-1,18
 312 156 312 156 280 156 c 0,19,20
 246 156 246 156 217.5 165 c 128,-1,21
 189 174 189 174 166 189 c 1,22,-1
 91 120 l 1,23,-1
 48 163 l 1,24,-1
 121 236 l 1,25,26
 104 259 104 259 95.5 287 c 128,-1,27
 87 315 87 315 87 345 c 0,28,29
 87 408 87 408 120 455 c 1,30,-1
 48 527 l 1,31,-1
 96 575 l 1,32,-1
 169 503 l 1,0,1
175 344 m 0,33,34
 175 319 175 319 183 298.5 c 128,-1,35
 191 278 191 278 205 262.5 c 128,-1,36
 219 247 219 247 238.5 238 c 128,-1,37
 258 229 258 229 280 229 c 0,38,39
 324 229 324 229 354 262.5 c 128,-1,40
 384 296 384 296 384 346 c 256,41,42
 384 396 384 396 354 428.5 c 128,-1,43
 324 461 324 461 280 461 c 256,44,45
 236 461 236 461 205.5 428 c 128,-1,46
 175 395 175 395 175 344 c 0,33,34
EndSplineSet
EndChar

StartChar: yen
Encoding: 165 165 107
Width: 716
Flags: W
LayerCount: 2
Fore
SplineSet
489 398 m 1,0,-1
 568 398 l 1,1,-1
 568 324 l 1,2,-1
 450 324 l 1,3,-1
 414 260 l 1,4,-1
 414 230 l 1,5,-1
 569 230 l 1,6,-1
 569 156 l 1,7,-1
 414 156 l 1,8,-1
 414 0 l 1,9,-1
 298 0 l 1,10,-1
 298 156 l 1,11,-1
 144 156 l 1,12,-1
 144 230 l 1,13,-1
 298 230 l 1,14,-1
 298 262 l 1,15,-1
 264 324 l 1,16,-1
 144 324 l 1,17,-1
 144 398 l 1,18,-1
 225 398 l 1,19,-1
 30 727 l 1,20,-1
 156 727 l 1,21,-1
 356 362 l 1,22,-1
 559 727 l 1,23,-1
 685 727 l 1,24,-1
 489 398 l 1,0,-1
EndSplineSet
EndChar

StartChar: brokenbar
Encoding: 166 166 108
Width: 264
Flags: W
LayerCount: 2
Fore
SplineSet
180 275 m 1,0,-1
 180 -133 l 1,1,-1
 84 -133 l 1,2,-1
 84 275 l 1,3,-1
 180 275 l 1,0,-1
180 794 m 1,4,-1
 180 385 l 1,5,-1
 84 385 l 1,6,-1
 84 794 l 1,7,-1
 180 794 l 1,4,-1
EndSplineSet
EndChar

StartChar: section
Encoding: 167 167 109
Width: 537
Flags: W
LayerCount: 2
Fore
SplineSet
454 213 m 1,0,1
 472 199 472 199 483 172.5 c 128,-1,2
 494 146 494 146 494 108 c 0,3,4
 494 55 494 55 472.5 17.5 c 128,-1,5
 451 -20 451 -20 418.5 -44 c 128,-1,6
 386 -68 386 -68 347 -79 c 128,-1,7
 308 -90 308 -90 273 -90 c 0,8,9
 234 -90 234 -90 201 -80 c 128,-1,10
 168 -70 168 -70 141 -54.5 c 128,-1,11
 114 -39 114 -39 93 -21.5 c 128,-1,12
 72 -4 72 -4 58 11 c 1,13,-1
 131 81 l 1,14,15
 164 47 164 47 197.5 32 c 128,-1,16
 231 17 231 17 268 17 c 0,17,18
 289 17 289 17 308.5 23 c 128,-1,19
 328 29 328 29 343 39.5 c 128,-1,20
 358 50 358 50 367.5 66.5 c 128,-1,21
 377 83 377 83 377 103 c 0,22,23
 377 125 377 125 367.5 138.5 c 128,-1,24
 358 152 358 152 344 159 c 128,-1,25
 330 166 330 166 312.5 169 c 128,-1,26
 295 172 295 172 278 173 c 0,27,28
 181 179 181 179 125.5 224.5 c 128,-1,29
 70 270 70 270 70 349 c 0,30,31
 70 379 70 379 77 398.5 c 128,-1,32
 84 418 84 418 92 429 c 1,33,34
 75 443 75 443 60.5 473.5 c 128,-1,35
 46 504 46 504 46 545 c 0,36,37
 46 584 46 584 63 618 c 128,-1,38
 80 652 80 652 109 677 c 128,-1,39
 138 702 138 702 176 717 c 128,-1,40
 214 732 214 732 256 732 c 0,41,42
 299 732 299 732 332 721 c 128,-1,43
 365 710 365 710 390 693 c 128,-1,44
 415 676 415 676 433 655.5 c 128,-1,45
 451 635 451 635 464 616 c 1,46,-1
 377 575 l 1,47,48
 360 604 360 604 329.5 618 c 128,-1,49
 299 632 299 632 263 632 c 0,50,51
 243 632 243 632 224 626 c 128,-1,52
 205 620 205 620 190.5 609 c 128,-1,53
 176 598 176 598 168 581.5 c 128,-1,54
 160 565 160 565 160 546 c 0,55,56
 160 501 160 501 189.5 485 c 128,-1,57
 219 469 219 469 263 468 c 0,58,59
 301 467 301 467 339.5 458.5 c 128,-1,60
 378 450 378 450 408.5 430 c 128,-1,61
 439 410 439 410 458.5 378 c 128,-1,62
 478 346 478 346 478 300 c 0,63,64
 478 270 478 270 470.5 247 c 128,-1,65
 463 224 463 224 454 213 c 1,0,1
179 335 m 0,66,67
 179 298 179 298 198 282 c 128,-1,68
 217 266 217 266 244 259.5 c 128,-1,69
 271 253 271 253 300 251 c 128,-1,70
 329 249 329 249 348 242 c 1,71,72
 359 250 359 250 365.5 266 c 128,-1,73
 372 282 372 282 372 298 c 0,74,75
 372 321 372 321 361.5 335.5 c 128,-1,76
 351 350 351 350 336 359.5 c 128,-1,77
 321 369 321 369 302.5 373 c 128,-1,78
 284 377 284 377 267 377 c 0,79,80
 248 377 248 377 229.5 380 c 128,-1,81
 211 383 211 383 200 388 c 1,82,83
 190 380 190 380 184.5 365 c 128,-1,84
 179 350 179 350 179 335 c 0,66,67
EndSplineSet
EndChar

StartChar: dieresis
Encoding: 168 168 110
Width: 421
Flags: W
LayerCount: 2
Fore
SplineSet
73 630 m 1,0,-1
 73 742 l 1,1,-1
 167 742 l 1,2,-1
 167 630 l 1,3,-1
 73 630 l 1,0,-1
254 630 m 1,4,-1
 254 742 l 1,5,-1
 348 742 l 1,6,-1
 348 630 l 1,7,-1
 254 630 l 1,4,-1
EndSplineSet
EndChar

StartChar: copyright
Encoding: 169 169 111
Width: 858
Flags: W
LayerCount: 2
Fore
SplineSet
427 -7 m 0,0,1
 345 -7 345 -7 275 21 c 128,-1,2
 205 49 205 49 154 98.5 c 128,-1,3
 103 148 103 148 74.5 216 c 128,-1,4
 46 284 46 284 46 364 c 0,5,6
 46 442 46 442 74.5 510 c 128,-1,7
 103 578 103 578 154 627 c 128,-1,8
 205 676 205 676 275 704 c 128,-1,9
 345 732 345 732 427 732 c 0,10,11
 510 732 510 732 580.5 704 c 128,-1,12
 651 676 651 676 703 627 c 128,-1,13
 755 578 755 578 784 510 c 128,-1,14
 813 442 813 442 813 364 c 0,15,16
 813 284 813 284 784 216 c 128,-1,17
 755 148 755 148 703 98.5 c 128,-1,18
 651 49 651 49 580.5 21 c 128,-1,19
 510 -7 510 -7 427 -7 c 0,0,1
427 38 m 0,20,21
 498 38 498 38 560 61.5 c 128,-1,22
 622 85 622 85 667 128 c 128,-1,23
 712 171 712 171 738 230.5 c 128,-1,24
 764 290 764 290 764 361 c 0,25,26
 764 431 764 431 738.5 490.5 c 128,-1,27
 713 550 713 550 668 594 c 128,-1,28
 623 638 623 638 561.5 662.5 c 128,-1,29
 500 687 500 687 427 687 c 0,30,31
 355 687 355 687 294 662.5 c 128,-1,32
 233 638 233 638 188.5 594 c 128,-1,33
 144 550 144 550 119 490.5 c 128,-1,34
 94 431 94 431 94 362 c 0,35,36
 94 294 94 294 119 234.5 c 128,-1,37
 144 175 144 175 188.5 131.5 c 128,-1,38
 233 88 233 88 294 63 c 128,-1,39
 355 38 355 38 427 38 c 0,20,21
435 122 m 0,40,41
 382 122 382 122 336 140 c 128,-1,42
 290 158 290 158 256 190 c 128,-1,43
 222 222 222 222 203 266.5 c 128,-1,44
 184 311 184 311 184 364 c 0,45,46
 184 409 184 409 199.5 452.5 c 128,-1,47
 215 496 215 496 245.5 530 c 128,-1,48
 276 564 276 564 323 585 c 128,-1,49
 370 606 370 606 431 606 c 0,50,51
 508 606 508 606 564.5 573 c 128,-1,52
 621 540 621 540 647 481 c 1,53,-1
 539 446 l 1,54,55
 529 465 529 465 516.5 477 c 128,-1,56
 504 489 504 489 489.5 496 c 128,-1,57
 475 503 475 503 459.5 506 c 128,-1,58
 444 509 444 509 431 509 c 0,59,60
 399 509 399 509 374.5 496.5 c 128,-1,61
 350 484 350 484 333 464 c 128,-1,62
 316 444 316 444 307.5 417.5 c 128,-1,63
 299 391 299 391 299 364 c 0,64,65
 299 329 299 329 311 301.5 c 128,-1,66
 323 274 323 274 342 256 c 128,-1,67
 361 238 361 238 385.5 228 c 128,-1,68
 410 218 410 218 433 218 c 0,69,70
 465 218 465 218 496.5 235 c 128,-1,71
 528 252 528 252 543 283 c 1,72,-1
 652 250 l 1,73,74
 642 226 642 226 622.5 203 c 128,-1,75
 603 180 603 180 575.5 162 c 128,-1,76
 548 144 548 144 512.5 133 c 128,-1,77
 477 122 477 122 435 122 c 0,40,41
EndSplineSet
EndChar

StartChar: ordfeminine
Encoding: 170 170 112
Width: 452
Flags: W
LayerCount: 2
Fore
SplineSet
167 350 m 0,0,1
 140 350 140 350 118 359 c 128,-1,2
 96 368 96 368 79 383 c 128,-1,3
 62 398 62 398 53 419 c 128,-1,4
 44 440 44 440 44 465 c 256,5,6
 44 490 44 490 55.5 512.5 c 128,-1,7
 67 535 67 535 87.5 550 c 128,-1,8
 108 565 108 565 135.5 574 c 128,-1,9
 163 583 163 583 197 583 c 0,10,11
 250 583 250 583 289 566 c 1,12,-1
 289 589 l 2,13,14
 289 627 289 627 268 648 c 128,-1,15
 247 669 247 669 205 669 c 0,16,17
 176 669 176 669 148.5 658.5 c 128,-1,18
 121 648 121 648 90 628 c 1,19,-1
 63 682 l 1,20,21
 135 729 135 729 213 729 c 0,22,23
 290 729 290 729 332.5 690.5 c 128,-1,24
 375 652 375 652 375 579 c 2,25,-1
 375 458 l 2,26,27
 375 432 375 432 398 431 c 1,28,-1
 398 356 l 1,29,30
 378 352 378 352 360 352 c 0,31,32
 335 352 335 352 321 363.5 c 128,-1,33
 307 375 307 375 304 395 c 2,34,-1
 303 417 l 1,35,36
 278 384 278 384 242.5 367 c 128,-1,37
 207 350 207 350 167 350 c 0,0,1
191 414 m 0,38,39
 217 414 217 414 239.5 423 c 128,-1,40
 262 432 262 432 275 447 c 0,41,42
 289 458 289 458 289 474 c 2,43,-1
 289 518 l 1,44,45
 271 526 271 526 251 529 c 128,-1,46
 231 532 231 532 212 532 c 0,47,48
 173 532 173 532 149 515.5 c 128,-1,49
 125 499 125 499 125 472 c 0,50,51
 125 447 125 447 144 430.5 c 128,-1,52
 163 414 163 414 191 414 c 0,38,39
EndSplineSet
EndChar

StartChar: guillemotleft
Encoding: 171 171 113
Width: 636
Flags: W
LayerCount: 2
Fore
SplineSet
39 291 m 1,0,-1
 303 480 l 1,1,-1
 303 387 l 1,2,-1
 129 265 l 1,3,-1
 303 147 l 1,4,-1
 303 55 l 1,5,-1
 39 234 l 1,6,-1
 39 291 l 1,0,-1
310 291 m 1,7,-1
 575 480 l 1,8,-1
 575 387 l 1,9,-1
 400 265 l 1,10,-1
 575 147 l 1,11,-1
 575 55 l 1,12,-1
 310 234 l 1,13,-1
 310 291 l 1,7,-1
EndSplineSet
EndChar

StartChar: logicalnot
Encoding: 172 172 114
Width: 615
Flags: W
LayerCount: 2
Fore
SplineSet
546 396 m 1,0,-1
 546 116 l 1,1,-1
 450 116 l 1,2,-1
 450 295 l 1,3,-1
 65 295 l 1,4,-1
 65 396 l 1,5,-1
 546 396 l 1,0,-1
EndSplineSet
EndChar

StartChar: uni00AD
Encoding: 173 173 115
Width: 606
Flags: W
LayerCount: 2
Fore
SplineSet
62 229 m 1,0,-1
 62 331 l 1,1,-1
 544 331 l 1,2,-1
 544 229 l 1,3,-1
 62 229 l 1,0,-1
EndSplineSet
EndChar

StartChar: registered
Encoding: 174 174 116
Width: 858
Flags: W
LayerCount: 2
Fore
SplineSet
428 -7 m 256,0,1
 345 -7 345 -7 275.5 21 c 128,-1,2
 206 49 206 49 154.5 98.5 c 128,-1,3
 103 148 103 148 74.5 216 c 128,-1,4
 46 284 46 284 46 364 c 0,5,6
 46 442 46 442 74.5 510 c 128,-1,7
 103 578 103 578 154.5 627 c 128,-1,8
 206 676 206 676 275.5 704 c 128,-1,9
 345 732 345 732 428 732 c 256,10,11
 511 732 511 732 581 704 c 128,-1,12
 651 676 651 676 703 627 c 128,-1,13
 755 578 755 578 784 510 c 128,-1,14
 813 442 813 442 813 364 c 0,15,16
 813 284 813 284 784 216 c 128,-1,17
 755 148 755 148 703 98.5 c 128,-1,18
 651 49 651 49 581 21 c 128,-1,19
 511 -7 511 -7 428 -7 c 256,0,1
428 37 m 0,20,21
 499 37 499 37 560 60.5 c 128,-1,22
 621 84 621 84 666.5 127 c 128,-1,23
 712 170 712 170 737.5 230 c 128,-1,24
 763 290 763 290 763 362 c 0,25,26
 763 431 763 431 738 490.5 c 128,-1,27
 713 550 713 550 668 593.5 c 128,-1,28
 623 637 623 637 561.5 662 c 128,-1,29
 500 687 500 687 428 687 c 0,30,31
 355 687 355 687 294.5 662 c 128,-1,32
 234 637 234 637 189.5 593.5 c 128,-1,33
 145 550 145 550 120.5 491 c 128,-1,34
 96 432 96 432 96 364 c 0,35,36
 96 294 96 294 120.5 234.5 c 128,-1,37
 145 175 145 175 189.5 131 c 128,-1,38
 234 87 234 87 294.5 62 c 128,-1,39
 355 37 355 37 428 37 c 0,20,21
266 591 m 1,40,-1
 464 591 l 2,41,42
 495 591 495 591 521 578 c 128,-1,43
 547 565 547 565 565.5 544 c 128,-1,44
 584 523 584 523 594.5 496.5 c 128,-1,45
 605 470 605 470 605 442 c 0,46,47
 605 396 605 396 580 359.5 c 128,-1,48
 555 323 555 323 514 309 c 1,49,-1
 624 136 l 1,50,-1
 532 136 l 1,51,-1
 432 295 l 1,52,-1
 347 295 l 1,53,-1
 347 136 l 1,54,-1
 266 136 l 1,55,-1
 266 591 l 1,40,-1
459 366 m 2,56,57
 490 366 490 366 507.5 387 c 128,-1,58
 525 408 525 408 525 442 c 0,59,60
 525 478 525 478 505 498 c 128,-1,61
 485 518 485 518 456 518 c 2,62,-1
 347 518 l 1,63,-1
 347 366 l 1,64,-1
 459 366 l 2,56,57
EndSplineSet
EndChar

StartChar: macron
Encoding: 175 175 117
Width: 421
Flags: W
LayerCount: 2
Fore
SplineSet
59 659 m 1,0,-1
 59 731 l 1,1,-1
 362 731 l 1,2,-1
 362 659 l 1,3,-1
 59 659 l 1,0,-1
EndSplineSet
EndChar

StartChar: degree
Encoding: 176 176 118
Width: 285
Flags: W
LayerCount: 2
Fore
SplineSet
45 646 m 0,0,1
 45 687 45 687 72.5 714 c 128,-1,2
 100 741 100 741 142 741 c 0,3,4
 185 741 185 741 212.5 714 c 128,-1,5
 240 687 240 687 240 646 c 0,6,7
 240 601 240 601 212.5 573.5 c 128,-1,8
 185 546 185 546 142 546 c 0,9,10
 100 546 100 546 72.5 574.5 c 128,-1,11
 45 603 45 603 45 646 c 0,0,1
114 673 m 0,12,13
 101 658 101 658 101 644 c 0,14,15
 101 628 101 628 114 615 c 0,16,17
 124 603 124 603 142 603 c 0,18,19
 151 603 151 603 158.5 606 c 128,-1,20
 166 609 166 609 171 615 c 0,21,22
 183 628 183 628 183 644 c 0,23,24
 183 658 183 658 171 673 c 0,25,26
 166 679 166 679 158.5 681.5 c 128,-1,27
 151 684 151 684 142 684 c 0,28,29
 125 684 125 684 114 673 c 0,12,13
EndSplineSet
EndChar

StartChar: acute
Encoding: 180 180 120
Width: 249
Flags: W
LayerCount: 2
Fore
SplineSet
122 612 m 1,0,-1
 48 635 l 1,1,-1
 106 748 l 1,2,-1
 214 748 l 1,3,-1
 122 612 l 1,0,-1
EndSplineSet
EndChar

StartChar: paragraph
Encoding: 182 182 121
Width: 652
Flags: W
LayerCount: 2
Fore
SplineSet
36 472 m 0,0,1
 36 593 36 593 111.5 660 c 128,-1,2
 187 727 187 727 325 727 c 2,3,-1
 606 727 l 1,4,-1
 606 641 l 1,5,-1
 535 641 l 1,6,-1
 535 -82 l 1,7,-1
 438 -82 l 1,8,-1
 438 221 l 1,9,-1
 378 221 l 1,10,-1
 378 -82 l 1,11,-1
 281 -82 l 1,12,-1
 281 221 l 1,13,14
 225 222 225 222 179.5 240 c 128,-1,15
 134 258 134 258 102.5 291 c 128,-1,16
 71 324 71 324 53.5 369.5 c 128,-1,17
 36 415 36 415 36 472 c 0,0,1
130 474 m 0,18,19
 130 434 130 434 142 404 c 128,-1,20
 154 374 154 374 175 353.5 c 128,-1,21
 196 333 196 333 223 321 c 128,-1,22
 250 309 250 309 281 307 c 1,23,-1
 281 641 l 1,24,25
 208 639 208 639 169 594 c 128,-1,26
 130 549 130 549 130 474 c 0,18,19
438 641 m 1,27,-1
 378 641 l 1,28,-1
 378 307 l 1,29,-1
 438 307 l 1,30,-1
 438 641 l 1,27,-1
EndSplineSet
EndChar

StartChar: periodcentered
Encoding: 183 183 122
Width: 218
Flags: W
LayerCount: 2
Fore
SplineSet
62 249 m 1,0,-1
 62 389 l 1,1,-1
 156 389 l 1,2,-1
 156 249 l 1,3,-1
 62 249 l 1,0,-1
EndSplineSet
EndChar

StartChar: cedilla
Encoding: 184 184 123
Width: 317
Flags: W
LayerCount: 2
Fore
SplineSet
46 -129 m 1,0,1
 58 -136 58 -136 84 -143 c 128,-1,2
 110 -150 110 -150 136 -150 c 0,3,4
 163 -150 163 -150 179 -141.5 c 128,-1,5
 195 -133 195 -133 195 -115 c 0,6,7
 195 -94 195 -94 180 -87 c 128,-1,8
 165 -80 165 -80 141 -80 c 0,9,10
 120 -80 120 -80 96.5 -84 c 128,-1,11
 73 -88 73 -88 59 -92 c 1,12,-1
 121 25 l 1,13,-1
 167 9 l 1,14,-1
 131 -46 l 1,15,16
 139 -44 139 -44 148.5 -43 c 128,-1,17
 158 -42 158 -42 166 -42 c 0,18,19
 202 -42 202 -42 226 -58.5 c 128,-1,20
 250 -75 250 -75 250 -111 c 256,21,22
 250 -147 250 -147 219.5 -170.5 c 128,-1,23
 189 -194 189 -194 128 -194 c 0,24,25
 95 -194 95 -194 69 -187.5 c 128,-1,26
 43 -181 43 -181 23 -173 c 1,27,-1
 46 -129 l 1,0,1
EndSplineSet
EndChar

StartChar: ordmasculine
Encoding: 186 186 124
Width: 457
Flags: W
LayerCount: 2
Fore
SplineSet
228 350 m 256,0,1
 185 350 185 350 150.5 365.5 c 128,-1,2
 116 381 116 381 91.5 407 c 128,-1,3
 67 433 67 433 53.5 467 c 128,-1,4
 40 501 40 501 40 539 c 0,5,6
 40 578 40 578 53.5 612 c 128,-1,7
 67 646 67 646 91.5 672 c 128,-1,8
 116 698 116 698 150.5 713.5 c 128,-1,9
 185 729 185 729 228 729 c 256,10,11
 271 729 271 729 306 713.5 c 128,-1,12
 341 698 341 698 365.5 672 c 128,-1,13
 390 646 390 646 403.5 612 c 128,-1,14
 417 578 417 578 417 539 c 0,15,16
 417 501 417 501 403.5 467 c 128,-1,17
 390 433 390 433 365.5 407 c 128,-1,18
 341 381 341 381 306 365.5 c 128,-1,19
 271 350 271 350 228 350 c 256,0,1
127 539 m 0,20,21
 127 514 127 514 134.5 493 c 128,-1,22
 142 472 142 472 156 456.5 c 128,-1,23
 170 441 170 441 188.5 432.5 c 128,-1,24
 207 424 207 424 228 424 c 0,25,26
 250 424 250 424 268.5 432.5 c 128,-1,27
 287 441 287 441 300.5 456.5 c 128,-1,28
 314 472 314 472 322 493.5 c 128,-1,29
 330 515 330 515 330 540 c 0,30,31
 330 564 330 564 322 585 c 128,-1,32
 314 606 314 606 300.5 621.5 c 128,-1,33
 287 637 287 637 268.5 645.5 c 128,-1,34
 250 654 250 654 228 654 c 0,35,36
 207 654 207 654 188.5 645.5 c 128,-1,37
 170 637 170 637 156 621.5 c 128,-1,38
 142 606 142 606 134.5 584.5 c 128,-1,39
 127 563 127 563 127 539 c 0,20,21
EndSplineSet
EndChar

StartChar: guillemotright
Encoding: 187 187 125
Width: 636
Flags: W
LayerCount: 2
Fore
SplineSet
597 234 m 1,0,-1
 333 55 l 1,1,-1
 333 147 l 1,2,-1
 508 265 l 1,3,-1
 333 387 l 1,4,-1
 333 480 l 1,5,-1
 597 291 l 1,6,-1
 597 234 l 1,0,-1
326 234 m 1,7,-1
 61 55 l 1,8,-1
 61 147 l 1,9,-1
 236 265 l 1,10,-1
 61 387 l 1,11,-1
 61 480 l 1,12,-1
 326 291 l 1,13,-1
 326 234 l 1,7,-1
EndSplineSet
EndChar

StartChar: questiondown
Encoding: 191 191 126
Width: 487
Flags: W
LayerCount: 2
Fore
SplineSet
353 292 m 1,0,1
 353 239 353 239 335 198 c 128,-1,2
 317 157 317 157 268 127 c 0,3,4
 251 117 251 117 227.5 104 c 128,-1,5
 204 91 204 91 182.5 73.5 c 128,-1,6
 161 56 161 56 146 32.5 c 128,-1,7
 131 9 131 9 131 -23 c 0,8,9
 131 -47 131 -47 141 -66.5 c 128,-1,10
 151 -86 151 -86 166 -99.5 c 128,-1,11
 181 -113 181 -113 201.5 -119.5 c 128,-1,12
 222 -126 222 -126 244 -126 c 0,13,14
 268 -126 268 -126 288.5 -118.5 c 128,-1,15
 309 -111 309 -111 326.5 -98 c 128,-1,16
 344 -85 344 -85 358 -69 c 128,-1,17
 372 -53 372 -53 381 -36 c 1,18,-1
 455 -86 l 1,19,20
 427 -150 427 -150 368.5 -184 c 128,-1,21
 310 -218 310 -218 241 -218 c 0,22,23
 202 -218 202 -218 165 -206.5 c 128,-1,24
 128 -195 128 -195 98.5 -170.5 c 128,-1,25
 69 -146 69 -146 51 -108.5 c 128,-1,26
 33 -71 33 -71 33 -18 c 0,27,28
 33 16 33 16 42 43 c 128,-1,29
 51 70 51 70 67 91 c 128,-1,30
 83 112 83 112 105 127 c 128,-1,31
 127 142 127 142 152 157 c 0,32,33
 172 168 172 168 191.5 179.5 c 128,-1,34
 211 191 211 191 226 206.5 c 128,-1,35
 241 222 241 222 250 242.5 c 128,-1,36
 259 263 259 263 259 292 c 1,37,-1
 353 292 l 1,0,1
353 518 m 1,38,-1
 353 389 l 1,39,-1
 259 389 l 1,40,-1
 259 518 l 1,41,-1
 353 518 l 1,38,-1
EndSplineSet
EndChar

StartChar: multiply
Encoding: 215 215 149
Width: 585
Flags: W
LayerCount: 2
Fore
SplineSet
292 412 m 1,0,-1
 467 588 l 1,1,-1
 518 535 l 1,2,-1
 344 361 l 1,3,-1
 517 187 l 1,4,-1
 466 135 l 1,5,-1
 291 308 l 1,6,-1
 120 135 l 1,7,-1
 66 187 l 1,8,-1
 239 361 l 1,9,-1
 65 534 l 1,10,-1
 119 588 l 1,11,-1
 292 412 l 1,0,-1
EndSplineSet
EndChar

StartChar: divide
Encoding: 247 247 175
Width: 585
Flags: W
LayerCount: 2
Fore
SplineSet
292 597 m 0,0,1
 348 597 348 597 348 535 c 0,2,3
 348 505 348 505 333 489 c 128,-1,4
 318 473 318 473 292 473 c 256,5,6
 266 473 266 473 250 488 c 128,-1,7
 234 503 234 503 234 535 c 0,8,9
 234 597 234 597 292 597 c 0,0,1
51 324 m 1,10,-1
 51 397 l 1,11,-1
 533 397 l 1,12,-1
 533 324 l 1,13,-1
 51 324 l 1,10,-1
292 248 m 0,14,15
 348 248 348 248 348 186 c 0,16,17
 348 156 348 156 333 140 c 128,-1,18
 318 124 318 124 292 124 c 256,19,20
 266 124 266 124 250 139 c 128,-1,21
 234 154 234 154 234 186 c 0,22,23
 234 248 234 248 292 248 c 0,14,15
EndSplineSet
EndChar

StartChar: dotlessi
Encoding: 305 305 182
Width: 248
Flags: W
LayerCount: 2
Fore
SplineSet
68 0 m 1,0,-1
 68 536 l 1,1,-1
 180 536 l 1,2,-1
 180 0 l 1,3,-1
 68 0 l 1,0,-1
EndSplineSet
EndChar

StartChar: florin
Encoding: 402 402 186
Width: 554
Flags: W
LayerCount: 2
Fore
SplineSet
160 -196 m 0,0,1
 124 -196 124 -196 90.5 -184.5 c 128,-1,2
 57 -173 57 -173 31 -150 c 1,3,-1
 81 -74 l 1,4,5
 94 -86 94 -86 111.5 -91.5 c 128,-1,6
 129 -97 129 -97 146 -97 c 0,7,8
 176 -97 176 -97 199 -75 c 128,-1,9
 222 -53 222 -53 222 -19 c 2,10,-1
 222 386 l 1,11,-1
 152 386 l 1,12,-1
 152 473 l 1,13,-1
 222 473 l 1,14,-1
 222 544 l 2,15,16
 222 593 222 593 234.5 632.5 c 128,-1,17
 247 672 247 672 269 700 c 128,-1,18
 291 728 291 728 322.5 743 c 128,-1,19
 354 758 354 758 393 758 c 0,20,21
 426 758 426 758 458 749 c 128,-1,22
 490 740 490 740 518 725 c 1,23,-1
 494 641 l 1,24,25
 478 650 478 650 457.5 656.5 c 128,-1,26
 437 663 437 663 417 663 c 0,27,28
 377 663 377 663 356 633 c 128,-1,29
 335 603 335 603 335 547 c 2,30,-1
 335 473 l 1,31,-1
 472 473 l 1,32,-1
 472 386 l 1,33,-1
 335 386 l 1,34,-1
 335 -16 l 2,35,36
 335 -56 335 -56 320.5 -89 c 128,-1,37
 306 -122 306 -122 282 -145.5 c 128,-1,38
 258 -169 258 -169 226.5 -182.5 c 128,-1,39
 195 -196 195 -196 160 -196 c 0,0,1
EndSplineSet
EndChar

StartChar: uni0237
Encoding: 567 567 187
Width: 248
Flags: W
LayerCount: 2
Fore
SplineSet
5 -196 m 0,0,1
 -32 -196 -32 -196 -65 -184.5 c 128,-1,2
 -98 -173 -98 -173 -125 -150 c 1,3,-1
 -75 -74 l 1,4,5
 -60 -86 -60 -86 -43 -91.5 c 128,-1,6
 -26 -97 -26 -97 -8 -97 c 0,7,8
 22 -97 22 -97 45 -75 c 128,-1,9
 68 -53 68 -53 68 -19 c 2,10,-1
 68 536 l 1,11,-1
 180 536 l 1,12,-1
 180 -11 l 2,13,14
 180 -52 180 -52 166 -86 c 128,-1,15
 152 -120 152 -120 128 -144.5 c 128,-1,16
 104 -169 104 -169 72 -182.5 c 128,-1,17
 40 -196 40 -196 5 -196 c 0,0,1
EndSplineSet
EndChar

StartChar: afii57929
Encoding: 700 700 188
Width: 551
Flags: W
LayerCount: 2
Fore
SplineSet
274 612 m 1,0,-1
 203 635 l 1,1,-1
 239 705 l 1,2,-1
 234 748 l 1,3,-1
 368 748 l 1,4,-1
 274 612 l 1,0,-1
EndSplineSet
EndChar

StartChar: circumflex
Encoding: 710 710 189
Width: 364
Flags: W
LayerCount: 2
Fore
SplineSet
35 650 m 1,0,-1
 141 748 l 1,1,-1
 222 748 l 1,2,-1
 329 650 l 1,3,-1
 268 622 l 1,4,-1
 181 686 l 1,5,-1
 94 622 l 1,6,-1
 35 650 l 1,0,-1
EndSplineSet
EndChar

StartChar: caron
Encoding: 711 711 190
Width: 364
Flags: W
LayerCount: 2
Fore
SplineSet
94 748 m 1,0,-1
 181 683 l 1,1,-1
 268 748 l 1,2,-1
 329 719 l 1,3,-1
 222 622 l 1,4,-1
 141 622 l 1,5,-1
 35 719 l 1,6,-1
 94 748 l 1,0,-1
EndSplineSet
EndChar

StartChar: uni02C9
Encoding: 713 713 191
Width: 421
Flags: W
LayerCount: 2
Fore
SplineSet
59 659 m 1,0,-1
 59 731 l 1,1,-1
 362 731 l 1,2,-1
 362 659 l 1,3,-1
 59 659 l 1,0,-1
EndSplineSet
EndChar

StartChar: breve
Encoding: 728 728 192
Width: 319
Flags: W
LayerCount: 2
Fore
SplineSet
160 675 m 0,0,1
 182 675 182 675 199 695.5 c 128,-1,2
 216 716 216 716 219 748 c 1,3,-1
 282 748 l 1,4,5
 282 721 282 721 272.5 698 c 128,-1,6
 263 675 263 675 246.5 658 c 128,-1,7
 230 641 230 641 207.5 632 c 128,-1,8
 185 623 185 623 160 623 c 0,9,10
 133 623 133 623 111 632 c 128,-1,11
 89 641 89 641 72.5 658 c 128,-1,12
 56 675 56 675 47 698 c 128,-1,13
 38 721 38 721 38 748 c 1,14,-1
 100 748 l 1,15,16
 100 718 100 718 118 696.5 c 128,-1,17
 136 675 136 675 160 675 c 0,0,1
EndSplineSet
EndChar

StartChar: dotaccent
Encoding: 729 729 193
Width: 204
Flags: W
LayerCount: 2
Fore
SplineSet
51 630 m 1,0,-1
 51 748 l 1,1,-1
 153 748 l 1,2,-1
 153 630 l 1,3,-1
 51 630 l 1,0,-1
EndSplineSet
EndChar

StartChar: ring
Encoding: 730 730 194
Width: 263
Flags: W
LayerCount: 2
Fore
SplineSet
41 673 m 0,0,1
 41 709 41 709 66 728.5 c 128,-1,2
 91 748 91 748 131 748 c 0,3,4
 172 748 172 748 197 728.5 c 128,-1,5
 222 709 222 709 222 673 c 0,6,7
 222 638 222 638 197 618 c 128,-1,8
 172 598 172 598 131 598 c 0,9,10
 91 598 91 598 66 618 c 128,-1,11
 41 638 41 638 41 673 c 0,0,1
131 711 m 256,12,13
 114 711 114 711 102 700.5 c 128,-1,14
 90 690 90 690 90 673 c 0,15,16
 90 657 90 657 102 646 c 128,-1,17
 114 635 114 635 131 635 c 256,18,19
 148 635 148 635 160.5 645.5 c 128,-1,20
 173 656 173 656 173 673 c 256,21,22
 173 690 173 690 160.5 700.5 c 128,-1,23
 148 711 148 711 131 711 c 256,12,13
EndSplineSet
EndChar

StartChar: ogonek
Encoding: 731 731 195
Width: 279
Flags: W
LayerCount: 2
Fore
SplineSet
164 -193 m 1,0,1
 114 -184 114 -184 88 -161 c 128,-1,2
 62 -138 62 -138 62 -109 c 0,3,4
 62 -43 62 -43 178 20 c 1,5,-1
 212 0 l 1,6,7
 169 -27 169 -27 149.5 -48.5 c 128,-1,8
 130 -70 130 -70 130 -91 c 0,9,10
 130 -129 130 -129 189 -133 c 1,11,-1
 164 -193 l 1,12,-1
 164 -193 l 1,0,1
EndSplineSet
EndChar

StartChar: tilde
Encoding: 732 732 196
Width: 436
Flags: W
LayerCount: 2
Fore
SplineSet
284 630 m 0,0,1
 260 630 260 630 242.5 636.5 c 128,-1,2
 225 643 225 643 210.5 651.5 c 128,-1,3
 196 660 196 660 181.5 667 c 128,-1,4
 167 674 167 674 151 674 c 0,5,6
 133 674 133 674 123.5 666.5 c 128,-1,7
 114 659 114 659 108.5 650.5 c 128,-1,8
 103 642 103 642 101.5 634 c 128,-1,9
 100 626 100 626 100 625 c 2,10,-1
 37 625 l 1,11,12
 37 633 37 633 42 652.5 c 128,-1,13
 47 672 47 672 60 692 c 128,-1,14
 73 712 73 712 94 727 c 128,-1,15
 115 742 115 742 146 742 c 0,16,17
 169 742 169 742 186 735 c 128,-1,18
 203 728 203 728 217.5 720 c 128,-1,19
 232 712 232 712 247 704.5 c 128,-1,20
 262 697 262 697 281 697 c 0,21,22
 299 697 299 697 310.5 704.5 c 128,-1,23
 322 712 322 712 327.5 721 c 128,-1,24
 333 730 333 730 334.5 737.5 c 128,-1,25
 336 745 336 745 336 748 c 2,26,-1
 400 748 l 1,27,28
 400 741 400 741 394.5 721.5 c 128,-1,29
 389 702 389 702 375.5 682 c 128,-1,30
 362 662 362 662 339.5 646 c 128,-1,31
 317 630 317 630 284 630 c 0,0,1
EndSplineSet
EndChar

StartChar: hungarumlaut
Encoding: 733 733 197
Width: 359
Flags: W
LayerCount: 2
Fore
SplineSet
94 612 m 1,0,-1
 38 635 l 1,1,-1
 90 748 l 1,2,-1
 181 748 l 1,3,-1
 94 612 l 1,0,-1
246 612 m 1,4,-1
 188 635 l 1,5,-1
 241 748 l 1,6,-1
 333 748 l 1,7,-1
 246 612 l 1,4,-1
EndSplineSet
EndChar

StartChar: uni030F
Encoding: 783 783 198
Width: 359
Flags: W
LayerCount: 2
Fore
SplineSet
178 748 m 1,0,-1
 269 748 l 1,1,-1
 322 635 l 1,2,-1
 265 612 l 1,3,-1
 178 748 l 1,0,-1
27 748 m 1,4,-1
 119 748 l 1,5,-1
 171 635 l 1,6,-1
 114 612 l 1,7,-1
 27 748 l 1,4,-1
EndSplineSet
EndChar

StartChar: uni0311
Encoding: 785 785 199
Width: 319
Flags: W
LayerCount: 2
Fore
SplineSet
160 695 m 0,0,1
 136 695 136 695 118 673.5 c 128,-1,2
 100 652 100 652 100 623 c 1,3,-1
 38 623 l 1,4,5
 38 649 38 649 47 672 c 128,-1,6
 56 695 56 695 72.5 712 c 128,-1,7
 89 729 89 729 111 738.5 c 128,-1,8
 133 748 133 748 160 748 c 0,9,10
 185 748 185 748 207.5 738.5 c 128,-1,11
 230 729 230 729 246.5 712 c 128,-1,12
 263 695 263 695 272.5 672 c 128,-1,13
 282 649 282 649 282 623 c 1,14,-1
 219 623 l 1,15,16
 216 654 216 654 199 674.5 c 128,-1,17
 182 695 182 695 160 695 c 0,0,1
EndSplineSet
EndChar

StartChar: uni0964
Encoding: 2404 2404 200
Width: 294
Flags: W
LayerCount: 2
Fore
SplineSet
109 627 m 1,0,-1
 183 627 l 1,1,-1
 183 0 l 1,2,-1
 109 0 l 1,3,-1
 109 627 l 1,0,-1
EndSplineSet
EndChar

StartChar: uni0965
Encoding: 2405 2405 201
Width: 490
Flags: W
LayerCount: 2
Fore
SplineSet
109 627 m 1,0,-1
 183 627 l 1,1,-1
 183 0 l 1,2,-1
 109 0 l 1,3,-1
 109 627 l 1,0,-1
306 627 m 1,4,-1
 380 627 l 1,5,-1
 380 0 l 1,6,-1
 306 0 l 1,7,-1
 306 627 l 1,4,-1
EndSplineSet
EndChar

StartChar: uni0B82
Encoding: 2946 2946 202
Width: 0
GlyphClass: 4
Flags: W
LayerCount: 2
Fore
SplineSet
-250 676 m 1,0,1
 -250 726 -250 726 -213.5 762.5 c 128,-1,2
 -177 799 -177 799 -127 799 c 256,3,4
 -77 799 -77 799 -40.5 763 c 128,-1,5
 -4 727 -4 727 -4 676 c 0,6,7
 -4 626 -4 626 -40 589.5 c 128,-1,8
 -76 553 -76 553 -127 553 c 0,9,10
 -177 553 -177 553 -213.5 589.5 c 128,-1,11
 -250 626 -250 626 -250 676 c 1,12,-1
 -250 676 l 1,0,1
-200 676 m 1,13,14
 -200 645 -200 645 -178.5 623.5 c 128,-1,15
 -157 602 -157 602 -127 602 c 0,16,17
 -96 602 -96 602 -74.5 623.5 c 128,-1,18
 -53 645 -53 645 -53 676 c 256,19,20
 -53 707 -53 707 -74.5 728.5 c 128,-1,21
 -96 750 -96 750 -127 750 c 256,22,23
 -158 750 -158 750 -179 728.5 c 128,-1,24
 -200 707 -200 707 -200 676 c 1,25,-1
 -200 676 l 1,13,14
EndSplineSet
EndChar

StartChar: uni0B83
Encoding: 2947 2947 203
Width: 803
GlyphClass: 2
Flags: W
LayerCount: 2
Fore
SplineSet
279 676 m 1,0,1
 279 726 279 726 315.5 762.5 c 128,-1,2
 352 799 352 799 402 799 c 256,3,4
 452 799 452 799 488.5 763 c 128,-1,5
 525 727 525 727 525 676 c 0,6,7
 525 626 525 626 488.5 589.5 c 128,-1,8
 452 553 452 553 402 553 c 256,9,10
 352 553 352 553 315.5 589.5 c 128,-1,11
 279 626 279 626 279 676 c 1,12,-1
 279 676 l 1,0,1
328 676 m 1,13,14
 328 645 328 645 349.5 623.5 c 128,-1,15
 371 602 371 602 402 602 c 256,16,17
 433 602 433 602 454.5 623.5 c 128,-1,18
 476 645 476 645 476 676 c 256,19,20
 476 707 476 707 454.5 728.5 c 128,-1,21
 433 750 433 750 402 750 c 256,22,23
 371 750 371 750 349.5 728.5 c 128,-1,24
 328 707 328 707 328 676 c 1,25,-1
 328 676 l 1,13,14
33 111 m 1,26,27
 33 161 33 161 69.5 197.5 c 128,-1,28
 106 234 106 234 156 234 c 256,29,30
 206 234 206 234 242.5 197.5 c 128,-1,31
 279 161 279 161 279 111 c 256,32,33
 279 61 279 61 243 24.5 c 128,-1,34
 207 -12 207 -12 156 -12 c 0,35,36
 106 -12 106 -12 69.5 24 c 128,-1,37
 33 60 33 60 33 111 c 1,38,-1
 33 111 l 1,26,27
82 111 m 1,39,40
 82 80 82 80 103.5 58.5 c 128,-1,41
 125 37 125 37 156 37 c 256,42,43
 187 37 187 37 208.5 58.5 c 128,-1,44
 230 80 230 80 230 111 c 256,45,46
 230 142 230 142 208.5 163 c 128,-1,47
 187 184 187 184 156 184 c 256,48,49
 125 184 125 184 103.5 162.5 c 128,-1,50
 82 141 82 141 82 111 c 1,51,-1
 82 111 l 1,39,40
525 111 m 1,52,53
 525 161 525 161 561 197.5 c 128,-1,54
 597 234 597 234 648 234 c 0,55,56
 698 234 698 234 734.5 197.5 c 128,-1,57
 771 161 771 161 771 111 c 256,58,59
 771 61 771 61 734.5 24.5 c 128,-1,60
 698 -12 698 -12 648 -12 c 256,61,62
 598 -12 598 -12 561.5 24 c 128,-1,63
 525 60 525 60 525 111 c 1,64,-1
 525 111 l 1,52,53
574 111 m 1,65,66
 574 80 574 80 595.5 58.5 c 128,-1,67
 617 37 617 37 648 37 c 256,68,69
 679 37 679 37 700.5 58.5 c 128,-1,70
 722 80 722 80 722 111 c 256,71,72
 722 142 722 142 700.5 163 c 128,-1,73
 679 184 679 184 648 184 c 256,74,75
 617 184 617 184 595.5 162.5 c 128,-1,76
 574 141 574 141 574 111 c 1,77,-1
 574 111 l 1,65,66
EndSplineSet
EndChar

StartChar: uni0B99
Encoding: 2969 2969 217
Width: 897
GlyphClass: 2
Flags: W
LayerCount: 2
Fore
SplineSet
301 49 m 1,0,-1
 436 49 l 2,1,2
 481 49 481 49 514 81.5 c 128,-1,3
 547 114 547 114 547 160 c 0,4,5
 547 196 547 196 518 221 c 128,-1,6
 489 246 489 246 449 246 c 0,7,8
 428 246 428 246 405 233 c 128,-1,9
 382 220 382 220 363 197 c 1,10,-1
 363 98 l 1,11,-1
 301 98 l 1,12,-1
 301 443 l 1,13,-1
 154 443 l 1,14,-1
 154 0 l 1,15,-1
 92 0 l 1,16,-1
 92 492 l 1,17,-1
 535 492 l 1,18,-1
 535 443 l 1,19,-1
 363 443 l 1,20,-1
 363 264 l 1,21,22
 388 285 388 285 413 296 c 128,-1,23
 438 307 438 307 461 307 c 0,24,25
 522 307 522 307 565 264 c 128,-1,26
 608 221 608 221 608 160 c 0,27,28
 608 127 608 127 595.5 98 c 128,-1,29
 583 69 583 69 559 49 c 1,30,-1
 744 49 l 1,31,-1
 744 492 l 1,32,-1
 805 492 l 1,33,-1
 805 0 l 1,34,-1
 301 0 l 1,35,-1
 301 49 l 1,36,-1
 301 49 l 1,0,-1
EndSplineSet
EndChar

StartChar: uni0B9A
Encoding: 2970 2970 218
Width: 567
GlyphClass: 2
Flags: W
LayerCount: 2
Fore
SplineSet
219 270 m 1,0,-1
 342 270 l 1,1,-1
 342 443 l 1,2,-1
 219 443 l 1,3,-1
 219 270 l 1,4,-1
 219 270 l 1,0,-1
96 160 m 1,5,6
 96 110 96 110 135.5 73.5 c 128,-1,7
 175 37 175 37 231 37 c 0,8,9
 276 37 276 37 309 66 c 128,-1,10
 342 95 342 95 342 135 c 2,11,-1
 342 221 l 1,12,-1
 157 221 l 2,13,14
 131 221 131 221 113.5 203.5 c 128,-1,15
 96 186 96 186 96 160 c 1,16,-1
 96 160 l 1,5,6
157 492 m 1,17,-1
 551 492 l 1,18,-1
 551 443 l 1,19,-1
 403 443 l 1,20,-1
 403 270 l 1,21,-1
 551 270 l 1,22,-1
 551 221 l 1,23,-1
 403 221 l 1,24,-1
 403 135 l 2,25,26
 403 74 403 74 352.5 31 c 128,-1,27
 302 -12 302 -12 231 -12 c 0,28,29
 150 -12 150 -12 92 38.5 c 128,-1,30
 34 89 34 89 34 160 c 0,31,32
 34 205 34 205 70.5 237.5 c 128,-1,33
 107 270 107 270 157 270 c 1,34,-1
 157 492 l 1,35,-1
 157 492 l 1,17,-1
EndSplineSet
EndChar

StartChar: uni0B9E
Encoding: 2974 2974 220
Width: 1100
GlyphClass: 2
Flags: W
LayerCount: 2
Fore
SplineSet
380 135 m 1,0,1
 380 94 380 94 405 65.5 c 128,-1,2
 430 37 430 37 466 37 c 256,3,4
 502 37 502 37 527 66 c 128,-1,5
 552 95 552 95 552 135 c 0,6,7
 552 176 552 176 527 205 c 128,-1,8
 502 234 502 234 466 234 c 256,9,10
 430 234 430 234 405 205 c 128,-1,11
 380 176 380 176 380 135 c 1,12,-1
 380 135 l 1,0,1
73 197 m 1,13,14
 73 287 73 287 96.5 363 c 128,-1,15
 120 439 120 439 165 492 c 1,16,-1
 208 461 l 1,17,18
 170 414 170 414 149 346.5 c 128,-1,19
 128 279 128 279 128 197 c 0,20,21
 128 4 128 4 270 -133 c 128,-1,22
 412 -270 412 -270 613 -270 c 0,23,24
 770 -270 770 -270 882 -162 c 128,-1,25
 994 -54 994 -54 994 98 c 0,26,27
 994 155 994 155 961.5 194.5 c 128,-1,28
 929 234 929 234 884 234 c 0,29,30
 864 234 864 234 844.5 219 c 128,-1,31
 825 204 825 204 810 178 c 1,32,-1
 810 0 l 1,33,-1
 749 0 l 1,34,-1
 749 443 l 1,35,-1
 527 443 l 2,36,37
 423 443 423 443 349 374.5 c 128,-1,38
 275 306 275 306 275 209 c 0,39,40
 275 168 275 168 294 129.5 c 128,-1,41
 313 91 313 91 349 61 c 1,42,43
 340 77 340 77 335.5 95.5 c 128,-1,44
 331 114 331 114 331 135 c 0,45,46
 331 196 331 196 370 239.5 c 128,-1,47
 409 283 409 283 466 283 c 256,48,49
 523 283 523 283 562 240 c 128,-1,50
 601 197 601 197 601 135 c 0,51,52
 601 74 601 74 561.5 31 c 128,-1,53
 522 -12 522 -12 466 -12 c 0,54,55
 364 -12 364 -12 292 52.5 c 128,-1,56
 220 117 220 117 220 209 c 0,57,58
 220 326 220 326 310 409 c 128,-1,59
 400 492 400 492 527 492 c 2,60,-1
 1007 492 l 1,61,-1
 1007 443 l 1,62,-1
 810 443 l 1,63,-1
 810 246 l 1,64,65
 825 263 825 263 844 273 c 128,-1,66
 863 283 863 283 884 283 c 0,67,68
 955 283 955 283 1005.5 229 c 128,-1,69
 1056 175 1056 175 1056 98 c 0,70,71
 1056 -75 1056 -75 926.5 -197.5 c 128,-1,72
 797 -320 797 -320 613 -320 c 0,73,74
 389 -320 389 -320 231 -168.5 c 128,-1,75
 73 -17 73 -17 73 197 c 1,76,-1
 73 197 l 1,13,14
EndSplineSet
EndChar

StartChar: uni0BA3
Encoding: 2979 2979 222
Width: 1303
GlyphClass: 2
Flags: W
LayerCount: 2
Fore
SplineSet
189 135 m 1,0,1
 189 94 189 94 210.5 65.5 c 128,-1,2
 232 37 232 37 263 37 c 256,3,4
 294 37 294 37 315.5 66 c 128,-1,5
 337 95 337 95 337 135 c 0,6,7
 337 176 337 176 315.5 205 c 128,-1,8
 294 234 294 234 263 234 c 256,9,10
 232 234 232 234 210.5 205 c 128,-1,11
 189 176 189 176 189 135 c 1,12,-1
 189 135 l 1,0,1
484 197 m 1,13,14
 484 131 484 131 502 84 c 128,-1,15
 520 37 520 37 546 37 c 256,16,17
 572 37 572 37 589.5 83.5 c 128,-1,18
 607 130 607 130 607 197 c 0,19,20
 607 242 607 242 591 284.5 c 128,-1,21
 575 327 575 327 546 363 c 1,22,23
 516 327 516 327 500 284.5 c 128,-1,24
 484 242 484 242 484 197 c 1,25,-1
 484 197 l 1,13,14
779 197 m 1,26,27
 779 131 779 131 797 84 c 128,-1,28
 815 37 815 37 841 37 c 256,29,30
 867 37 867 37 884.5 83.5 c 128,-1,31
 902 130 902 130 902 197 c 0,32,33
 902 245 902 245 886 289 c 128,-1,34
 870 333 870 333 841 369 c 1,35,36
 811 333 811 333 795 289 c 128,-1,37
 779 245 779 245 779 197 c 1,38,-1
 779 197 l 1,26,27
54 209 m 1,39,40
 54 331 54 331 144 417.5 c 128,-1,41
 234 504 234 504 361 504 c 0,42,43
 419 504 419 504 466.5 490 c 128,-1,44
 514 476 514 476 546 449 c 1,45,46
 578 476 578 476 616 490 c 128,-1,47
 654 504 654 504 693 504 c 0,48,49
 736 504 736 504 775.5 490 c 128,-1,50
 815 476 815 476 847 449 c 1,51,52
 872 470 872 470 905 481 c 128,-1,53
 938 492 938 492 976 492 c 2,54,-1
 1296 492 l 1,55,-1
 1296 443 l 1,56,-1
 1148 443 l 1,57,-1
 1148 0 l 1,58,-1
 1087 0 l 1,59,-1
 1087 443 l 1,60,-1
 976 443 l 2,61,62
 954 443 954 443 929 435 c 128,-1,63
 904 427 904 427 878 412 c 1,64,65
 920 363 920 363 942 307 c 128,-1,66
 964 251 964 251 964 197 c 0,67,68
 964 111 964 111 927.5 49.5 c 128,-1,69
 891 -12 891 -12 841 -12 c 256,70,71
 791 -12 791 -12 754.5 49.5 c 128,-1,72
 718 111 718 111 718 197 c 0,73,74
 718 267 718 267 739 323.5 c 128,-1,75
 760 380 760 380 798 412 c 1,76,77
 773 433 773 433 746 444 c 128,-1,78
 719 455 719 455 693 455 c 256,79,80
 667 455 667 455 639 442 c 128,-1,81
 611 429 611 429 583 406 c 1,82,83
 624 372 624 372 646.5 317 c 128,-1,84
 669 262 669 262 669 197 c 0,85,86
 669 111 669 111 632.5 49.5 c 128,-1,87
 596 -12 596 -12 546 -12 c 256,88,89
 496 -12 496 -12 459.5 49.5 c 128,-1,90
 423 111 423 111 423 197 c 0,91,92
 423 255 423 255 444 310 c 128,-1,93
 465 365 465 365 503 412 c 1,94,95
 478 433 478 433 442 444 c 128,-1,96
 406 455 406 455 361 455 c 0,97,98
 254 455 254 455 178.5 383 c 128,-1,99
 103 311 103 311 103 209 c 0,100,101
 103 154 103 154 121 109 c 128,-1,102
 139 64 139 64 171 37 c 1,103,104
 156 63 156 63 148 88 c 128,-1,105
 140 113 140 113 140 135 c 0,106,107
 140 196 140 196 176.5 239.5 c 128,-1,108
 213 283 213 283 263 283 c 256,109,110
 313 283 313 283 349.5 240 c 128,-1,111
 386 197 386 197 386 135 c 0,112,113
 386 74 386 74 343 31 c 128,-1,114
 300 -12 300 -12 238 -12 c 0,115,116
 162 -12 162 -12 108 52.5 c 128,-1,117
 54 117 54 117 54 209 c 1,118,-1
 54 209 l 1,39,40
EndSplineSet
EndChar

StartChar: uni0BA9
Encoding: 2985 2985 225
Width: 993
GlyphClass: 2
Flags: W
LayerCount: 2
Fore
SplineSet
187 135 m 1,0,1
 187 94 187 94 212 65.5 c 128,-1,2
 237 37 237 37 273 37 c 256,3,4
 309 37 309 37 334 66 c 128,-1,5
 359 95 359 95 359 135 c 0,6,7
 359 176 359 176 334 205 c 128,-1,8
 309 234 309 234 273 234 c 256,9,10
 237 234 237 234 212 205 c 128,-1,11
 187 176 187 176 187 135 c 1,12,-1
 187 135 l 1,0,1
519 197 m 1,13,14
 519 131 519 131 536.5 84 c 128,-1,15
 554 37 554 37 580 37 c 256,16,17
 606 37 606 37 624 83.5 c 128,-1,18
 642 130 642 130 642 197 c 0,19,20
 642 245 642 245 626 289 c 128,-1,21
 610 333 610 333 580 369 c 1,22,23
 550 333 550 333 534.5 289 c 128,-1,24
 519 245 519 245 519 197 c 1,25,-1
 519 197 l 1,13,14
728 492 m 1,26,-1
 986 492 l 1,27,-1
 986 443 l 1,28,-1
 888 443 l 1,29,-1
 888 0 l 1,30,-1
 826 0 l 1,31,-1
 826 443 l 1,32,-1
 728 443 l 2,33,34
 696 443 696 443 667 433.5 c 128,-1,35
 638 424 638 424 617 406 c 1,36,37
 658 372 658 372 680.5 317 c 128,-1,38
 703 262 703 262 703 197 c 0,39,40
 703 111 703 111 667 49.5 c 128,-1,41
 631 -12 631 -12 580 -12 c 0,42,43
 530 -12 530 -12 493.5 49.5 c 128,-1,44
 457 111 457 111 457 197 c 0,45,46
 457 260 457 260 480 312.5 c 128,-1,47
 503 365 503 365 543 400 c 1,48,49
 511 427 511 427 467 441 c 128,-1,50
 423 455 423 455 371 455 c 0,51,52
 259 455 259 455 180 383 c 128,-1,53
 101 311 101 311 101 209 c 0,54,55
 101 170 101 170 114 138 c 128,-1,56
 127 106 127 106 150 86 c 1,57,58
 144 97 144 97 141 109.5 c 128,-1,59
 138 122 138 122 138 135 c 0,60,61
 138 196 138 196 177 239.5 c 128,-1,62
 216 283 216 283 273 283 c 256,63,64
 330 283 330 283 369 240 c 128,-1,65
 408 197 408 197 408 135 c 0,66,67
 408 74 408 74 368.5 31 c 128,-1,68
 329 -12 329 -12 273 -12 c 0,69,70
 181 -12 181 -12 116.5 52.5 c 128,-1,71
 52 117 52 117 52 209 c 0,72,73
 52 331 52 331 145 417.5 c 128,-1,74
 238 504 238 504 371 504 c 0,75,76
 436 504 436 504 490.5 488 c 128,-1,77
 545 472 545 472 580 443 c 1,78,79
 608 466 608 466 646.5 479 c 128,-1,80
 685 492 685 492 728 492 c 1,81,-1
 728 492 l 1,26,-1
EndSplineSet
EndChar

StartChar: uni0BB1
Encoding: 2993 2993 230
Width: 697
GlyphClass: 2
Flags: W
LayerCount: 2
Fore
SplineSet
89 369 m 1,0,1
 89 426 89 426 128 465 c 128,-1,2
 167 504 167 504 224 504 c 0,3,4
 258 504 258 504 286.5 487.5 c 128,-1,5
 315 471 315 471 328 443 c 1,6,7
 342 471 342 471 375 487.5 c 128,-1,8
 408 504 408 504 451 504 c 0,9,10
 525 504 525 504 577 424.5 c 128,-1,11
 629 345 629 345 629 234 c 0,12,13
 629 86 629 86 553.5 -18.5 c 128,-1,14
 478 -123 478 -123 371 -123 c 2,15,-1
 175 -123 l 2,16,17
 134 -123 134 -123 118 -164 c 128,-1,18
 102 -205 102 -205 125 -246 c 1,19,-1
 76 -270 l 1,20,21
 64 -249 64 -249 58 -230 c 128,-1,22
 52 -211 52 -211 52 -197 c 0,23,24
 52 -147 52 -147 88 -110.5 c 128,-1,25
 124 -74 124 -74 175 -74 c 2,26,-1
 371 -74 l 2,27,28
 452 -74 452 -74 510 16 c 128,-1,29
 568 106 568 106 568 234 c 0,30,31
 568 326 568 326 535.5 390.5 c 128,-1,32
 503 455 503 455 457 455 c 0,33,34
 416 455 416 455 387.5 429.5 c 128,-1,35
 359 404 359 404 359 369 c 2,36,-1
 359 0 l 1,37,-1
 297 0 l 1,38,-1
 297 369 l 2,39,40
 297 405 297 405 275.5 430 c 128,-1,41
 254 455 254 455 224 455 c 0,42,43
 193 455 193 455 171.5 429.5 c 128,-1,44
 150 404 150 404 150 369 c 2,45,-1
 150 0 l 1,46,-1
 89 0 l 1,47,-1
 89 369 l 1,48,-1
 89 369 l 1,0,1
EndSplineSet
EndChar

StartChar: uni0BB3
Encoding: 2995 2995 232
Width: 924
GlyphClass: 2
Flags: W
LayerCount: 2
Fore
SplineSet
204 148 m 1,0,1
 204 107 204 107 225.5 78 c 128,-1,2
 247 49 247 49 278 49 c 256,3,4
 309 49 309 49 330.5 78 c 128,-1,5
 352 107 352 107 352 148 c 0,6,7
 352 184 352 184 330.5 209 c 128,-1,8
 309 234 309 234 278 234 c 256,9,10
 247 234 247 234 225.5 208.5 c 128,-1,11
 204 183 204 183 204 148 c 1,12,-1
 204 148 l 1,0,1
487 492 m 1,13,-1
 917 492 l 1,14,-1
 917 443 l 1,15,-1
 782 443 l 1,16,-1
 782 0 l 1,17,-1
 720 0 l 1,18,-1
 720 443 l 1,19,-1
 536 443 l 1,20,-1
 536 0 l 1,21,-1
 475 0 l 1,22,-1
 475 246 l 2,23,24
 475 332 475 332 420.5 393.5 c 128,-1,25
 366 455 366 455 290 455 c 256,26,27
 214 455 214 455 160 390.5 c 128,-1,28
 106 326 106 326 106 234 c 0,29,30
 106 187 106 187 125 145 c 128,-1,31
 144 103 144 103 179 74 c 1,32,33
 167 95 167 95 161 114 c 128,-1,34
 155 133 155 133 155 148 c 0,35,36
 155 205 155 205 191 244 c 128,-1,37
 227 283 227 283 278 283 c 0,38,39
 328 283 328 283 364.5 243.5 c 128,-1,40
 401 204 401 204 401 148 c 0,41,42
 401 82 401 82 358 35 c 128,-1,43
 315 -12 315 -12 253 -12 c 0,44,45
 172 -12 172 -12 114.5 60 c 128,-1,46
 57 132 57 132 57 234 c 0,47,48
 57 346 57 346 125 425 c 128,-1,49
 193 504 193 504 290 504 c 0,50,51
 355 504 355 504 408 477.5 c 128,-1,52
 461 451 461 451 487 406 c 1,53,-1
 487 492 l 1,54,-1
 487 492 l 1,13,-1
EndSplineSet
EndChar

StartChar: uni0BB4
Encoding: 2996 2996 233
Width: 824
GlyphClass: 2
Flags: W
LayerCount: 2
Fore
SplineSet
449 369 m 1,0,-1
 449 49 l 1,1,-1
 621 49 l 2,2,3
 657 49 657 49 682 88.5 c 128,-1,4
 707 128 707 128 707 184 c 0,5,6
 707 296 707 296 653 375.5 c 128,-1,7
 599 455 599 455 522 455 c 0,8,9
 491 455 491 455 470 429.5 c 128,-1,10
 449 404 449 404 449 369 c 1,11,-1
 449 369 l 1,0,-1
522 504 m 1,12,13
 624 504 624 504 696 410.5 c 128,-1,14
 768 317 768 317 768 184 c 0,15,16
 768 108 768 108 725 54 c 128,-1,17
 682 0 682 0 621 0 c 2,18,-1
 449 0 l 1,19,20
 456 -43 456 -43 487.5 -70.5 c 128,-1,21
 519 -98 519 -98 559 -98 c 2,22,-1
 707 -98 l 1,23,-1
 707 -148 l 1,24,-1
 608 -148 l 2,25,26
 563 -148 563 -148 523.5 -171 c 128,-1,27
 484 -194 484 -194 461 -234 c 0,28,29
 431 -286 431 -286 381.5 -315 c 128,-1,30
 332 -344 332 -344 277 -344 c 0,31,32
 201 -344 201 -344 146.5 -301 c 128,-1,33
 92 -258 92 -258 92 -197 c 0,34,35
 92 -147 92 -147 128.5 -110.5 c 128,-1,36
 165 -74 165 -74 215 -74 c 2,37,-1
 313 -74 l 1,38,-1
 313 -123 l 1,39,-1
 215 -123 l 2,40,41
 189 -123 189 -123 171.5 -144.5 c 128,-1,42
 154 -166 154 -166 154 -197 c 0,43,44
 154 -238 154 -238 190 -266.5 c 128,-1,45
 226 -295 226 -295 277 -295 c 0,46,47
 311 -295 311 -295 341 -278.5 c 128,-1,48
 371 -262 371 -262 387 -234 c 0,49,50
 404 -203 404 -203 429.5 -177.5 c 128,-1,51
 455 -152 455 -152 486 -135 c 1,52,53
 442 -119 442 -119 414.5 -81.5 c 128,-1,54
 387 -44 387 -44 387 0 c 1,55,-1
 92 0 l 1,56,-1
 92 492 l 1,57,-1
 154 492 l 1,58,-1
 154 49 l 1,59,-1
 387 49 l 1,60,-1
 387 369 l 2,61,62
 387 426 387 426 426.5 465 c 128,-1,63
 466 504 466 504 522 504 c 1,64,-1
 522 504 l 1,12,13
EndSplineSet
EndChar

StartChar: uni0BB8
Encoding: 3000 3000 237
Width: 1100
GlyphClass: 2
Flags: W
LayerCount: 2
Fore
SplineSet
215 135 m 1,0,1
 215 94 215 94 236.5 65.5 c 128,-1,2
 258 37 258 37 289 37 c 256,3,4
 320 37 320 37 341.5 66 c 128,-1,5
 363 95 363 95 363 135 c 0,6,7
 363 176 363 176 341.5 205 c 128,-1,8
 320 234 320 234 289 234 c 256,9,10
 258 234 258 234 236.5 205 c 128,-1,11
 215 176 215 176 215 135 c 1,12,-1
 215 135 l 1,0,1
55 221 m 1,13,14
 55 338 55 338 127 421 c 128,-1,15
 199 504 199 504 301 504 c 0,16,17
 369 504 369 504 423.5 477.5 c 128,-1,18
 478 451 478 451 504 406 c 1,19,20
 515 449 515 449 547.5 476.5 c 128,-1,21
 580 504 580 504 621 504 c 0,22,23
 671 504 671 504 707.5 464.5 c 128,-1,24
 744 425 744 425 744 369 c 2,25,-1
 744 135 l 2,26,27
 744 94 744 94 769 65.5 c 128,-1,28
 794 37 794 37 830 37 c 0,29,30
 891 37 891 37 934 98.5 c 128,-1,31
 977 160 977 160 977 246 c 0,32,33
 977 321 977 321 944 383.5 c 128,-1,34
 911 446 911 446 854 479 c 1,35,-1
 897 529 l 1,36,37
 962 491 962 491 1000.5 415 c 128,-1,38
 1039 339 1039 339 1039 246 c 0,39,40
 1039 139 1039 139 977.5 63.5 c 128,-1,41
 916 -12 916 -12 830 -12 c 0,42,43
 769 -12 769 -12 725.5 31 c 128,-1,44
 682 74 682 74 682 135 c 2,45,-1
 682 369 l 2,46,47
 682 402 682 402 664.5 425.5 c 128,-1,48
 647 449 647 449 621 449 c 0,49,50
 590 449 590 449 568.5 418 c 128,-1,51
 547 387 547 387 547 344 c 2,52,-1
 547 0 l 1,53,-1
 486 0 l 1,54,-1
 486 307 l 2,55,56
 486 366 486 366 431.5 407.5 c 128,-1,57
 377 449 377 449 301 449 c 0,58,59
 220 449 220 449 162 382.5 c 128,-1,60
 104 316 104 316 104 221 c 0,61,62
 104 167 104 167 124 124 c 128,-1,63
 144 81 144 81 178 61 c 1,64,65
 172 78 172 78 169 97 c 128,-1,66
 166 116 166 116 166 135 c 0,67,68
 166 196 166 196 202 239.5 c 128,-1,69
 238 283 238 283 289 283 c 0,70,71
 339 283 339 283 375.5 240 c 128,-1,72
 412 197 412 197 412 135 c 0,73,74
 412 74 412 74 372.5 31 c 128,-1,75
 333 -12 333 -12 277 -12 c 0,76,77
 185 -12 185 -12 120 56 c 128,-1,78
 55 124 55 124 55 221 c 1,79,-1
 55 221 l 1,13,14
EndSplineSet
EndChar

StartChar: uni0BB9
Encoding: 3001 3001 238
Width: 1255
GlyphClass: 2
Flags: W
LayerCount: 2
Fore
SplineSet
205 135 m 1,0,1
 205 94 205 94 230.5 65.5 c 128,-1,2
 256 37 256 37 291 37 c 0,3,4
 327 37 327 37 352 66 c 128,-1,5
 377 95 377 95 377 135 c 0,6,7
 377 176 377 176 352 205 c 128,-1,8
 327 234 327 234 291 234 c 256,9,10
 255 234 255 234 230 205 c 128,-1,11
 205 176 205 176 205 135 c 1,12,-1
 205 135 l 1,0,1
881 455 m 1,13,14
 901 478 901 478 933 491 c 128,-1,15
 965 504 965 504 1004 504 c 0,16,17
 1080 504 1080 504 1134.5 428.5 c 128,-1,18
 1189 353 1189 353 1189 246 c 0,19,20
 1189 94 1189 94 1109.5 -14.5 c 128,-1,21
 1030 -123 1030 -123 918 -123 c 2,22,-1
 205 -123 l 2,23,24
 174 -123 174 -123 153 -144.5 c 128,-1,25
 132 -166 132 -166 132 -197 c 0,26,27
 132 -207 132 -207 138 -222 c 128,-1,28
 144 -237 144 -237 156 -258 c 1,29,-1
 107 -295 l 1,30,31
 89 -274 89 -274 79.5 -248.5 c 128,-1,32
 70 -223 70 -223 70 -197 c 0,33,34
 70 -147 70 -147 109.5 -110.5 c 128,-1,35
 149 -74 149 -74 205 -74 c 2,36,-1
 918 -74 l 2,37,38
 1004 -74 1004 -74 1065.5 19.5 c 128,-1,39
 1127 113 1127 113 1127 246 c 0,40,41
 1127 332 1127 332 1091 393.5 c 128,-1,42
 1055 455 1055 455 1004 455 c 0,43,44
 963 455 963 455 934.5 433.5 c 128,-1,45
 906 412 906 412 906 381 c 2,46,-1
 906 0 l 1,47,-1
 845 0 l 1,48,-1
 845 381 l 2,49,50
 845 412 845 412 827 433.5 c 128,-1,51
 809 455 809 455 783 455 c 256,52,53
 757 455 757 455 739.5 433.5 c 128,-1,54
 722 412 722 412 722 381 c 2,55,-1
 722 0 l 1,56,-1
 451 0 l 1,57,-1
 451 37 l 1,58,59
 481 73 481 73 497 117 c 128,-1,60
 513 161 513 161 513 209 c 0,61,62
 513 321 513 321 459.5 388 c 128,-1,63
 406 455 406 455 316 455 c 0,64,65
 224 455 224 455 168.5 388 c 128,-1,66
 113 321 113 321 113 209 c 0,67,68
 113 166 113 166 131 127.5 c 128,-1,69
 149 89 149 89 181 61 c 1,70,71
 169 82 169 82 162.5 101 c 128,-1,72
 156 120 156 120 156 135 c 0,73,74
 156 196 156 196 195.5 239.5 c 128,-1,75
 235 283 235 283 291 283 c 0,76,77
 348 283 348 283 387.5 240 c 128,-1,78
 427 197 427 197 427 135 c 0,79,80
 427 74 427 74 380 31 c 128,-1,81
 333 -12 333 -12 267 -12 c 0,82,83
 181 -12 181 -12 119.5 52.5 c 128,-1,84
 58 117 58 117 58 209 c 0,85,86
 58 343 58 343 128.5 423.5 c 128,-1,87
 199 504 199 504 316 504 c 256,88,89
 433 504 433 504 503.5 423.5 c 128,-1,90
 574 343 574 343 574 209 c 0,91,92
 574 172 574 172 561.5 131.5 c 128,-1,93
 549 91 549 91 525 49 c 1,94,-1
 660 49 l 1,95,-1
 660 381 l 2,96,97
 660 431 660 431 696.5 467.5 c 128,-1,98
 733 504 733 504 783 504 c 0,99,100
 810 504 810 504 836 491 c 128,-1,101
 862 478 862 478 881 455 c 1,102,-1
 881 455 l 1,13,14
EndSplineSet
EndChar

StartChar: uni0BC0
Encoding: 3008 3008 241
Width: 553
GlyphClass: 2
Flags: W
LayerCount: 2
Fore
SplineSet
92 676 m 1,0,1
 92 747 92 747 150 797.5 c 128,-1,2
 208 848 208 848 289 848 c 0,3,4
 360 848 360 848 410.5 809 c 128,-1,5
 461 770 461 770 461 713 c 0,6,7
 461 663 461 663 424.5 626.5 c 128,-1,8
 388 590 388 590 338 590 c 256,9,10
 288 590 288 590 251.5 626.5 c 128,-1,11
 215 663 215 663 215 713 c 0,12,13
 215 740 215 740 228 763 c 128,-1,14
 241 786 241 786 264 799 c 1,15,16
 216 790 216 790 185 755 c 128,-1,17
 154 720 154 720 154 676 c 0,18,19
 154 627 154 627 190 577 c 128,-1,20
 226 527 226 527 289 492 c 1,21,-1
 203 492 l 1,22,23
 151 522 151 522 121.5 571.5 c 128,-1,24
 92 621 92 621 92 676 c 1,25,-1
 92 676 l 1,0,1
277 713 m 1,26,27
 277 682 277 682 294.5 660.5 c 128,-1,28
 312 639 312 639 338 639 c 256,29,30
 364 639 364 639 382 660.5 c 128,-1,31
 400 682 400 682 400 713 c 256,32,33
 400 744 400 744 382 765.5 c 128,-1,34
 364 787 364 787 338 787 c 256,35,36
 312 787 312 787 294.5 765.5 c 128,-1,37
 277 744 277 744 277 713 c 1,38,-1
 277 713 l 1,26,27
EndSplineSet
EndChar

StartChar: uni0BC1
Encoding: 3009 3009 242
Width: 532
GlyphClass: 4
Flags: W
LayerCount: 2
Fore
SplineSet
-208 443 m 1,0,-1
 -208 492 l 1,1,-1
 333 492 l 2,2,3
 399 492 399 492 446 445 c 128,-1,4
 493 398 493 398 493 332 c 256,5,6
 493 266 493 266 446.5 219 c 128,-1,7
 400 172 400 172 333 172 c 0,8,9
 267 172 267 172 220 219 c 128,-1,10
 173 266 173 266 173 332 c 2,11,-1
 173 443 l 1,12,-1
 -208 443 l 1,13,-1
 -208 443 l 1,0,-1
235 332 m 1,14,15
 235 287 235 287 264 254 c 128,-1,16
 293 221 293 221 333 221 c 0,17,18
 374 221 374 221 402.5 253.5 c 128,-1,19
 431 286 431 286 431 332 c 0,20,21
 431 377 431 377 402.5 410 c 128,-1,22
 374 443 374 443 333 443 c 2,23,-1
 235 443 l 1,24,-1
 235 332 l 1,25,-1
 235 332 l 1,14,15
EndSplineSet
EndChar

StartChar: uni0BC2
Encoding: 3010 3010 243
Width: 776
GlyphClass: 4
Flags: W
LayerCount: 2
Fore
SplineSet
-208 492 m 1,0,-1
 124 492 l 1,1,-1
 124 541 l 2,2,3
 124 663 124 663 210.5 749.5 c 128,-1,4
 297 836 297 836 419 836 c 0,5,6
 552 836 552 836 645.5 724 c 128,-1,7
 739 612 739 612 739 455 c 0,8,9
 739 287 739 287 620.5 168 c 128,-1,10
 502 49 502 49 333 49 c 0,11,12
 248 49 248 49 174 81 c 128,-1,13
 100 113 100 113 50 172 c 1,14,-1
 87 209 l 1,15,16
 117 157 117 157 182.5 127.5 c 128,-1,17
 248 98 248 98 333 98 c 0,18,19
 476 98 476 98 576.5 202.5 c 128,-1,20
 677 307 677 307 677 455 c 0,21,22
 677 593 677 593 601.5 690 c 128,-1,23
 526 787 526 787 419 787 c 0,24,25
 322 787 322 787 254 715 c 128,-1,26
 186 643 186 643 186 541 c 2,27,-1
 186 492 l 1,28,-1
 345 492 l 2,29,30
 402 492 402 492 441.5 455.5 c 128,-1,31
 481 419 481 419 481 369 c 256,32,33
 481 319 481 319 441.5 282.5 c 128,-1,34
 402 246 402 246 345 246 c 0,35,36
 266 246 266 246 205.5 302 c 128,-1,37
 145 358 145 358 130 443 c 1,38,-1
 -208 443 l 1,39,-1
 -208 492 l 1,40,-1
 -208 492 l 1,0,-1
192 443 m 1,41,42
 203 379 203 379 246.5 337 c 128,-1,43
 290 295 290 295 345 295 c 0,44,45
 376 295 376 295 397.5 316.5 c 128,-1,46
 419 338 419 338 419 369 c 256,47,48
 419 400 419 400 397.5 421.5 c 128,-1,49
 376 443 376 443 345 443 c 2,50,-1
 192 443 l 1,51,-1
 192 443 l 1,41,42
EndSplineSet
EndChar

StartChar: uni0BD0
Encoding: 3024 3024 251
Width: 1023
GlyphClass: 2
Flags: W
LayerCount: 2
Fore
SplineSet
356 -6 m 2,0,1
 356 -11 356 -11 354 -15.5 c 128,-1,2
 352 -20 352 -20 349 -23 c 128,-1,3
 346 -26 346 -26 341.5 -28 c 128,-1,4
 337 -30 337 -30 332 -30 c 128,-1,5
 327 -30 327 -30 323 -28 c 128,-1,6
 319 -26 319 -26 315.5 -22.5 c 128,-1,7
 312 -19 312 -19 310 -14 c 128,-1,8
 308 -9 308 -9 308 -4 c 128,-1,9
 308 1 308 1 310 5.5 c 128,-1,10
 312 10 312 10 315.5 14 c 128,-1,11
 319 18 319 18 323.5 20 c 128,-1,12
 328 22 328 22 332 22 c 0,13,14
 337 22 337 22 341.5 20 c 128,-1,15
 346 18 346 18 349 14.5 c 128,-1,16
 352 11 352 11 354 6 c 128,-1,17
 356 1 356 1 356 -4 c 2,18,-1
 356 -6 l 2,0,1
369 -164 m 1,19,20
 393 -128 393 -128 371 -100 c 0,21,22
 348 -75 348 -75 326.5 -97.5 c 128,-1,23
 305 -120 305 -120 323 -163 c 1,24,-1
 369 -164 l 1,19,20
267 -290 m 0,25,26
 403 -297 403 -297 466 -161 c 1,27,28
 496 -77 496 -77 554 -49 c 1,29,30
 499 -29 499 -29 465 15 c 128,-1,31
 431 59 431 59 431 111 c 0,32,33
 431 182 431 182 489 232.5 c 128,-1,34
 547 283 547 283 628 283 c 1,35,36
 605 255 605 255 592 223 c 128,-1,37
 579 191 579 191 579 160 c 256,38,39
 579 129 579 129 604 107.5 c 128,-1,40
 629 86 629 86 665 86 c 256,41,42
 701 86 701 86 726 115 c 128,-1,43
 751 144 751 144 751 184 c 0,44,45
 751 301 751 301 654 384 c 128,-1,46
 557 467 557 467 419 467 c 0,47,48
 286 467 286 467 193 391.5 c 128,-1,49
 100 316 100 316 100 209 c 0,50,51
 100 189 100 189 103 170.5 c 128,-1,52
 106 152 106 152 112 135 c 1,53,54
 112 194 112 194 148 235.5 c 128,-1,55
 184 277 184 277 235 277 c 0,56,57
 285 277 285 277 321.5 238.5 c 128,-1,58
 358 200 358 200 358 148 c 0,59,60
 358 91 358 91 321.5 51.5 c 128,-1,61
 285 12 285 12 235 12 c 0,62,63
 159 12 159 12 104.5 70 c 128,-1,64
 50 128 50 128 50 209 c 0,65,66
 50 337 50 337 158.5 426.5 c 128,-1,67
 267 516 267 516 419 516 c 0,68,69
 582 516 582 516 697.5 419 c 128,-1,70
 813 322 813 322 813 184 c 0,71,72
 813 123 813 123 770 80 c 128,-1,73
 727 37 727 37 665 37 c 0,74,75
 608 37 608 37 569 73 c 128,-1,76
 530 109 530 109 530 160 c 0,77,78
 530 170 530 170 538 189 c 128,-1,79
 546 208 546 208 561 234 c 1,80,81
 524 213 524 213 502.5 179.5 c 128,-1,82
 481 146 481 146 481 111 c 0,83,84
 481 54 481 54 531 14.5 c 128,-1,85
 581 -25 581 -25 653 -25 c 2,86,-1
 788 -25 l 1,87,-1
 788 -74 l 1,88,-1
 607 -74 l 2,89,90
 587 -74 587 -74 553 -103 c 0,91,92
 531 -122 531 -122 515 -163 c 0,93,94
 449 -336 449 -336 269 -329 c 0,95,96
 37 -320 37 -320 32 -156 c 0,97,98
 30 -108 30 -108 55 -69 c 0,99,100
 78 -33 78 -33 123 -33 c 0,101,102
 150 -33 150 -33 168 -53 c 0,103,104
 191 -82 191 -82 191 -165 c 1,105,106
 239 -166 239 -166 282 -165 c 1,107,108
 271 -101 271 -101 303 -71 c 0,109,110
 338 -39 338 -39 385 -66 c 0,111,112
 420 -86 420 -86 414 -143 c 0,113,114
 410 -187 410 -187 395 -199 c 1,115,-1
 148 -199 l 1,116,117
 163 -115 163 -115 135 -87 c 0,118,119
 110 -61 110 -61 88 -88 c 0,120,121
 68 -111 68 -111 73 -174 c 0,122,123
 81 -280 81 -280 267 -290 c 0,25,26
173 148 m 0,124,125
 173 112 173 112 191 86.5 c 128,-1,126
 209 61 209 61 235 61 c 256,127,128
 261 61 261 61 278.5 86.5 c 128,-1,129
 296 112 296 112 296 148 c 0,130,131
 296 179 296 179 278.5 200 c 128,-1,132
 261 221 261 221 235 221 c 256,133,134
 209 221 209 221 191 200 c 128,-1,135
 173 179 173 179 173 148 c 0,124,125
EndSplineSet
EndChar

StartChar: uni0BD7
Encoding: 3031 3031 252
Width: 924
GlyphClass: 2
Flags: W
LayerCount: 2
Fore
SplineSet
204 148 m 1,0,1
 204 107 204 107 225.5 78 c 128,-1,2
 247 49 247 49 278 49 c 256,3,4
 309 49 309 49 330.5 78 c 128,-1,5
 352 107 352 107 352 148 c 0,6,7
 352 184 352 184 330.5 209 c 128,-1,8
 309 234 309 234 278 234 c 256,9,10
 247 234 247 234 225.5 208.5 c 128,-1,11
 204 183 204 183 204 148 c 1,12,-1
 204 148 l 1,0,1
487 492 m 1,13,-1
 917 492 l 1,14,-1
 917 443 l 1,15,-1
 782 443 l 1,16,-1
 782 0 l 1,17,-1
 720 0 l 1,18,-1
 720 443 l 1,19,-1
 536 443 l 1,20,-1
 536 0 l 1,21,-1
 475 0 l 1,22,-1
 475 246 l 2,23,24
 475 332 475 332 420.5 393.5 c 128,-1,25
 366 455 366 455 290 455 c 256,26,27
 214 455 214 455 160 390.5 c 128,-1,28
 106 326 106 326 106 234 c 0,29,30
 106 187 106 187 125 145 c 128,-1,31
 144 103 144 103 179 74 c 1,32,33
 167 95 167 95 161 114 c 128,-1,34
 155 133 155 133 155 148 c 0,35,36
 155 205 155 205 191 244 c 128,-1,37
 227 283 227 283 278 283 c 0,38,39
 328 283 328 283 364.5 243.5 c 128,-1,40
 401 204 401 204 401 148 c 0,41,42
 401 82 401 82 358 35 c 128,-1,43
 315 -12 315 -12 253 -12 c 0,44,45
 172 -12 172 -12 114.5 60 c 128,-1,46
 57 132 57 132 57 234 c 0,47,48
 57 346 57 346 125 425 c 128,-1,49
 193 504 193 504 290 504 c 0,50,51
 355 504 355 504 408 477.5 c 128,-1,52
 461 451 461 451 487 406 c 1,53,-1
 487 492 l 1,54,-1
 487 492 l 1,13,-1
EndSplineSet
EndChar

StartChar: uni0BE6
Encoding: 3046 3046 253
Width: 585
GlyphClass: 2
Flags: W
LayerCount: 2
Fore
SplineSet
60 323 m 1,0,1
 60 450 60 450 123 544.5 c 128,-1,2
 186 639 186 639 293 639 c 256,3,4
 400 639 400 639 462.5 544.5 c 128,-1,5
 525 450 525 450 525 323 c 0,6,7
 525 193 525 193 463 96.5 c 128,-1,8
 401 0 401 0 293 0 c 256,9,10
 185 0 185 0 122.5 96.5 c 128,-1,11
 60 193 60 193 60 323 c 1,12,-1
 60 323 l 1,0,1
125 323 m 1,13,14
 125 219 125 219 167.5 142 c 128,-1,15
 210 65 210 65 293 65 c 0,16,17
 375 65 375 65 418 142 c 128,-1,18
 461 219 461 219 461 323 c 0,19,20
 461 424 461 424 417.5 499 c 128,-1,21
 374 574 374 574 293 574 c 256,22,23
 212 574 212 574 168.5 499 c 128,-1,24
 125 424 125 424 125 323 c 1,25,-1
 125 323 l 1,13,14
EndSplineSet
EndChar

StartChar: uni0BE7
Encoding: 3047 3047 254
Width: 700
GlyphClass: 2
Flags: W
LayerCount: 2
Fore
SplineSet
246 270 m 1,0,-1
 369 270 l 1,1,-1
 369 443 l 1,2,-1
 246 443 l 1,3,-1
 246 270 l 1,4,-1
 246 270 l 1,0,-1
123 160 m 1,5,6
 123 110 123 110 162.5 73.5 c 128,-1,7
 202 37 202 37 258 37 c 0,8,9
 303 37 303 37 336 66 c 128,-1,10
 369 95 369 95 369 135 c 2,11,-1
 369 221 l 1,12,-1
 184 221 l 2,13,14
 158 221 158 221 140.5 203.5 c 128,-1,15
 123 186 123 186 123 160 c 1,16,-1
 123 160 l 1,5,6
184 492 m 1,17,-1
 565 492 l 1,18,-1
 565 443 l 1,19,-1
 430 443 l 1,20,-1
 430 270 l 1,21,-1
 504 270 l 2,22,23
 561 270 561 270 600 231 c 128,-1,24
 639 192 639 192 639 135 c 0,25,26
 639 74 639 74 603 31 c 128,-1,27
 567 -12 567 -12 516 -12 c 0,28,29
 502 -12 502 -12 487 -9 c 128,-1,30
 472 -6 472 -6 455 0 c 1,31,-1
 467 49 l 1,32,33
 478 43 478 43 490.5 40 c 128,-1,34
 503 37 503 37 516 37 c 0,35,36
 542 37 542 37 560 66 c 128,-1,37
 578 95 578 95 578 135 c 0,38,39
 578 171 578 171 556.5 196 c 128,-1,40
 535 221 535 221 504 221 c 2,41,-1
 430 221 l 1,42,-1
 430 135 l 2,43,44
 430 74 430 74 379.5 31 c 128,-1,45
 329 -12 329 -12 258 -12 c 0,46,47
 177 -12 177 -12 119 38.5 c 128,-1,48
 61 89 61 89 61 160 c 0,49,50
 61 205 61 205 97.5 237.5 c 128,-1,51
 134 270 134 270 184 270 c 1,52,-1
 184 492 l 1,53,-1
 184 492 l 1,17,-1
EndSplineSet
EndChar

StartChar: uni0BE8
Encoding: 3048 3048 255
Width: 725
GlyphClass: 2
Flags: W
LayerCount: 2
Fore
SplineSet
111 344 m 1,0,1
 111 318 111 318 128.5 300.5 c 128,-1,2
 146 283 146 283 172 283 c 256,3,4
 198 283 198 283 216 300.5 c 128,-1,5
 234 318 234 318 234 344 c 0,6,7
 234 375 234 375 216 396.5 c 128,-1,8
 198 418 198 418 172 418 c 256,9,10
 146 418 146 418 128.5 396.5 c 128,-1,11
 111 375 111 375 111 344 c 1,12,-1
 111 344 l 1,0,1
61 356 m 1,13,14
 61 417 61 417 122.5 460.5 c 128,-1,15
 184 504 184 504 270 504 c 0,16,17
 372 504 372 504 444 446 c 128,-1,18
 516 388 516 388 516 307 c 0,19,20
 516 231 516 231 454.5 177 c 128,-1,21
 393 123 393 123 307 123 c 2,22,-1
 172 123 l 2,23,24
 151 123 151 123 137 112 c 128,-1,25
 123 101 123 101 123 86 c 256,26,27
 123 71 123 71 137 60 c 128,-1,28
 151 49 151 49 172 49 c 2,29,-1
 664 49 l 1,30,-1
 664 0 l 1,31,-1
 172 0 l 2,32,33
 127 0 127 0 94 25 c 128,-1,34
 61 50 61 50 61 86 c 256,35,36
 61 122 61 122 94 147 c 128,-1,37
 127 172 127 172 172 172 c 2,38,-1
 307 172 l 2,39,40
 368 172 368 172 411.5 211.5 c 128,-1,41
 455 251 455 251 455 307 c 0,42,43
 455 368 455 368 401 411.5 c 128,-1,44
 347 455 347 455 270 455 c 2,45,-1
 197 455 l 1,46,47
 236 441 236 441 259.5 410.5 c 128,-1,48
 283 380 283 380 283 344 c 0,49,50
 283 299 283 299 250.5 266.5 c 128,-1,51
 218 234 218 234 172 234 c 0,52,53
 127 234 127 234 94 270 c 128,-1,54
 61 306 61 306 61 356 c 1,55,-1
 61 356 l 1,13,14
EndSplineSet
EndChar

StartChar: uni0BE9
Encoding: 3049 3049 256
Width: 780
GlyphClass: 2
Flags: W
LayerCount: 2
Fore
SplineSet
61 0 m 1,0,-1
 61 492 l 1,1,-1
 504 492 l 1,2,-1
 504 443 l 1,3,-1
 332 443 l 1,4,-1
 332 264 l 1,5,6
 349 281 349 281 372 291 c 128,-1,7
 395 301 395 301 418 301 c 0,8,9
 484 301 484 301 531 260 c 128,-1,10
 578 219 578 219 578 160 c 0,11,12
 578 127 578 127 565 98 c 128,-1,13
 552 69 552 69 529 49 c 1,14,-1
 719 49 l 1,15,-1
 719 0 l 1,16,-1
 270 0 l 1,17,-1
 270 49 l 1,18,-1
 406 49 l 2,19,20
 451 49 451 49 483.5 81.5 c 128,-1,21
 516 114 516 114 516 160 c 0,22,23
 516 196 516 196 487.5 221 c 128,-1,24
 459 246 459 246 418 246 c 0,25,26
 397 246 397 246 374.5 233 c 128,-1,27
 352 220 352 220 332 197 c 1,28,-1
 332 98 l 1,29,-1
 270 98 l 1,30,-1
 270 443 l 1,31,-1
 123 443 l 1,32,-1
 123 0 l 1,33,-1
 61 0 l 1,34,-1
 61 0 l 1,0,-1
EndSplineSet
EndChar

StartChar: uni0BEA
Encoding: 3050 3050 257
Width: 663
GlyphClass: 2
Flags: W
LayerCount: 2
Fore
SplineSet
246 270 m 1,0,-1
 369 270 l 1,1,-1
 369 443 l 1,2,-1
 246 443 l 1,3,-1
 246 270 l 1,4,-1
 246 270 l 1,0,-1
123 160 m 1,5,6
 123 110 123 110 162.5 73.5 c 128,-1,7
 202 37 202 37 258 37 c 0,8,9
 303 37 303 37 336 66 c 128,-1,10
 369 95 369 95 369 135 c 2,11,-1
 369 221 l 1,12,-1
 184 221 l 2,13,14
 158 221 158 221 140.5 203.5 c 128,-1,15
 123 186 123 186 123 160 c 1,16,-1
 123 160 l 1,5,6
184 492 m 1,17,-1
 578 492 l 1,18,-1
 578 443 l 1,19,-1
 430 443 l 1,20,-1
 430 270 l 1,21,-1
 541 270 l 1,22,-1
 541 332 l 1,23,-1
 602 332 l 1,24,-1
 602 221 l 1,25,-1
 430 221 l 1,26,-1
 430 135 l 2,27,28
 430 74 430 74 379.5 31 c 128,-1,29
 329 -12 329 -12 258 -12 c 0,30,31
 177 -12 177 -12 119 38.5 c 128,-1,32
 61 89 61 89 61 160 c 0,33,34
 61 205 61 205 97.5 237.5 c 128,-1,35
 134 270 134 270 184 270 c 1,36,-1
 184 492 l 1,37,-1
 184 492 l 1,17,-1
EndSplineSet
EndChar

StartChar: uni0BEB
Encoding: 3051 3051 258
Width: 897
GlyphClass: 2
Flags: W
LayerCount: 2
Fore
SplineSet
443 -221 m 1,0,1
 581 -221 581 -221 677.5 -120.5 c 128,-1,2
 774 -20 774 -20 774 123 c 0,3,4
 774 180 774 180 740 219 c 128,-1,5
 706 258 706 258 658 258 c 0,6,7
 640 258 640 258 618.5 245 c 128,-1,8
 597 232 597 232 578 209 c 1,9,-1
 578 0 l 1,10,-1
 516 0 l 1,11,-1
 516 443 l 1,12,-1
 369 443 l 1,13,-1
 369 0 l 1,14,-1
 307 0 l 1,15,-1
 307 492 l 1,16,-1
 676 492 l 1,17,-1
 676 443 l 1,18,-1
 578 443 l 1,19,-1
 578 270 l 1,20,21
 588 287 588 287 611 297 c 128,-1,22
 634 307 634 307 664 307 c 0,23,24
 735 307 735 307 785.5 253 c 128,-1,25
 836 199 836 199 836 123 c 0,26,27
 836 -40 836 -40 721 -155 c 128,-1,28
 606 -270 606 -270 443 -270 c 0,29,30
 286 -270 286 -270 173.5 -128 c 128,-1,31
 61 14 61 14 61 215 c 0,32,33
 61 431 61 431 183.5 584.5 c 128,-1,34
 306 738 306 738 479 738 c 0,35,36
 622 738 622 738 723 644.5 c 128,-1,37
 824 551 824 551 824 418 c 1,38,-1
 762 418 l 1,39,40
 762 530 762 530 679 609 c 128,-1,41
 596 688 596 688 479 688 c 0,42,43
 329 688 329 688 223 549.5 c 128,-1,44
 117 411 117 411 117 215 c 0,45,46
 117 34 117 34 212 -93.5 c 128,-1,47
 307 -221 307 -221 443 -221 c 1,48,-1
 443 -221 l 1,0,1
EndSplineSet
EndChar

StartChar: uni0BEC
Encoding: 3052 3052 259
Width: 829
GlyphClass: 2
Flags: W
LayerCount: 2
Fore
SplineSet
246 443 m 1,0,-1
 246 270 l 1,1,-1
 369 270 l 1,2,-1
 369 443 l 1,3,-1
 246 443 l 1,4,-1
 246 443 l 1,0,-1
123 160 m 1,5,6
 123 110 123 110 162.5 73.5 c 128,-1,7
 202 37 202 37 258 37 c 0,8,9
 303 37 303 37 336 66 c 128,-1,10
 369 95 369 95 369 135 c 2,11,-1
 369 221 l 1,12,-1
 184 221 l 2,13,14
 158 221 158 221 140.5 203.5 c 128,-1,15
 123 186 123 186 123 160 c 1,16,-1
 123 160 l 1,5,6
61 160 m 1,17,18
 61 205 61 205 97.5 237.5 c 128,-1,19
 134 270 134 270 184 270 c 1,20,-1
 184 492 l 1,21,-1
 602 492 l 1,22,-1
 602 443 l 1,23,-1
 430 443 l 1,24,-1
 430 270 l 1,25,-1
 768 270 l 1,26,-1
 768 221 l 1,27,-1
 701 221 l 1,28,-1
 701 0 l 1,29,-1
 639 0 l 1,30,-1
 639 221 l 1,31,-1
 565 221 l 1,32,-1
 565 0 l 1,33,-1
 504 0 l 1,34,-1
 504 221 l 1,35,-1
 430 221 l 1,36,-1
 430 135 l 2,37,38
 430 74 430 74 379.5 31 c 128,-1,39
 329 -12 329 -12 258 -12 c 0,40,41
 177 -12 177 -12 119 38.5 c 128,-1,42
 61 89 61 89 61 160 c 1,43,-1
 61 160 l 1,17,18
EndSplineSet
EndChar

StartChar: uni0BED
Encoding: 3053 3053 260
Width: 768
GlyphClass: 2
Flags: W
LayerCount: 2
Fore
SplineSet
221 135 m 1,0,1
 221 94 221 94 242.5 65.5 c 128,-1,2
 264 37 264 37 295 37 c 256,3,4
 326 37 326 37 347.5 66 c 128,-1,5
 369 95 369 95 369 135 c 0,6,7
 369 171 369 171 347.5 196 c 128,-1,8
 326 221 326 221 295 221 c 256,9,10
 264 221 264 221 242.5 196 c 128,-1,11
 221 171 221 171 221 135 c 1,12,-1
 221 135 l 1,0,1
565 443 m 1,13,-1
 320 443 l 2,14,15
 234 443 234 443 172.5 378 c 128,-1,16
 111 313 111 313 111 221 c 0,17,18
 111 167 111 167 137 121 c 128,-1,19
 163 75 163 75 209 49 c 1,20,21
 191 70 191 70 181.5 92 c 128,-1,22
 172 114 172 114 172 135 c 0,23,24
 172 192 172 192 208.5 231 c 128,-1,25
 245 270 245 270 295 270 c 0,26,27
 352 270 352 270 391 231 c 128,-1,28
 430 192 430 192 430 135 c 0,29,30
 430 74 430 74 383.5 31 c 128,-1,31
 337 -12 337 -12 270 -12 c 0,32,33
 184 -12 184 -12 122.5 56 c 128,-1,34
 61 124 61 124 61 221 c 0,35,36
 61 333 61 333 137 412.5 c 128,-1,37
 213 492 213 492 320 492 c 2,38,-1
 707 492 l 1,39,-1
 707 443 l 1,40,-1
 627 443 l 1,41,-1
 627 0 l 1,42,-1
 565 0 l 1,43,-1
 565 443 l 1,44,-1
 565 443 l 1,13,-1
EndSplineSet
EndChar

StartChar: uni0BEE
Encoding: 3054 3054 261
Width: 1020
GlyphClass: 2
Flags: W
LayerCount: 2
Fore
SplineSet
897 -61 m 1,0,-1
 897 135 l 1,1,-1
 774 135 l 1,2,3
 737 35 737 35 641.5 -25.5 c 128,-1,4
 546 -86 546 -86 424 -86 c 0,5,6
 340 -86 340 -86 266 -61 c 128,-1,7
 192 -36 192 -36 135 12 c 0,8,9
 99 42 99 42 80 71 c 128,-1,10
 61 100 61 100 61 123 c 0,11,12
 61 149 61 149 82.5 166.5 c 128,-1,13
 104 184 104 184 135 184 c 2,14,-1
 338 186 l 1,15,16
 305 198 305 198 284.5 233 c 128,-1,17
 264 268 264 268 264 313 c 0,18,19
 264 392 264 392 338 448 c 128,-1,20
 412 504 412 504 516 504 c 0,21,22
 633 504 633 504 716 432 c 128,-1,23
 799 360 799 360 799 258 c 0,24,25
 799 238 799 238 796 220 c 128,-1,26
 793 202 793 202 787 184 c 1,27,-1
 897 184 l 1,28,-1
 897 492 l 1,29,-1
 959 492 l 1,30,-1
 959 -61 l 1,31,-1
 897 -61 l 1,32,-1
 897 -61 l 1,0,-1
320 313 m 1,33,34
 320 260 320 260 361 222 c 128,-1,35
 402 184 402 184 461 184 c 0,36,37
 518 184 518 184 557 220.5 c 128,-1,38
 596 257 596 257 596 307 c 0,39,40
 596 364 596 364 557 403.5 c 128,-1,41
 518 443 518 443 461 443 c 0,42,43
 402 443 402 443 361 404.5 c 128,-1,44
 320 366 320 366 320 313 c 1,45,-1
 320 313 l 1,33,34
713 135 m 1,46,-1
 148 135 l 2,47,48
 138 135 138 135 130.5 127.5 c 128,-1,49
 123 120 123 120 123 111 c 0,50,51
 123 105 123 105 129 95.5 c 128,-1,52
 135 86 135 86 148 74 c 0,53,54
 201 21 201 21 271.5 -8 c 128,-1,55
 342 -37 342 -37 418 -37 c 0,56,57
 522 -37 522 -37 603.5 10.5 c 128,-1,58
 685 58 685 58 713 135 c 1,59,-1
 713 135 l 1,46,-1
590 184 m 1,60,-1
 725 184 l 1,61,62
 731 201 731 201 734.5 219.5 c 128,-1,63
 738 238 738 238 738 258 c 0,64,65
 738 335 738 335 687.5 394.5 c 128,-1,66
 637 454 637 454 559 467 c 1,67,68
 602 436 602 436 627 394 c 128,-1,69
 652 352 652 352 652 307 c 0,70,71
 652 269 652 269 636 236.5 c 128,-1,72
 620 204 620 204 590 184 c 1,73,-1
 590 184 l 1,60,-1
EndSplineSet
EndChar

StartChar: uni0BEF
Encoding: 3055 3055 262
Width: 946
GlyphClass: 2
Flags: W
LayerCount: 2
Fore
SplineSet
246 270 m 1,0,-1
 369 270 l 1,1,-1
 369 443 l 1,2,-1
 246 443 l 1,3,-1
 246 270 l 1,4,-1
 246 270 l 1,0,-1
123 160 m 1,5,6
 123 115 123 115 162.5 82 c 128,-1,7
 202 49 202 49 258 49 c 0,8,9
 303 49 303 49 336 74.5 c 128,-1,10
 369 100 369 100 369 135 c 2,11,-1
 369 221 l 1,12,-1
 184 221 l 2,13,14
 158 221 158 221 140.5 203.5 c 128,-1,15
 123 186 123 186 123 160 c 1,16,-1
 123 160 l 1,5,6
553 123 m 1,17,18
 553 87 553 87 567 62 c 128,-1,19
 581 37 581 37 602 37 c 256,20,21
 623 37 623 37 637.5 62 c 128,-1,22
 652 87 652 87 652 123 c 0,23,24
 652 155 652 155 631.5 182 c 128,-1,25
 611 209 611 209 578 221 c 1,26,27
 566 200 566 200 559.5 175 c 128,-1,28
 553 150 553 150 553 123 c 1,29,-1
 553 123 l 1,17,18
61 160 m 1,30,31
 61 205 61 205 97.5 237.5 c 128,-1,32
 134 270 134 270 184 270 c 1,33,-1
 184 492 l 1,34,-1
 547 492 l 1,35,-1
 547 443 l 1,36,-1
 430 443 l 1,37,-1
 430 270 l 1,38,-1
 553 270 l 1,39,40
 578 304 578 304 618.5 324 c 128,-1,41
 659 344 659 344 707 344 c 0,42,43
 781 344 781 344 833 293.5 c 128,-1,44
 885 243 885 243 885 172 c 0,45,46
 885 124 885 124 869 80 c 128,-1,47
 853 36 853 36 824 0 c 1,48,-1
 756 0 l 1,49,50
 789 39 789 39 806.5 83.5 c 128,-1,51
 824 128 824 128 824 172 c 0,52,53
 824 222 824 222 789.5 258.5 c 128,-1,54
 755 295 755 295 707 295 c 0,55,56
 675 295 675 295 649 285 c 128,-1,57
 623 275 623 275 608 258 c 1,58,59
 650 243 650 243 675.5 205.5 c 128,-1,60
 701 168 701 168 701 123 c 0,61,62
 701 66 701 66 672 27 c 128,-1,63
 643 -12 643 -12 602 -12 c 256,64,65
 561 -12 561 -12 532.5 27 c 128,-1,66
 504 66 504 66 504 123 c 0,67,68
 504 150 504 150 510 175 c 128,-1,69
 516 200 516 200 529 221 c 1,70,-1
 430 221 l 1,71,-1
 430 135 l 2,72,73
 430 74 430 74 379.5 31 c 128,-1,74
 329 -12 329 -12 258 -12 c 0,75,76
 177 -12 177 -12 119 38.5 c 128,-1,77
 61 89 61 89 61 160 c 1,78,-1
 61 160 l 1,30,31
EndSplineSet
EndChar

StartChar: uni0BF0
Encoding: 3056 3056 263
Width: 661
GlyphClass: 2
Flags: W
LayerCount: 2
Fore
SplineSet
311 49 m 1,0,1
 286 19 286 19 257.5 3.5 c 128,-1,2
 229 -12 229 -12 200 -12 c 0,3,4
 143 -12 143 -12 104 27 c 128,-1,5
 65 66 65 66 65 123 c 2,6,-1
 65 369 l 1,7,-1
 127 369 l 1,8,-1
 127 123 l 2,9,10
 127 87 127 87 148.5 62 c 128,-1,11
 170 37 170 37 200 37 c 0,12,13
 231 37 231 37 252.5 62 c 128,-1,14
 274 87 274 87 274 123 c 2,15,-1
 274 369 l 1,16,-1
 336 369 l 1,17,-1
 336 123 l 1,18,19
 350 84 350 84 376.5 60.5 c 128,-1,20
 403 37 403 37 434 37 c 0,21,22
 479 37 479 37 512 87.5 c 128,-1,23
 545 138 545 138 545 209 c 0,24,25
 545 306 545 306 487 374.5 c 128,-1,26
 429 443 429 443 348 443 c 2,27,-1
 188 443 l 1,28,-1
 188 492 l 1,29,-1
 348 492 l 2,30,31
 455 492 455 492 530.5 409 c 128,-1,32
 606 326 606 326 606 209 c 0,33,34
 606 117 606 117 555.5 52.5 c 128,-1,35
 505 -12 505 -12 434 -12 c 0,36,37
 391 -12 391 -12 358 4.5 c 128,-1,38
 325 21 325 21 311 49 c 1,39,-1
 311 49 l 1,0,1
EndSplineSet
EndChar

StartChar: uni0BF1
Encoding: 3057 3057 264
Width: 684
GlyphClass: 2
Flags: W
LayerCount: 2
Fore
SplineSet
334 443 m 1,0,1
 348 471 348 471 381 487.5 c 128,-1,2
 414 504 414 504 457 504 c 2,3,-1
 679 504 l 1,4,-1
 679 449 l 1,5,-1
 580 449 l 1,6,-1
 580 0 l 1,7,-1
 519 0 l 1,8,-1
 519 449 l 1,9,-1
 457 449 l 2,10,11
 426 449 426 449 399 426.5 c 128,-1,12
 372 404 372 404 359 369 c 1,13,-1
 359 0 l 1,14,-1
 297 0 l 1,15,-1
 297 369 l 2,16,17
 297 405 297 405 275.5 430 c 128,-1,18
 254 455 254 455 224 455 c 0,19,20
 193 455 193 455 171.5 429.5 c 128,-1,21
 150 404 150 404 150 369 c 2,22,-1
 150 0 l 1,23,-1
 89 0 l 1,24,-1
 89 369 l 2,25,26
 89 426 89 426 128 465 c 128,-1,27
 167 504 167 504 224 504 c 0,28,29
 252 504 252 504 281 488 c 128,-1,30
 310 472 310 472 334 443 c 1,31,-1
 334 443 l 1,0,1
EndSplineSet
EndChar

StartChar: uni0BF2
Encoding: 3058 3058 265
Width: 759
GlyphClass: 2
Flags: W
LayerCount: 2
Fore
SplineSet
219 443 m 1,0,-1
 219 270 l 1,1,-1
 342 270 l 1,2,-1
 342 443 l 1,3,-1
 219 443 l 1,4,-1
 219 443 l 1,0,-1
96 160 m 1,5,6
 96 110 96 110 135.5 73.5 c 128,-1,7
 175 37 175 37 231 37 c 0,8,9
 276 37 276 37 309 66 c 128,-1,10
 342 95 342 95 342 135 c 2,11,-1
 342 221 l 1,12,-1
 157 221 l 2,13,14
 131 221 131 221 113.5 203.5 c 128,-1,15
 96 186 96 186 96 160 c 1,16,-1
 96 160 l 1,5,6
34 160 m 1,17,18
 34 205 34 205 70.5 237.5 c 128,-1,19
 107 270 107 270 157 270 c 1,20,-1
 157 492 l 1,21,-1
 575 492 l 1,22,-1
 575 443 l 1,23,-1
 403 443 l 1,24,-1
 403 270 l 1,25,-1
 649 270 l 1,26,-1
 649 221 l 1,27,-1
 514 221 l 1,28,-1
 514 135 l 1,29,30
 529 152 529 152 551.5 162 c 128,-1,31
 574 172 574 172 600 172 c 0,32,33
 657 172 657 172 696 125.5 c 128,-1,34
 735 79 735 79 735 12 c 0,35,36
 735 -59 735 -59 667 -109.5 c 128,-1,37
 599 -160 599 -160 502 -160 c 2,38,-1
 157 -160 l 2,39,40
 116 -160 116 -160 87.5 -196 c 128,-1,41
 59 -232 59 -232 59 -283 c 1,42,-1
 10 -283 l 1,43,44
 10 -212 10 -212 53 -161.5 c 128,-1,45
 96 -111 96 -111 157 -111 c 2,46,-1
 502 -111 l 2,47,48
 573 -111 573 -111 623.5 -74.5 c 128,-1,49
 674 -38 674 -38 674 12 c 0,50,51
 674 57 674 57 652.5 90 c 128,-1,52
 631 123 631 123 600 123 c 0,53,54
 570 123 570 123 546 104 c 128,-1,55
 522 85 522 85 514 55 c 1,56,-1
 514 0 l 1,57,-1
 452 0 l 1,58,-1
 452 221 l 1,59,-1
 403 221 l 1,60,-1
 403 135 l 2,61,62
 403 74 403 74 352.5 31 c 128,-1,63
 302 -12 302 -12 231 -12 c 0,64,65
 150 -12 150 -12 92 38.5 c 128,-1,66
 34 89 34 89 34 160 c 1,67,-1
 34 160 l 1,17,18
EndSplineSet
EndChar

StartChar: uni0BF3
Encoding: 3059 3059 266
Width: 910
GlyphClass: 2
Flags: W
LayerCount: 2
Fore
SplineSet
200 135 m 1,0,1
 200 94 200 94 225.5 65.5 c 128,-1,2
 251 37 251 37 286 37 c 0,3,4
 327 37 327 37 356 66 c 128,-1,5
 385 95 385 95 385 135 c 0,6,7
 385 176 385 176 356 205 c 128,-1,8
 327 234 327 234 286 234 c 0,9,10
 250 234 250 234 225 205 c 128,-1,11
 200 176 200 176 200 135 c 1,12,-1
 200 135 l 1,0,1
53 234 m 1,13,14
 53 346 53 346 132 425 c 128,-1,15
 211 504 211 504 323 504 c 0,16,17
 440 504 440 504 523 424.5 c 128,-1,18
 606 345 606 345 606 234 c 0,19,20
 606 185 606 185 593.5 138 c 128,-1,21
 581 91 581 91 557 49 c 1,22,-1
 901 49 l 1,23,-1
 901 0 l 1,24,-1
 483 0 l 1,25,-1
 483 37 l 1,26,27
 513 73 513 73 529 123 c 128,-1,28
 545 173 545 173 545 234 c 0,29,30
 545 326 545 326 480.5 390.5 c 128,-1,31
 416 455 416 455 323 455 c 0,32,33
 231 455 231 455 166.5 390.5 c 128,-1,34
 102 326 102 326 102 234 c 0,35,36
 102 192 102 192 118 150.5 c 128,-1,37
 134 109 134 109 163 74 c 1,38,39
 157 91 157 91 154 106.5 c 128,-1,40
 151 122 151 122 151 135 c 0,41,42
 151 196 151 196 190.5 239.5 c 128,-1,43
 230 283 230 283 286 283 c 0,44,45
 347 283 347 283 390.5 240 c 128,-1,46
 434 197 434 197 434 135 c 0,47,48
 434 74 434 74 391 31 c 128,-1,49
 348 -12 348 -12 286 -12 c 0,50,51
 189 -12 189 -12 121 60 c 128,-1,52
 53 132 53 132 53 234 c 1,53,-1
 53 234 l 1,13,14
EndSplineSet
EndChar

StartChar: uni0BF4
Encoding: 3060 3060 267
Width: 1062
GlyphClass: 2
Flags: W
LayerCount: 2
Fore
SplineSet
449 369 m 1,0,-1
 449 49 l 1,1,-1
 621 49 l 2,2,3
 657 49 657 49 682 88.5 c 128,-1,4
 707 128 707 128 707 184 c 0,5,6
 707 296 707 296 653 375.5 c 128,-1,7
 599 455 599 455 522 455 c 0,8,9
 491 455 491 455 470 429.5 c 128,-1,10
 449 404 449 404 449 369 c 1,11,-1
 449 369 l 1,0,-1
510 504 m 1,12,13
 471 527 471 527 447.5 566.5 c 128,-1,14
 424 606 424 606 424 652 c 0,15,16
 424 723 424 723 478 773.5 c 128,-1,17
 532 824 532 824 608 824 c 0,18,19
 633 824 633 824 651 821.5 c 128,-1,20
 669 819 669 819 681 815 c 1,21,22
 714 836 714 836 749 847 c 128,-1,23
 784 858 784 858 816 858 c 0,24,25
 854 858 854 858 887 841.5 c 128,-1,26
 920 825 920 825 939 797 c 1,27,28
 962 827 962 827 995 842.5 c 128,-1,29
 1028 858 1028 858 1062 858 c 1,30,-1
 1062 809 l 1,31,32
 1040 809 1040 809 1018.5 796 c 128,-1,33
 997 783 997 783 982 760 c 1,34,35
 998 739 998 739 1006 720.5 c 128,-1,36
 1014 702 1014 702 1014 688 c 0,37,38
 1014 656 1014 656 994 634 c 128,-1,39
 974 612 974 612 944 612 c 256,40,41
 914 612 914 612 893 634 c 128,-1,42
 872 656 872 656 872 688 c 0,43,44
 872 705 872 705 881.5 724.5 c 128,-1,45
 891 744 891 744 908 762 c 1,46,47
 890 784 890 784 866 796.5 c 128,-1,48
 842 809 842 809 816 809 c 0,49,50
 791 809 791 809 768.5 803 c 128,-1,51
 746 797 746 797 728 784 c 1,52,53
 760 762 760 762 778.5 733 c 128,-1,54
 797 704 797 704 797 676 c 0,55,56
 797 631 797 631 760 598 c 128,-1,57
 723 565 723 565 670 565 c 0,58,59
 629 565 629 565 600.5 594 c 128,-1,60
 572 623 572 623 572 664 c 0,61,62
 572 698 572 698 588.5 728 c 128,-1,63
 605 758 605 758 633 774 c 1,64,-1
 608 774 l 2,65,66
 554 774 554 774 515.5 738 c 128,-1,67
 477 702 477 702 477 652 c 0,68,69
 477 613 477 613 512 570 c 128,-1,70
 547 527 547 527 608 492 c 1,71,72
 681 466 681 466 724.5 381 c 128,-1,73
 768 296 768 296 768 184 c 0,74,75
 768 108 768 108 725 54 c 128,-1,76
 682 0 682 0 621 0 c 2,77,-1
 92 0 l 1,78,-1
 92 492 l 1,79,-1
 154 492 l 1,80,-1
 154 49 l 1,81,-1
 387 49 l 1,82,-1
 387 369 l 2,83,84
 387 426 387 426 423.5 465 c 128,-1,85
 460 504 460 504 510 504 c 1,86,-1
 510 504 l 1,12,13
621 664 m 1,87,88
 621 643 621 643 635 629 c 128,-1,89
 649 615 649 615 670 615 c 0,90,91
 701 615 701 615 722.5 632.5 c 128,-1,92
 744 650 744 650 744 676 c 0,93,94
 744 701 744 701 729 722.5 c 128,-1,95
 714 744 714 744 688 756 c 1,96,97
 657 741 657 741 639 716.5 c 128,-1,98
 621 692 621 692 621 664 c 1,99,-1
 621 664 l 1,87,88
922 688 m 1,100,101
 922 678 922 678 928.5 671 c 128,-1,102
 935 664 935 664 944 664 c 256,103,104
 953 664 953 664 959 671.5 c 128,-1,105
 965 679 965 679 965 688 c 0,106,107
 965 698 965 698 959.5 708 c 128,-1,108
 954 718 954 718 944 725 c 1,109,110
 934 718 934 718 928 708 c 128,-1,111
 922 698 922 698 922 688 c 1,112,-1
 922 688 l 1,100,101
EndSplineSet
EndChar

StartChar: uni0BF5
Encoding: 3061 3061 268
Width: 1800
GlyphClass: 2
Flags: W
LayerCount: 2
Fore
SplineSet
386 135 m 1,0,1
 386 94 386 94 410 65.5 c 128,-1,2
 434 37 434 37 467 37 c 256,3,4
 500 37 500 37 524 66 c 128,-1,5
 548 95 548 95 548 135 c 0,6,7
 548 176 548 176 524 205 c 128,-1,8
 500 234 500 234 467 234 c 256,9,10
 434 234 434 234 410 205 c 128,-1,11
 386 176 386 176 386 135 c 1,12,-1
 386 135 l 1,0,1
929 49 m 1,13,-1
 929 492 l 1,14,-1
 1302 492 l 1,15,-1
 1302 443 l 1,16,-1
 1175 443 l 1,17,-1
 1175 240 l 1,18,19
 1192 255 1192 255 1211.5 262.5 c 128,-1,20
 1231 270 1231 270 1250 270 c 0,21,22
 1302 270 1302 270 1338 220 c 128,-1,23
 1374 170 1374 170 1374 98 c 0,24,25
 1374 -75 1374 -75 1182.5 -197.5 c 128,-1,26
 991 -320 991 -320 719 -320 c 0,27,28
 449 -320 449 -320 257 -168.5 c 128,-1,29
 65 -17 65 -17 65 197 c 0,30,31
 65 421 65 421 277.5 579.5 c 128,-1,32
 490 738 490 738 792 738 c 0,33,34
 1093 738 1093 738 1305.5 629.5 c 128,-1,35
 1518 521 1518 521 1518 369 c 2,36,-1
 1518 184 l 2,37,38
 1518 127 1518 127 1544 88 c 128,-1,39
 1570 49 1570 49 1607 49 c 0,40,41
 1652 49 1652 49 1684.5 107 c 128,-1,42
 1717 165 1717 165 1717 246 c 256,43,44
 1717 327 1717 327 1688.5 385 c 128,-1,45
 1660 443 1660 443 1618 443 c 1,46,-1
 1637 492 l 1,47,48
 1690 492 1690 492 1728 420 c 128,-1,49
 1766 348 1766 348 1766 246 c 256,50,51
 1766 144 1766 144 1719.5 72 c 128,-1,52
 1673 0 1673 0 1607 0 c 0,53,54
 1546 0 1546 0 1502.5 54 c 128,-1,55
 1459 108 1459 108 1459 184 c 2,56,-1
 1459 369 l 2,57,58
 1459 502 1459 502 1263 595 c 128,-1,59
 1067 688 1067 688 789 688 c 256,60,61
 511 688 511 688 315 544.5 c 128,-1,62
 119 401 119 401 119 197 c 0,63,64
 119 4 119 4 294.5 -133 c 128,-1,65
 470 -270 470 -270 717 -270 c 0,66,67
 965 -270 965 -270 1140 -162 c 128,-1,68
 1315 -54 1315 -54 1315 98 c 0,69,70
 1315 146 1315 146 1295 180.5 c 128,-1,71
 1275 215 1275 215 1247 215 c 0,72,73
 1217 215 1217 215 1196 193.5 c 128,-1,74
 1175 172 1175 172 1175 141 c 2,75,-1
 1175 0 l 1,76,-1
 1116 0 l 1,77,-1
 1116 443 l 1,78,-1
 990 443 l 1,79,-1
 990 0 l 1,80,-1
 668 0 l 1,81,-1
 668 37 l 1,82,83
 694 71 694 71 708 122 c 128,-1,84
 722 173 722 173 722 234 c 0,85,86
 722 326 722 326 659.5 390.5 c 128,-1,87
 597 455 597 455 509 455 c 0,88,89
 422 455 422 455 359.5 390.5 c 128,-1,90
 297 326 297 326 297 234 c 0,91,92
 297 189 297 189 310 147.5 c 128,-1,93
 323 106 323 106 348 74 c 1,94,95
 343 91 343 91 340 106.5 c 128,-1,96
 337 122 337 122 337 135 c 0,97,98
 337 196 337 196 373 239.5 c 128,-1,99
 409 283 409 283 461 283 c 0,100,101
 518 283 518 283 557.5 240 c 128,-1,102
 597 197 597 197 597 135 c 0,103,104
 597 74 597 74 557.5 31 c 128,-1,105
 518 -12 518 -12 461 -12 c 0,106,107
 359 -12 359 -12 297.5 55 c 128,-1,108
 236 122 236 122 236 234 c 256,109,110
 236 346 236 346 316 425 c 128,-1,111
 396 504 396 504 509 504 c 256,112,113
 622 504 622 504 702 424.5 c 128,-1,114
 782 345 782 345 782 234 c 0,115,116
 782 185 782 185 771 138 c 128,-1,117
 760 91 760 91 739 49 c 1,118,-1
 929 49 l 1,119,-1
 929 49 l 1,13,-1
EndSplineSet
EndChar

StartChar: uni0BF6
Encoding: 3062 3062 269
Width: 791
GlyphClass: 2
Flags: W
LayerCount: 2
Fore
SplineSet
85 135 m 1,0,-1
 85 492 l 1,1,-1
 146 492 l 1,2,-1
 146 135 l 2,3,4
 146 94 146 94 171.5 65.5 c 128,-1,5
 197 37 197 37 232 37 c 0,6,7
 277 37 277 37 310 69.5 c 128,-1,8
 343 102 343 102 343 148 c 2,9,-1
 343 492 l 1,10,-1
 404 492 l 1,11,-1
 404 -61 l 1,12,-1
 638 -61 l 1,13,-1
 638 492 l 1,14,-1
 699 492 l 1,15,-1
 699 -111 l 1,16,-1
 404 -111 l 1,17,-1
 404 -184 l 2,18,19
 404 -234 404 -234 370 -270.5 c 128,-1,20
 336 -307 336 -307 288 -307 c 2,21,-1
 202 -307 l 2,22,23
 152 -307 152 -307 115.5 -271 c 128,-1,24
 79 -235 79 -235 79 -184 c 0,25,26
 79 -134 79 -134 115 -97.5 c 128,-1,27
 151 -61 151 -61 202 -61 c 2,28,-1
 343 -61 l 1,29,-1
 343 37 l 1,30,31
 329 14 329 14 299.5 1 c 128,-1,32
 270 -12 270 -12 232 -12 c 0,33,34
 171 -12 171 -12 128 31 c 128,-1,35
 85 74 85 74 85 135 c 1,36,-1
 85 135 l 1,0,-1
140 -184 m 1,37,38
 140 -215 140 -215 158 -236.5 c 128,-1,39
 176 -258 176 -258 202 -258 c 2,40,-1
 288 -258 l 2,41,42
 311 -258 311 -258 327 -236.5 c 128,-1,43
 343 -215 343 -215 343 -184 c 2,44,-1
 343 -111 l 1,45,-1
 202 -111 l 2,46,47
 176 -111 176 -111 158 -132.5 c 128,-1,48
 140 -154 140 -154 140 -184 c 1,49,-1
 140 -184 l 1,37,38
EndSplineSet
EndChar

StartChar: uni0BF7
Encoding: 3063 3063 270
Width: 1336
GlyphClass: 2
Flags: W
LayerCount: 2
Fore
SplineSet
214 135 m 1,0,1
 214 94 214 94 235.5 65.5 c 128,-1,2
 257 37 257 37 288 37 c 256,3,4
 319 37 319 37 340 66 c 128,-1,5
 361 95 361 95 361 135 c 0,6,7
 361 171 361 171 339.5 196 c 128,-1,8
 318 221 318 221 288 221 c 0,9,10
 257 221 257 221 235.5 196 c 128,-1,11
 214 171 214 171 214 135 c 1,12,-1
 214 135 l 1,0,1
54 221 m 1,13,14
 54 333 54 333 129.5 412.5 c 128,-1,15
 205 492 205 492 312 492 c 2,16,-1
 742 492 l 1,17,-1
 742 443 l 1,18,-1
 620 443 l 1,19,-1
 620 145 l 1,20,21
 638 167 638 167 662.5 185.5 c 128,-1,22
 687 204 687 204 717 218 c 1,23,24
 733 284 733 284 787 326 c 128,-1,25
 841 368 841 368 908 368 c 0,26,27
 993 368 993 368 1053.5 310 c 128,-1,28
 1114 252 1114 252 1114 171 c 0,29,30
 1114 134 1114 134 1105.5 99.5 c 128,-1,31
 1097 65 1097 65 1079 36 c 1,32,-1
 1329 36 l 1,33,-1
 1329 0 l 1,34,-1
 1024 0 l 1,35,-1
 1024 27 l 1,36,37
 1045 53 1045 53 1056.5 90 c 128,-1,38
 1068 127 1068 127 1068 171 c 0,39,40
 1068 237 1068 237 1021.5 284.5 c 128,-1,41
 975 332 975 332 908 332 c 0,42,43
 860 332 860 332 820.5 305 c 128,-1,44
 781 278 781 278 761 232 c 1,45,46
 781 237 781 237 800 239.5 c 128,-1,47
 819 242 819 242 837 242 c 0,48,49
 900 242 900 242 945 203.5 c 128,-1,50
 990 165 990 165 990 111 c 0,51,52
 990 62 990 62 952.5 26.5 c 128,-1,53
 915 -9 915 -9 862 -9 c 0,54,55
 799 -9 799 -9 755 44 c 128,-1,56
 711 97 711 97 711 171 c 1,57,58
 679 153 679 153 655 127.5 c 128,-1,59
 631 102 631 102 620 71 c 1,60,-1
 620 0 l 1,61,-1
 558 0 l 1,62,-1
 558 443 l 1,63,-1
 312 443 l 2,64,65
 226 443 226 443 164.5 378 c 128,-1,66
 103 313 103 313 103 221 c 0,67,68
 103 167 103 167 129.5 121 c 128,-1,69
 156 75 156 75 202 49 c 1,70,71
 184 70 184 70 174.5 92 c 128,-1,72
 165 114 165 114 165 135 c 0,73,74
 165 192 165 192 201 231 c 128,-1,75
 237 270 237 270 288 270 c 0,76,77
 345 270 345 270 384 231 c 128,-1,78
 423 192 423 192 423 135 c 0,79,80
 423 74 423 74 376 31 c 128,-1,81
 329 -12 329 -12 263 -12 c 0,82,83
 177 -12 177 -12 115.5 56 c 128,-1,84
 54 124 54 124 54 221 c 1,85,-1
 54 221 l 1,13,14
749 187 m 1,86,87
 749 123 749 123 782 78 c 128,-1,88
 815 33 815 33 862 33 c 0,89,90
 895 33 895 33 917.5 56 c 128,-1,91
 940 79 940 79 940 111 c 0,92,93
 940 149 940 149 910 175.5 c 128,-1,94
 880 202 880 202 837 202 c 0,95,96
 815 202 815 202 792.5 198 c 128,-1,97
 770 194 770 194 749 187 c 1,98,-1
 749 187 l 1,86,87
EndSplineSet
EndChar

StartChar: uni0BF8
Encoding: 3064 3064 271
Width: 1595
GlyphClass: 2
Flags: W
LayerCount: 2
Fore
SplineSet
61 307 m 1,0,1
 61 459 61 459 169.5 567.5 c 128,-1,2
 278 676 278 676 430 676 c 0,3,4
 543 676 543 676 639.5 601.5 c 128,-1,5
 736 527 736 527 781 406 c 1,6,7
 798 412 798 412 817.5 415 c 128,-1,8
 837 418 837 418 861 418 c 0,9,10
 937 418 937 418 991 360 c 128,-1,11
 1045 302 1045 302 1045 221 c 0,12,13
 1045 163 1045 163 1029 118.5 c 128,-1,14
 1013 74 1013 74 983 49 c 1,15,-1
 1217 49 l 1,16,17
 1172 70 1172 70 1145.5 113.5 c 128,-1,18
 1119 157 1119 157 1119 209 c 0,19,20
 1119 266 1119 266 1162 305 c 128,-1,21
 1205 344 1205 344 1266 344 c 256,22,23
 1327 344 1327 344 1370.5 305 c 128,-1,24
 1414 266 1414 266 1414 209 c 2,25,-1
 1414 49 l 1,26,-1
 1586 49 l 1,27,-1
 1586 0 l 1,28,-1
 1414 0 l 1,29,-1
 1414 -295 l 1,30,-1
 1352 -295 l 1,31,-1
 1352 0 l 1,32,-1
 873 0 l 1,33,-1
 873 37 l 1,34,35
 923 55 923 55 953 105.5 c 128,-1,36
 983 156 983 156 983 221 c 0,37,38
 983 282 983 282 944 325.5 c 128,-1,39
 905 369 905 369 848 369 c 0,40,41
 828 369 828 369 814.5 367 c 128,-1,42
 801 365 801 365 793 363 c 1,43,44
 795 354 795 354 797 340.5 c 128,-1,45
 799 327 799 327 799 307 c 0,46,47
 799 179 799 179 752.5 89.5 c 128,-1,48
 706 0 706 0 639 0 c 0,49,50
 603 0 603 0 578 36.5 c 128,-1,51
 553 73 553 73 553 123 c 0,52,53
 553 215 553 215 598.5 287.5 c 128,-1,54
 644 360 644 360 719 387 c 1,55,56
 680 495 680 495 600.5 561 c 128,-1,57
 521 627 521 627 430 627 c 0,58,59
 300 627 300 627 208.5 533.5 c 128,-1,60
 117 440 117 440 117 307 c 0,61,62
 117 264 117 264 131 217 c 128,-1,63
 145 170 145 170 172 123 c 1,64,65
 166 187 166 187 206.5 235 c 128,-1,66
 247 283 247 283 307 283 c 0,67,68
 368 283 368 283 411.5 240 c 128,-1,69
 455 197 455 197 455 135 c 0,70,71
 455 74 455 74 412 31 c 128,-1,72
 369 -12 369 -12 307 -12 c 0,73,74
 205 -12 205 -12 133 81.5 c 128,-1,75
 61 175 61 175 61 307 c 1,76,-1
 61 307 l 1,0,1
221 135 m 1,77,78
 221 94 221 94 246.5 65.5 c 128,-1,79
 272 37 272 37 307 37 c 0,80,81
 343 37 343 37 368 66 c 128,-1,82
 393 95 393 95 393 135 c 0,83,84
 393 176 393 176 366 205 c 128,-1,85
 339 234 339 234 301 234 c 0,86,87
 268 234 268 234 244.5 205 c 128,-1,88
 221 176 221 176 221 135 c 1,89,-1
 221 135 l 1,77,78
615 123 m 1,90,91
 615 92 615 92 622 70.5 c 128,-1,92
 629 49 629 49 639 49 c 0,93,94
 677 49 677 49 704 124.5 c 128,-1,95
 731 200 731 200 731 307 c 2,96,-1
 731 344 l 1,97,98
 678 324 678 324 646.5 263.5 c 128,-1,99
 615 203 615 203 615 123 c 1,100,-1
 615 123 l 1,90,91
1180 209 m 1,101,102
 1180 143 1180 143 1230.5 96 c 128,-1,103
 1281 49 1281 49 1352 49 c 1,104,-1
 1352 209 l 2,105,106
 1352 245 1352 245 1327 270 c 128,-1,107
 1302 295 1302 295 1266 295 c 256,108,109
 1230 295 1230 295 1205 270 c 128,-1,110
 1180 245 1180 245 1180 209 c 1,111,-1
 1180 209 l 1,101,102
EndSplineSet
EndChar

StartChar: uni0BF9
Encoding: 3065 3065 272
Width: 1231
GlyphClass: 2
Flags: W
LayerCount: 2
Fore
SplineSet
457 -221 m 1,0,1
 595 -221 595 -221 692 -120.5 c 128,-1,2
 789 -20 789 -20 789 123 c 0,3,4
 789 180 789 180 754.5 219 c 128,-1,5
 720 258 720 258 672 258 c 0,6,7
 654 258 654 258 633 245 c 128,-1,8
 612 232 612 232 593 209 c 1,9,-1
 593 0 l 1,10,-1
 531 0 l 1,11,-1
 531 443 l 1,12,-1
 384 443 l 1,13,-1
 384 0 l 1,14,-1
 322 0 l 1,15,-1
 322 492 l 1,16,-1
 691 492 l 1,17,-1
 691 443 l 1,18,-1
 593 443 l 1,19,-1
 593 270 l 1,20,21
 603 287 603 287 626 297 c 128,-1,22
 649 307 649 307 679 307 c 0,23,24
 750 307 750 307 800.5 253 c 128,-1,25
 851 199 851 199 851 123 c 0,26,27
 851 -40 851 -40 736 -155 c 128,-1,28
 621 -270 621 -270 457 -270 c 0,29,30
 300 -270 300 -270 188 -128 c 128,-1,31
 76 14 76 14 76 215 c 0,32,33
 76 431 76 431 198.5 584.5 c 128,-1,34
 321 738 321 738 494 738 c 0,35,36
 608 738 608 738 703 670 c 128,-1,37
 798 602 798 602 838 492 c 1,38,39
 855 536 855 536 896 563 c 128,-1,40
 937 590 937 590 986 590 c 0,41,42
 1047 590 1047 590 1090 554 c 128,-1,43
 1133 518 1133 518 1133 467 c 1,44,-1
 1232 467 l 1,45,-1
 1232 418 l 1,46,-1
 1084 418 l 1,47,48
 1084 468 1084 468 1055 504.5 c 128,-1,49
 1026 541 1026 541 986 541 c 0,50,51
 936 541 936 541 899.5 498 c 128,-1,52
 863 455 863 455 863 393 c 1,53,-1
 801 393 l 1,54,55
 801 515 801 515 711.5 601.5 c 128,-1,56
 622 688 622 688 494 688 c 0,57,58
 344 688 344 688 238 549.5 c 128,-1,59
 132 411 132 411 132 215 c 0,60,61
 132 34 132 34 227 -93.5 c 128,-1,62
 322 -221 322 -221 457 -221 c 1,63,-1
 457 -221 l 1,0,1
EndSplineSet
EndChar

StartChar: uni0BFA
Encoding: 3066 3066 273
Width: 1196
GlyphClass: 2
Flags: W
LayerCount: 2
Fore
SplineSet
688 344 m 1,0,1
 688 318 688 318 706 300.5 c 128,-1,2
 724 283 724 283 750 283 c 0,3,4
 773 283 773 283 789 300.5 c 128,-1,5
 805 318 805 318 805 344 c 0,6,7
 805 380 805 380 802 405.5 c 128,-1,8
 799 431 799 431 793 449 c 1,9,10
 746 437 746 437 717 408 c 128,-1,11
 688 379 688 379 688 344 c 1,12,-1
 688 344 l 1,0,1
92 0 m 1,13,-1
 92 492 l 1,14,-1
 387 492 l 1,15,16
 372 506 372 506 364 531.5 c 128,-1,17
 356 557 356 557 356 590 c 0,18,19
 356 649 356 649 416 690 c 128,-1,20
 476 731 476 731 559 731 c 0,21,22
 651 731 651 731 727 667.5 c 128,-1,23
 803 604 803 604 830 503 c 1,24,-1
 848 504 l 1,25,26
 948 504 948 504 1018 446 c 128,-1,27
 1088 388 1088 388 1088 307 c 0,28,29
 1088 233 1088 233 1042 164.5 c 128,-1,30
 996 96 996 96 916 49 c 1,31,-1
 1186 49 l 1,32,-1
 1186 0 l 1,33,-1
 713 0 l 1,34,35
 857 53 857 53 945 137 c 128,-1,36
 1033 221 1033 221 1033 307 c 0,37,38
 1033 368 1033 368 978.5 411.5 c 128,-1,39
 924 455 924 455 848 455 c 1,40,41
 855 439 855 439 859 411.5 c 128,-1,42
 863 384 863 384 863 344 c 0,43,44
 863 299 863 299 830 266.5 c 128,-1,45
 797 234 797 234 750 234 c 0,46,47
 702 234 702 234 667.5 266.5 c 128,-1,48
 633 299 633 299 633 344 c 0,49,50
 633 399 633 399 673 441.5 c 128,-1,51
 713 484 713 484 774 495 c 1,52,53
 752 577 752 577 692 629.5 c 128,-1,54
 632 682 632 682 559 682 c 0,55,56
 498 682 498 682 455 655 c 128,-1,57
 412 628 412 628 412 590 c 0,58,59
 412 558 412 558 421.5 532 c 128,-1,60
 431 506 431 506 449 492 c 1,61,-1
 535 492 l 1,62,-1
 535 443 l 1,63,-1
 363 443 l 1,64,-1
 363 264 l 1,65,66
 378 281 378 281 400.5 291 c 128,-1,67
 423 301 423 301 449 301 c 0,68,69
 515 301 515 301 561.5 260 c 128,-1,70
 608 219 608 219 608 160 c 0,71,72
 608 94 608 94 558 47 c 128,-1,73
 508 0 508 0 436 0 c 2,74,-1
 301 0 l 1,75,-1
 301 49 l 1,76,-1
 436 49 l 2,77,78
 481 49 481 49 514 81.5 c 128,-1,79
 547 114 547 114 547 160 c 0,80,81
 547 196 547 196 518 221 c 128,-1,82
 489 246 489 246 449 246 c 0,83,84
 428 246 428 246 405 233 c 128,-1,85
 382 220 382 220 363 197 c 1,86,-1
 363 98 l 1,87,-1
 301 98 l 1,88,-1
 301 443 l 1,89,-1
 154 443 l 1,90,-1
 154 0 l 1,91,-1
 92 0 l 1,92,-1
 92 0 l 1,13,-1
EndSplineSet
EndChar

StartChar: uni0D82
Encoding: 3458 3458 274
Width: 481
GlyphClass: 2
Flags: W
LayerCount: 2
Fore
SplineSet
243 477 m 0,0,1
 288 478 288 478 326 462 c 128,-1,2
 364 446 364 446 391 418 c 128,-1,3
 418 390 418 390 432.5 352.5 c 128,-1,4
 447 315 447 315 446 272 c 0,5,6
 446 182 446 182 389 124 c 0,7,8
 333 67 333 67 239 67 c 0,9,10
 194 66 194 66 156 81.5 c 128,-1,11
 118 97 118 97 91 125 c 128,-1,12
 64 153 64 153 49 190.5 c 128,-1,13
 34 228 34 228 34 272 c 0,14,15
 34 330 34 330 61 377 c 0,16,17
 88 425 88 425 135.5 451 c 128,-1,18
 183 477 183 477 243 477 c 0,0,1
239 138 m 256,19,20
 300 138 300 138 336 175 c 0,21,22
 371 215 371 215 371 277 c 0,23,24
 371 335 371 335 336 370 c 0,25,26
 300 406 300 406 239 406 c 0,27,28
 180 406 180 406 144 370 c 0,29,30
 109 335 109 335 109 275 c 0,31,32
 109 213 109 213 144 175 c 0,33,34
 178 138 178 138 239 138 c 256,19,20
EndSplineSet
EndChar

StartChar: uni0D83
Encoding: 3459 3459 275
Width: 325
GlyphClass: 2
Flags: W
LayerCount: 2
Fore
SplineSet
163 307 m 0,0,1
 101 307 101 307 66 341 c 0,2,3
 31 374 31 374 31 431 c 0,4,5
 31 486 31 486 67 522 c 0,6,7
 104 557 104 557 162 557 c 0,8,9
 223 557 223 557 258 523 c 0,10,11
 294 490 294 490 294 434 c 0,12,13
 294 376 294 376 258 342 c 0,14,15
 223 307 223 307 163 307 c 0,0,1
163 495 m 0,16,17
 131 495 131 495 113.5 478 c 128,-1,18
 96 461 96 461 96 430 c 0,19,20
 96 404 96 404 113 386.5 c 128,-1,21
 130 369 130 369 161 369 c 0,22,23
 193 369 193 369 211 386.5 c 128,-1,24
 229 404 229 404 229 433 c 0,25,26
 229 461 229 461 211.5 478 c 128,-1,27
 194 495 194 495 163 495 c 0,16,17
163 0 m 0,28,29
 101 0 101 0 66 34 c 0,30,31
 31 67 31 67 31 124 c 0,32,33
 31 179 31 179 67 214 c 0,34,35
 103 250 103 250 162 250 c 256,36,37
 221 250 221 250 258 216 c 0,38,39
 294 181 294 181 294 127 c 0,40,41
 294 68 294 68 258 34 c 0,42,43
 223 0 223 0 163 0 c 0,28,29
163 188 m 0,44,45
 132 188 132 188 114 171 c 128,-1,46
 96 154 96 154 96 122 c 0,47,48
 96 96 96 96 113 79 c 128,-1,49
 130 62 130 62 161 62 c 256,50,51
 192 62 192 62 210.5 79 c 128,-1,52
 229 96 229 96 229 126 c 0,53,54
 229 153 229 153 211 170.5 c 128,-1,55
 193 188 193 188 163 188 c 0,44,45
EndSplineSet
EndChar

StartChar: uni0D85
Encoding: 3461 3461 276
Width: 911
GlyphClass: 2
Flags: W
LayerCount: 2
Fore
SplineSet
752 -230 m 1,0,-1
 657 -250 l 1,1,-1
 657 335 l 1,2,3
 649 339 649 339 629 340.5 c 128,-1,4
 609 342 609 342 589 342 c 1,5,-1
 589 131 l 2,6,7
 589 109 589 109 582.5 82.5 c 128,-1,8
 576 56 576 56 559 33.5 c 128,-1,9
 542 11 542 11 513 -4.5 c 128,-1,10
 484 -20 484 -20 440 -20 c 0,11,12
 402 -20 402 -20 358 -17.5 c 128,-1,13
 314 -15 314 -15 270 -7 c 128,-1,14
 226 1 226 1 185.5 16 c 128,-1,15
 145 31 145 31 114 55 c 128,-1,16
 83 79 83 79 64.5 114 c 128,-1,17
 46 149 46 149 46 197 c 0,18,19
 46 220 46 220 56 247 c 128,-1,20
 66 274 66 274 88 301 c 128,-1,21
 110 328 110 328 144.5 352 c 128,-1,22
 179 376 179 376 227 394 c 0,23,24
 250 402 250 402 283 408.5 c 128,-1,25
 316 415 316 415 353 419.5 c 128,-1,26
 390 424 390 424 428 426.5 c 128,-1,27
 466 429 466 429 499 429 c 1,28,-1
 499 529 l 2,29,30
 499 541 499 541 494 556.5 c 128,-1,31
 489 572 489 572 478 586 c 128,-1,32
 467 600 467 600 448 611 c 128,-1,33
 429 622 429 622 401 626 c 1,34,35
 414 618 414 618 421.5 597.5 c 128,-1,36
 429 577 429 577 429 557 c 0,37,38
 429 534 429 534 420.5 512.5 c 128,-1,39
 412 491 412 491 396 474.5 c 128,-1,40
 380 458 380 458 356.5 448 c 128,-1,41
 333 438 333 438 304 438 c 0,42,43
 272 438 272 438 247.5 448.5 c 128,-1,44
 223 459 223 459 206.5 476 c 128,-1,45
 190 493 190 493 181.5 515.5 c 128,-1,46
 173 538 173 538 173 562 c 0,47,48
 173 598 173 598 188 625.5 c 128,-1,49
 203 653 203 653 229 671 c 128,-1,50
 255 689 255 689 289.5 698.5 c 128,-1,51
 324 708 324 708 363 708 c 0,52,53
 417 708 417 708 459 693.5 c 128,-1,54
 501 679 501 679 530 654 c 128,-1,55
 559 629 559 629 574 597 c 128,-1,56
 589 565 589 565 589 529 c 2,57,-1
 589 429 l 1,58,59
 616 429 616 429 632.5 427.5 c 128,-1,60
 649 426 649 426 657 424 c 1,61,-1
 657 534 l 2,62,63
 657 596 657 596 690.5 628 c 128,-1,64
 724 660 724 660 779 660 c 0,65,66
 811 660 811 660 833 649 c 128,-1,67
 855 638 855 638 866 627 c 0,68,69
 893 600 893 600 897.5 567.5 c 128,-1,70
 902 535 902 535 891 499 c 1,71,-1
 803 525 l 1,72,73
 813 540 813 540 807.5 556 c 128,-1,74
 802 572 802 572 779 572 c 0,75,76
 768 572 768 572 760 563 c 128,-1,77
 752 554 752 554 752 534 c 2,78,-1
 752 -230 l 1,0,-1
499 342 m 1,79,80
 466 342 466 342 427 339.5 c 128,-1,81
 388 337 388 337 349 331.5 c 128,-1,82
 310 326 310 326 273.5 316 c 128,-1,83
 237 306 237 306 209 290.5 c 128,-1,84
 181 275 181 275 164 253.5 c 128,-1,85
 147 232 147 232 147 203 c 0,86,87
 147 168 147 168 179 142 c 128,-1,88
 211 116 211 116 257 99 c 128,-1,89
 303 82 303 82 352.5 74 c 128,-1,90
 402 66 402 66 438 66 c 0,91,92
 459 66 459 66 471.5 74 c 128,-1,93
 484 82 484 82 490 93 c 128,-1,94
 496 104 496 104 497.5 116 c 128,-1,95
 499 128 499 128 499 136 c 2,96,-1
 499 342 l 1,79,80
262 556 m 256,97,98
 262 535 262 535 276.5 520.5 c 128,-1,99
 291 506 291 506 312 506 c 256,100,101
 333 506 333 506 347.5 520.5 c 128,-1,102
 362 535 362 535 362 556 c 256,103,104
 362 577 362 577 347.5 591.5 c 128,-1,105
 333 606 333 606 312 606 c 256,106,107
 291 606 291 606 276.5 591.5 c 128,-1,108
 262 577 262 577 262 556 c 256,97,98
EndSplineSet
EndChar

StartChar: uni0D89
Encoding: 3465 3465 280
Width: 996
GlyphClass: 2
Flags: W
LayerCount: 2
Fore
SplineSet
467 134 m 1,0,1
 482 130 482 130 500 130 c 0,2,3
 528 130 528 130 552 139 c 128,-1,4
 576 148 576 148 593 163.5 c 128,-1,5
 610 179 610 179 619.5 199 c 128,-1,6
 629 219 629 219 629 240 c 0,7,8
 629 271 629 271 608.5 299.5 c 128,-1,9
 588 328 588 328 548 341 c 1,10,11
 545 286 545 286 525 230 c 128,-1,12
 505 174 505 174 467 134 c 1,0,1
298 341 m 1,13,14
 303 293 303 293 322 250 c 128,-1,15
 341 207 341 207 378 176 c 1,16,17
 413 205 413 205 432 248.5 c 128,-1,18
 451 292 451 292 453 341 c 1,19,-1
 363 341 l 1,20,-1
 362 341 l 1,21,-1
 298 341 l 1,13,14
287 132 m 1,22,23
 270 152 270 152 257 177 c 128,-1,24
 244 202 244 202 234 229.5 c 128,-1,25
 224 257 224 257 218 285.5 c 128,-1,26
 212 314 212 314 209 341 c 1,27,28
 181 332 181 332 165 318 c 128,-1,29
 149 304 149 304 140.5 289 c 128,-1,30
 132 274 132 274 130 259 c 128,-1,31
 128 244 128 244 128 232 c 0,32,33
 128 209 128 209 139 190.5 c 128,-1,34
 150 172 150 172 168 158.5 c 128,-1,35
 186 145 186 145 209.5 137.5 c 128,-1,36
 233 130 233 130 258 130 c 0,37,38
 266 130 266 130 272.5 130 c 128,-1,39
 279 130 279 130 287 132 c 1,22,23
571 732 m 0,40,41
 657 732 657 732 729 702 c 128,-1,42
 801 672 801 672 853.5 618 c 128,-1,43
 906 564 906 564 935.5 488.5 c 128,-1,44
 965 413 965 413 965 322 c 0,45,46
 965 254 965 254 944 192.5 c 128,-1,47
 923 131 923 131 887.5 79 c 128,-1,48
 852 27 852 27 805 -13 c 128,-1,49
 758 -53 758 -53 706 -77 c 1,50,51
 720 -93 720 -93 728 -120 c 128,-1,52
 736 -147 736 -147 736 -170 c 0,53,54
 736 -203 736 -203 726 -232.5 c 128,-1,55
 716 -262 716 -262 695.5 -283.5 c 128,-1,56
 675 -305 675 -305 645.5 -318 c 128,-1,57
 616 -331 616 -331 577 -331 c 0,58,59
 535 -331 535 -331 497.5 -310.5 c 128,-1,60
 460 -290 460 -290 439 -257 c 2,61,-1
 427 -241 l 1,62,-1
 507 -190 l 1,63,-1
 517 -205 l 2,64,65
 525 -219 525 -219 542.5 -227.5 c 128,-1,66
 560 -236 560 -236 574 -236 c 0,67,68
 602 -236 602 -236 622 -216 c 128,-1,69
 642 -196 642 -196 642 -169 c 0,70,71
 642 -149 642 -149 630.5 -133.5 c 128,-1,72
 619 -118 619 -118 600 -110 c 1,73,74
 583 -112 583 -112 566 -114.5 c 128,-1,75
 549 -117 549 -117 532 -117 c 2,76,-1
 524 -117 l 1,77,-1
 504 -26 l 1,78,79
 574 -24 574 -24 640 1 c 128,-1,80
 706 26 706 26 757 71 c 128,-1,81
 808 116 808 116 839 179.5 c 128,-1,82
 870 243 870 243 870 322 c 0,83,84
 870 387 870 387 843.5 445 c 128,-1,85
 817 503 817 503 775 546.5 c 128,-1,86
 733 590 733 590 680 615.5 c 128,-1,87
 627 641 627 641 574 641 c 0,88,89
 529 641 529 641 486.5 625 c 128,-1,90
 444 609 444 609 408 581 c 128,-1,91
 372 553 372 553 345.5 514.5 c 128,-1,92
 319 476 319 476 307 431 c 1,93,-1
 436 431 l 1,94,95
 431 444 431 444 422.5 459.5 c 128,-1,96
 414 475 414 475 394 498 c 1,97,-1
 464 558 l 1,98,99
 494 521 494 521 512 490.5 c 128,-1,100
 530 460 530 460 539 431 c 1,101,102
 585 428 585 428 619.5 410 c 128,-1,103
 654 392 654 392 677 365 c 128,-1,104
 700 338 700 338 711.5 305 c 128,-1,105
 723 272 723 272 723 238 c 0,106,107
 723 194 723 194 704.5 156.5 c 128,-1,108
 686 119 686 119 655 92 c 128,-1,109
 624 65 624 65 583.5 50 c 128,-1,110
 543 35 543 35 499 35 c 0,111,112
 438 35 438 35 378 64 c 1,113,114
 319 36 319 36 258 36 c 0,115,116
 213 36 213 36 173.5 51 c 128,-1,117
 134 66 134 66 104.5 92 c 128,-1,118
 75 118 75 118 58 154 c 128,-1,119
 41 190 41 190 41 231 c 0,120,121
 41 260 41 260 50 293 c 128,-1,122
 59 326 59 326 78.5 355.5 c 128,-1,123
 98 385 98 385 130 406 c 128,-1,124
 162 427 162 427 208 431 c 1,125,126
 219 498 219 498 252.5 553.5 c 128,-1,127
 286 609 286 609 334.5 649 c 128,-1,128
 383 689 383 689 444 710.5 c 128,-1,129
 505 732 505 732 571 732 c 0,40,41
EndSplineSet
EndChar

StartChar: uni0D8A
Encoding: 3466 3466 281
Width: 1043
GlyphClass: 2
Flags: W
LayerCount: 2
Fore
SplineSet
896 -89 m 0,0,1
 911 -56 911 -56 911 -18 c 0,2,3
 911 19 911 19 895.5 51 c 128,-1,4
 880 83 880 83 854.5 106 c 128,-1,5
 829 129 829 129 796.5 142.5 c 128,-1,6
 764 156 764 156 731 156 c 0,7,8
 695 156 695 156 662.5 144 c 128,-1,9
 630 132 630 132 605.5 109.5 c 128,-1,10
 581 87 581 87 566.5 55 c 128,-1,11
 552 23 552 23 552 -18 c 0,12,13
 552 -53 552 -53 566 -85 c 128,-1,14
 580 -117 580 -117 604 -141 c 128,-1,15
 628 -165 628 -165 660.5 -179 c 128,-1,16
 693 -193 693 -193 731 -193 c 0,17,18
 783 -193 783 -193 829 -164 c 128,-1,19
 875 -135 875 -135 896 -89 c 0,0,1
738 250 m 0,20,21
 795 250 795 250 844 229 c 128,-1,22
 893 208 893 208 929 172 c 128,-1,23
 965 136 965 136 985.5 87.5 c 128,-1,24
 1006 39 1006 39 1006 -16 c 0,25,26
 1006 -78 1006 -78 984 -127.5 c 128,-1,27
 962 -177 962 -177 925 -212.5 c 128,-1,28
 888 -248 888 -248 839 -267.5 c 128,-1,29
 790 -287 790 -287 735 -287 c 0,30,31
 670 -287 670 -287 617.5 -265 c 128,-1,32
 565 -243 565 -243 528 -206 c 128,-1,33
 491 -169 491 -169 470.5 -119.5 c 128,-1,34
 450 -70 450 -70 450 -14 c 2,35,-1
 450 -6 l 2,36,37
 451 25 451 25 454.5 50 c 128,-1,38
 458 75 458 75 466.5 99.5 c 128,-1,39
 475 124 475 124 488 152 c 128,-1,40
 501 180 501 180 520 218 c 256,41,42
 539 256 539 256 557 303 c 128,-1,43
 575 350 575 350 590 402.5 c 128,-1,44
 605 455 605 455 615 512 c 128,-1,45
 625 569 625 569 628 628 c 1,46,-1
 212 628 l 2,47,48
 194 626 194 626 182.5 617 c 128,-1,49
 171 608 171 608 165 595.5 c 128,-1,50
 159 583 159 583 157 568.5 c 128,-1,51
 155 554 155 554 155 540 c 2,52,-1
 155 0 l 1,53,-1
 54 -17 l 1,54,-1
 54 540 l 2,55,56
 54 555 54 555 55 566.5 c 128,-1,57
 56 578 56 578 58 592 c 0,58,59
 63 621 63 621 77 645 c 128,-1,60
 91 669 91 669 111.5 686 c 128,-1,61
 132 703 132 703 157 712.5 c 128,-1,62
 182 722 182 722 209 722 c 2,63,-1
 819 722 l 1,64,-1
 806 627 l 1,65,-1
 718 627 l 1,66,67
 716 549 716 549 704 482.5 c 128,-1,68
 692 416 692 416 677 364.5 c 128,-1,69
 662 313 662 313 647 277 c 128,-1,70
 632 241 632 241 625 224 c 1,71,72
 663 241 663 241 690.5 245.5 c 128,-1,73
 718 250 718 250 738 250 c 0,20,21
384 484 m 256,74,75
 384 507 384 507 400 523.5 c 128,-1,76
 416 540 416 540 439 540 c 256,77,78
 462 540 462 540 478.5 523.5 c 128,-1,79
 495 507 495 507 495 484 c 256,80,81
 495 461 495 461 478.5 445 c 128,-1,82
 462 429 462 429 439 429 c 256,83,84
 416 429 416 429 400 445 c 128,-1,85
 384 461 384 461 384 484 c 256,74,75
819 484 m 256,86,87
 819 507 819 507 835 523.5 c 128,-1,88
 851 540 851 540 874 540 c 256,89,90
 897 540 897 540 913.5 523.5 c 128,-1,91
 930 507 930 507 930 484 c 256,92,93
 930 461 930 461 913.5 445 c 128,-1,94
 897 429 897 429 874 429 c 256,95,96
 851 429 851 429 835 445 c 128,-1,97
 819 461 819 461 819 484 c 256,86,87
EndSplineSet
EndChar

StartChar: uni0D8B
Encoding: 3467 3467 282
Width: 913
GlyphClass: 2
Flags: W
LayerCount: 2
Fore
SplineSet
390 553 m 1,0,1
 403 545 403 545 410.5 524.5 c 128,-1,2
 418 504 418 504 418 484 c 0,3,4
 418 461 418 461 409.5 439.5 c 128,-1,5
 401 418 401 418 385 401.5 c 128,-1,6
 369 385 369 385 345.5 375 c 128,-1,7
 322 365 322 365 293 365 c 0,8,9
 261 365 261 365 236.5 375.5 c 128,-1,10
 212 386 212 386 195.5 403 c 128,-1,11
 179 420 179 420 170.5 442.5 c 128,-1,12
 162 465 162 465 162 489 c 0,13,14
 162 525 162 525 177 552.5 c 128,-1,15
 192 580 192 580 218 598 c 128,-1,16
 244 616 244 616 278.5 625.5 c 128,-1,17
 313 635 313 635 352 635 c 0,18,19
 406 635 406 635 454.5 615.5 c 128,-1,20
 503 596 503 596 539.5 562.5 c 128,-1,21
 576 529 576 529 597 484.5 c 128,-1,22
 618 440 618 440 618 389 c 0,23,24
 618 319 618 319 579.5 264 c 128,-1,25
 541 209 541 209 466 180 c 0,26,27
 437 168 437 168 407.5 160.5 c 128,-1,28
 378 153 378 153 354 148 c 1,29,-1
 349 148 l 1,30,31
 324 143 324 143 301 138 c 128,-1,32
 278 133 278 133 256 125 c 0,33,34
 207 107 207 107 183.5 75 c 128,-1,35
 160 43 160 43 160 -1 c 0,36,37
 160 -43 160 -43 181.5 -78.5 c 128,-1,38
 203 -114 203 -114 241.5 -139.5 c 128,-1,39
 280 -165 280 -165 333.5 -179.5 c 128,-1,40
 387 -194 387 -194 452 -194 c 0,41,42
 589 -194 589 -194 706 -153 c 128,-1,43
 823 -112 823 -112 925 -20 c 1,44,-1
 1027 -73 l 1,45,-1
 1024 -75 l 1,46,47
 906 -181 906 -181 757 -238.5 c 128,-1,48
 608 -296 608 -296 450 -296 c 0,49,50
 364 -296 364 -296 292 -273.5 c 128,-1,51
 220 -251 220 -251 168 -211.5 c 128,-1,52
 116 -172 116 -172 87 -117.5 c 128,-1,53
 58 -63 58 -63 58 2 c 0,54,55
 58 41 58 41 71.5 79 c 128,-1,56
 85 117 85 117 110 147 c 0,57,58
 146 189 146 189 205.5 212.5 c 128,-1,59
 265 236 265 236 329 248 c 1,60,-1
 333 248 l 1,61,62
 381 258 381 258 415.5 270.5 c 128,-1,63
 450 283 450 283 472.5 299.5 c 128,-1,64
 495 316 495 316 505.5 338.5 c 128,-1,65
 516 361 516 361 516 390 c 0,66,67
 516 408 516 408 509.5 431.5 c 128,-1,68
 503 455 503 455 488 478.5 c 128,-1,69
 473 502 473 502 449 522 c 128,-1,70
 425 542 425 542 390 553 c 1,0,1
251 483 m 256,71,72
 251 462 251 462 265.5 447.5 c 128,-1,73
 280 433 280 433 301 433 c 256,74,75
 322 433 322 433 336.5 447.5 c 128,-1,76
 351 462 351 462 351 483 c 256,77,78
 351 504 351 504 336.5 518.5 c 128,-1,79
 322 533 322 533 301 533 c 256,80,81
 280 533 280 533 265.5 518.5 c 128,-1,82
 251 504 251 504 251 483 c 256,71,72
EndSplineSet
EndChar

StartChar: uni0D8D
Encoding: 3469 3469 284
Width: 1290
GlyphClass: 2
Flags: W
LayerCount: 2
Fore
SplineSet
454 169 m 1,0,1
 454 130 454 130 469 109.5 c 128,-1,2
 484 89 484 89 504 81 c 128,-1,3
 524 73 524 73 543 72.5 c 128,-1,4
 562 72 562 72 571 72 c 0,5,6
 591 72 591 72 615.5 79.5 c 128,-1,7
 640 87 640 87 661.5 104.5 c 128,-1,8
 683 122 683 122 697.5 149.5 c 128,-1,9
 712 177 712 177 712 218 c 0,10,11
 712 270 712 270 695.5 302 c 128,-1,12
 679 334 679 334 655 351 c 128,-1,13
 631 368 631 368 603 374 c 128,-1,14
 575 380 575 380 553 381 c 2,15,-1
 454 385 l 1,16,-1
 454 432 l 2,17,18
 454 477 454 477 465.5 516 c 128,-1,19
 477 555 477 555 500 583.5 c 128,-1,20
 523 612 523 612 557.5 628.5 c 128,-1,21
 592 645 592 645 639 645 c 0,22,23
 697 645 697 645 732.5 623.5 c 128,-1,24
 768 602 768 602 786.5 572 c 128,-1,25
 805 542 805 542 809 509 c 128,-1,26
 813 476 813 476 808 454 c 1,27,-1
 712 470 l 1,28,29
 713 485 713 485 710.5 499.5 c 128,-1,30
 708 514 708 514 700 525.5 c 128,-1,31
 692 537 692 537 677 544 c 128,-1,32
 662 551 662 551 638 551 c 0,33,34
 610 551 610 551 587.5 533 c 128,-1,35
 565 515 565 515 563 470 c 1,36,37
 619 470 619 470 665 455 c 128,-1,38
 711 440 711 440 744 408.5 c 128,-1,39
 777 377 777 377 795 328.5 c 128,-1,40
 813 280 813 280 813 214 c 0,41,42
 813 159 813 159 795.5 115.5 c 128,-1,43
 778 72 778 72 746 42 c 128,-1,44
 714 12 714 12 669.5 -4 c 128,-1,45
 625 -20 625 -20 572 -20 c 0,46,47
 559 -20 559 -20 538.5 -19 c 128,-1,48
 518 -18 518 -18 495.5 -12.5 c 128,-1,49
 473 -7 473 -7 452 5.5 c 128,-1,50
 431 18 431 18 417 41 c 1,51,52
 404 18 404 18 385 5.5 c 128,-1,53
 366 -7 366 -7 345 -12.5 c 128,-1,54
 324 -18 324 -18 303 -19 c 128,-1,55
 282 -20 282 -20 264 -20 c 0,56,57
 211 -20 211 -20 166 -4 c 128,-1,58
 121 12 121 12 89 42 c 128,-1,59
 57 72 57 72 39 115.5 c 128,-1,60
 21 159 21 159 21 214 c 0,61,62
 21 280 21 280 39 328.5 c 128,-1,63
 57 377 57 377 90 408.5 c 128,-1,64
 123 440 123 440 169.5 455 c 128,-1,65
 216 470 216 470 272 470 c 1,66,67
 270 515 270 515 247.5 533 c 128,-1,68
 225 551 225 551 197 551 c 0,69,70
 173 551 173 551 157.5 544 c 128,-1,71
 142 537 142 537 134 525.5 c 128,-1,72
 126 514 126 514 123.5 499.5 c 128,-1,73
 121 485 121 485 122 470 c 1,74,-1
 26 454 l 1,75,76
 21 476 21 476 25 509 c 128,-1,77
 29 542 29 542 47.5 572 c 128,-1,78
 66 602 66 602 101.5 623.5 c 128,-1,79
 137 645 137 645 196 645 c 0,80,81
 242 645 242 645 277 628.5 c 128,-1,82
 312 612 312 612 335 583.5 c 128,-1,83
 358 555 358 555 369.5 516 c 128,-1,84
 381 477 381 477 381 432 c 2,85,-1
 381 385 l 1,86,-1
 281 382 l 2,87,88
 259 381 259 381 231.5 375 c 128,-1,89
 204 369 204 369 179.5 352 c 128,-1,90
 155 335 155 335 138.5 303 c 128,-1,91
 122 271 122 271 122 218 c 0,92,93
 122 178 122 178 136.5 150.5 c 128,-1,94
 151 123 151 123 172.5 105.5 c 128,-1,95
 194 88 194 88 219 80.5 c 128,-1,96
 244 73 244 73 264 73 c 0,97,98
 275 73 275 73 295 73 c 128,-1,99
 315 73 315 73 334 81 c 128,-1,100
 353 89 353 89 367 109 c 128,-1,101
 381 129 381 129 381 169 c 1,102,-1
 417 169 l 1,103,-1
 454 169 l 1,0,1
1162 345 m 1,104,105
 1159 428 1159 428 1121 463 c 0,106,107
 1084 498 1084 498 1016 498 c 0,108,109
 983 498 983 498 951.5 492.5 c 128,-1,110
 920 487 920 487 890 476 c 1,111,-1
 868 543 l 1,112,113
 944 568 944 568 1015 568 c 0,114,115
 1072 568 1072 568 1113.5 553 c 128,-1,116
 1155 538 1155 538 1185 506 c 0,117,118
 1214 472 1214 472 1226 427 c 0,119,120
 1239 381 1239 381 1239 297 c 2,121,-1
 1239 0 l 1,122,-1
 1173 0 l 1,123,-1
 1132 24 l 1,124,125
 1104 4 1104 4 1077 -3.5 c 128,-1,126
 1050 -11 1050 -11 1012 -11 c 0,127,128
 943 -11 943 -11 901 33 c 0,129,130
 860 79 860 79 860 156 c 0,131,132
 860 204 860 204 876 238.5 c 128,-1,133
 892 273 892 273 927 299 c 0,134,135
 963 324 963 324 1014 334 c 0,136,137
 1040 340 1040 340 1077 342.5 c 128,-1,138
 1114 345 1114 345 1162 345 c 1,104,105
1148 87 m 1,139,-1
 1163 78 l 1,140,-1
 1163 277 l 1,141,-1
 1129 277 l 2,142,143
 1046 277 1046 277 1006 262 c 0,144,145
 967 248 967 248 951 222 c 128,-1,146
 935 196 935 196 935 157 c 0,147,148
 935 59 935 59 1024 59 c 0,149,150
 1051 59 1051 59 1069 65 c 0,151,152
 1085 71 1085 71 1106 87 c 1,153,-1
 1148 87 l 1,139,-1
EndSplineSet
EndChar

StartChar: uni0D8E
Encoding: 3470 3470 285
Width: 1750
GlyphClass: 2
Flags: W
LayerCount: 2
Fore
SplineSet
326 466 m 1,0,1
 324 511 324 511 299 535 c 128,-1,2
 274 559 274 559 231 559 c 0,3,4
 153 559 153 559 153 499 c 0,5,6
 153 485 153 485 157 468 c 1,7,-1
 85 457 l 1,8,9
 82 469 82 469 80 481.5 c 128,-1,10
 78 494 78 494 78 508 c 0,11,12
 78 565 78 565 117 596 c 128,-1,13
 156 627 156 627 225 627 c 0,14,15
 310 627 310 627 354.5 579 c 128,-1,16
 399 531 399 531 399 440 c 2,17,-1
 399 398 l 1,18,-1
 375 398 l 2,19,20
 284 398 284 398 226 383 c 0,21,22
 197 376 197 376 176 363 c 128,-1,23
 155 350 155 350 140 332 c 0,24,25
 112 295 112 295 112 223 c 0,26,27
 112 142 112 142 145.5 102 c 128,-1,28
 179 62 179 62 244 62 c 0,29,30
 313 62 313 62 347 97 c 128,-1,31
 381 132 381 132 381 212 c 2,32,-1
 381 219 l 1,33,-1
 450 219 l 1,34,-1
 450 212 l 2,35,36
 450 133 450 133 484 97.5 c 128,-1,37
 518 62 518 62 587 62 c 0,38,39
 652 62 652 62 685.5 102 c 128,-1,40
 719 142 719 142 719 223 c 0,41,42
 719 294 719 294 690 332 c 0,43,44
 661 369 661 369 604 383.5 c 128,-1,45
 547 398 547 398 456 398 c 2,46,-1
 432 398 l 1,47,-1
 432 440 l 2,48,49
 432 531 432 531 476 579 c 128,-1,50
 520 627 520 627 605 627 c 0,51,52
 674 627 674 627 713 596 c 128,-1,53
 752 565 752 565 752 507 c 0,54,55
 752 479 752 479 745 457 c 1,56,-1
 673 468 l 1,57,58
 675 478 675 478 676.5 485.5 c 128,-1,59
 678 493 678 493 678 499 c 0,60,61
 678 559 678 559 599 559 c 0,62,63
 556 559 556 559 531.5 534.5 c 128,-1,64
 507 510 507 510 505 466 c 1,65,-1
 514 466 l 2,66,67
 651 466 651 466 722.5 404.5 c 128,-1,68
 794 343 794 343 794 222 c 0,69,70
 794 114 794 114 738 50 c 0,71,72
 683 -11 683 -11 589 -11 c 0,73,74
 533 -11 533 -11 491.5 9.5 c 128,-1,75
 450 30 450 30 415 79 c 1,76,77
 378 28 378 28 336 8 c 0,78,79
 297 -11 297 -11 241 -11 c 0,80,81
 196 -12 196 -12 158.5 4 c 128,-1,82
 121 20 121 20 94 50 c 128,-1,83
 67 80 67 80 52 123.5 c 128,-1,84
 37 167 37 167 37 222 c 0,85,86
 37 344 37 344 108.5 405 c 128,-1,87
 180 466 180 466 317 466 c 2,88,-1
 326 466 l 1,0,1
1162 345 m 1,89,90
 1159 428 1159 428 1121 463 c 0,91,92
 1084 498 1084 498 1016 498 c 0,93,94
 983 498 983 498 951.5 492.5 c 128,-1,95
 920 487 920 487 890 476 c 1,96,-1
 868 543 l 1,97,98
 944 568 944 568 1015 568 c 0,99,100
 1072 568 1072 568 1113.5 553 c 128,-1,101
 1155 538 1155 538 1185 506 c 0,102,103
 1214 472 1214 472 1226 427 c 0,104,105
 1239 381 1239 381 1239 297 c 2,106,-1
 1239 0 l 1,107,-1
 1173 0 l 1,108,-1
 1132 24 l 1,109,110
 1104 4 1104 4 1077 -3.5 c 128,-1,111
 1050 -11 1050 -11 1012 -11 c 0,112,113
 943 -11 943 -11 901 33 c 0,114,115
 860 79 860 79 860 156 c 0,116,117
 860 204 860 204 876 238.5 c 128,-1,118
 892 273 892 273 927 299 c 0,119,120
 963 324 963 324 1014 334 c 0,121,122
 1040 340 1040 340 1077 342.5 c 128,-1,123
 1114 345 1114 345 1162 345 c 1,89,90
1148 87 m 1,124,-1
 1163 78 l 1,125,-1
 1163 277 l 1,126,-1
 1129 277 l 2,127,128
 1046 277 1046 277 1006 262 c 0,129,130
 967 248 967 248 951 222 c 128,-1,131
 935 196 935 196 935 157 c 0,132,133
 935 59 935 59 1024 59 c 0,134,135
 1051 59 1051 59 1069 65 c 0,136,137
 1085 71 1085 71 1106 87 c 1,138,-1
 1148 87 l 1,124,-1
1621 345 m 1,139,140
 1618 428 1618 428 1580 463 c 0,141,142
 1543 498 1543 498 1475 498 c 0,143,144
 1442 498 1442 498 1410.5 492.5 c 128,-1,145
 1379 487 1379 487 1349 476 c 1,146,-1
 1327 543 l 1,147,148
 1403 568 1403 568 1474 568 c 0,149,150
 1531 568 1531 568 1572.5 553 c 128,-1,151
 1614 538 1614 538 1644 506 c 0,152,153
 1673 472 1673 472 1685 427 c 0,154,155
 1698 381 1698 381 1698 297 c 2,156,-1
 1698 0 l 1,157,-1
 1632 0 l 1,158,-1
 1591 24 l 1,159,160
 1563 4 1563 4 1536 -3.5 c 128,-1,161
 1509 -11 1509 -11 1471 -11 c 0,162,163
 1402 -11 1402 -11 1360 33 c 0,164,165
 1319 79 1319 79 1319 156 c 0,166,167
 1319 204 1319 204 1335 238.5 c 128,-1,168
 1351 273 1351 273 1386 299 c 0,169,170
 1422 324 1422 324 1473 334 c 0,171,172
 1499 340 1499 340 1536 342.5 c 128,-1,173
 1573 345 1573 345 1621 345 c 1,139,140
1607 87 m 1,174,-1
 1622 78 l 1,175,-1
 1622 277 l 1,176,-1
 1588 277 l 2,177,178
 1505 277 1505 277 1465 262 c 0,179,180
 1426 248 1426 248 1410 222 c 128,-1,181
 1394 196 1394 196 1394 157 c 0,182,183
 1394 59 1394 59 1483 59 c 0,184,185
 1510 59 1510 59 1528 65 c 0,186,187
 1544 71 1544 71 1565 87 c 1,188,-1
 1607 87 l 1,174,-1
EndSplineSet
EndChar

StartChar: uni0D8F
Encoding: 3471 3471 286
Width: 1246
GlyphClass: 2
Flags: W
LayerCount: 2
Fore
SplineSet
916 225 m 0,0,1
 916 278 916 278 899.5 310 c 128,-1,2
 883 342 883 342 858.5 359.5 c 128,-1,3
 834 377 834 377 806.5 383 c 128,-1,4
 779 389 779 389 757 389 c 2,5,-1
 657 389 l 1,6,-1
 657 439 l 2,7,8
 657 484 657 484 668.5 524 c 128,-1,9
 680 564 680 564 702.5 593 c 128,-1,10
 725 622 725 622 759.5 639 c 128,-1,11
 794 656 794 656 841 656 c 0,12,13
 927 656 927 656 995 625.5 c 128,-1,14
 1063 595 1063 595 1109.5 541 c 128,-1,15
 1156 487 1156 487 1180.5 414 c 128,-1,16
 1205 341 1205 341 1205 256 c 0,17,18
 1205 218 1205 218 1201 187 c 128,-1,19
 1197 156 1197 156 1191.5 132.5 c 128,-1,20
 1186 109 1186 109 1181 93.5 c 128,-1,21
 1176 78 1176 78 1174 71 c 1,22,-1
 1082 85 l 1,23,24
 1093 117 1093 117 1101.5 161.5 c 128,-1,25
 1110 206 1110 206 1110 254 c 0,26,27
 1110 345 1110 345 1085 401.5 c 128,-1,28
 1060 458 1060 458 1015 489 c 1,29,30
 1015 479 1015 479 1014.5 474 c 128,-1,31
 1014 469 1014 469 1012 461 c 1,32,-1
 916 477 l 1,33,-1
 916 487 l 2,34,35
 916 514 916 514 900.5 536 c 128,-1,36
 885 558 885 558 841 558 c 0,37,38
 813 558 813 558 790.5 540 c 128,-1,39
 768 522 768 522 766 477 c 1,40,41
 823 477 823 477 869 461.5 c 128,-1,42
 915 446 915 446 948 414.5 c 128,-1,43
 981 383 981 383 999 334.5 c 128,-1,44
 1017 286 1017 286 1017 219 c 0,45,46
 1017 164 1017 164 999 121 c 128,-1,47
 981 78 981 78 949 48 c 128,-1,48
 917 18 917 18 872.5 2.5 c 128,-1,49
 828 -13 828 -13 776 -13 c 2,50,-1
 468 -13 l 2,51,52
 414 -13 414 -13 369.5 3 c 128,-1,53
 325 19 325 19 293 49 c 128,-1,54
 261 79 261 79 243 122.5 c 128,-1,55
 225 166 225 166 225 221 c 0,56,57
 225 287 225 287 243 335.5 c 128,-1,58
 261 384 261 384 294 415.5 c 128,-1,59
 327 447 327 447 373.5 462 c 128,-1,60
 420 477 420 477 476 477 c 1,61,62
 474 522 474 522 451.5 540 c 128,-1,63
 429 558 429 558 401 558 c 0,64,65
 356 558 356 558 340.5 536 c 128,-1,66
 325 514 325 514 325 487 c 0,67,68
 325 485 325 485 325.5 482 c 128,-1,69
 326 479 326 479 326 477 c 2,70,-1
 230 461 l 1,71,72
 228 469 228 469 227.5 474 c 128,-1,73
 227 479 227 479 227 489 c 1,74,75
 181 458 181 458 156.5 401.5 c 128,-1,76
 132 345 132 345 132 254 c 0,77,78
 132 206 132 206 140.5 161.5 c 128,-1,79
 149 117 149 117 160 85 c 1,80,-1
 68 71 l 1,81,82
 36 153 36 153 36 244 c 0,83,84
 36 320 36 320 59 394 c 128,-1,85
 82 468 82 468 127.5 526.5 c 128,-1,86
 173 585 173 585 241.5 620.5 c 128,-1,87
 310 656 310 656 401 656 c 0,88,89
 447 656 447 656 482 639 c 128,-1,90
 517 622 517 622 539.5 593 c 128,-1,91
 562 564 562 564 573.5 524 c 128,-1,92
 585 484 585 484 585 439 c 2,93,-1
 585 392 l 1,94,-1
 485 392 l 2,95,96
 463 390 463 390 435.5 383.5 c 128,-1,97
 408 377 408 377 383.5 359.5 c 128,-1,98
 359 342 359 342 342.5 310 c 128,-1,99
 326 278 326 278 326 225 c 0,100,101
 326 185 326 185 340.5 157.5 c 128,-1,102
 355 130 355 130 376.5 112.5 c 128,-1,103
 398 95 398 95 423 87.5 c 128,-1,104
 448 80 448 80 468 80 c 2,105,-1
 775 80 l 2,106,107
 796 80 796 80 820.5 87.5 c 128,-1,108
 845 95 845 95 866 112.5 c 128,-1,109
 887 130 887 130 901.5 157.5 c 128,-1,110
 916 185 916 185 916 225 c 0,0,1
EndSplineSet
EndChar

StartChar: uni0D91
Encoding: 3473 3473 288
Width: 1198
GlyphClass: 2
Flags: W
LayerCount: 2
Fore
SplineSet
1049 483 m 1,0,1
 1051 491 1051 491 1051.5 502.5 c 128,-1,2
 1052 514 1052 514 1052 543 c 2,3,-1
 1052 588 l 1,4,-1
 1052 602 l 1,5,-1
 1052 603 l 1,6,7
 1048 599 1048 599 1044 596 c 128,-1,8
 1040 593 1040 593 1035 589 c 0,9,10
 1027 583 1027 583 1020.5 577.5 c 128,-1,11
 1014 572 1014 572 1008 567 c 0,12,13
 1000 559 1000 559 994 552.5 c 128,-1,14
 988 546 988 546 984 540 c 0,15,16
 976 527 976 527 974 516 c 0,17,18
 971 500 971 500 983 485 c 128,-1,19
 995 470 995 470 1013 470 c 0,20,21
 1022 470 1022 470 1032.5 473.5 c 128,-1,22
 1043 477 1043 477 1049 483 c 1,0,1
335 144 m 0,23,24
 345 158 345 158 349.5 175 c 128,-1,25
 354 192 354 192 353 209 c 0,26,27
 350 247 350 247 324 274 c 0,28,29
 311 287 311 287 291.5 294.5 c 128,-1,30
 272 302 272 302 254 302 c 0,31,32
 231 301 231 301 213 293.5 c 128,-1,33
 195 286 195 286 182 274 c 128,-1,34
 169 262 169 262 160.5 247.5 c 128,-1,35
 152 233 152 233 149 218 c 0,36,37
 147 205 147 205 147 192 c 128,-1,38
 147 179 147 179 152 167 c 0,39,40
 160 141 160 141 181 123 c 0,41,42
 199 107 199 107 227 100 c 0,43,44
 241 97 241 97 254.5 98 c 128,-1,45
 268 99 268 99 281 103 c 0,46,47
 315 114 315 114 335 144 c 0,23,24
1151 536 m 2,48,49
 1151 462 1151 462 1143 389 c 128,-1,50
 1135 316 1135 316 1103 247 c 0,51,52
 1070 174 1070 174 1007.5 116 c 128,-1,53
 945 58 945 58 865 26 c 0,54,55
 775 -10 775 -10 678 -10 c 0,56,57
 660 -10 660 -10 642 -9 c 128,-1,58
 624 -8 624 -8 606 -6 c 2,59,-1
 562 2 l 1,60,-1
 563 322 l 1,61,62
 547 320 547 320 531.5 319.5 c 128,-1,63
 516 319 516 319 492 320 c 0,64,65
 475 321 475 321 453 322.5 c 128,-1,66
 431 324 431 324 411 328 c 1,67,68
 428 305 428 305 442 275 c 128,-1,69
 456 245 456 245 458 216 c 0,70,71
 463 144 463 144 421 84 c 0,72,73
 381 26 381 26 312 3 c 0,74,75
 297 -2 297 -2 281 -4.5 c 128,-1,76
 265 -7 265 -7 248 -7 c 0,77,78
 237 -7 237 -7 227 -6 c 128,-1,79
 217 -5 217 -5 207 -3 c 0,80,81
 181 2 181 2 156 14.5 c 128,-1,82
 131 27 131 27 111 44 c 0,83,84
 71 80 71 80 52 133 c 0,85,86
 44 159 44 159 42 186.5 c 128,-1,87
 40 214 40 214 47 240 c 0,88,89
 55 276 55 276 75.5 310.5 c 128,-1,90
 96 345 96 345 128 370 c 0,91,92
 157 392 157 392 191 406 c 128,-1,93
 225 420 225 420 270 425 c 0,94,95
 325 432 325 432 380 429.5 c 128,-1,96
 435 427 435 427 494 426 c 0,97,98
 529 425 529 425 551.5 425.5 c 128,-1,99
 574 426 574 426 593 431 c 0,100,101
 618 437 618 437 639.5 450.5 c 128,-1,102
 661 464 661 464 677 482.5 c 128,-1,103
 693 501 693 501 701.5 524 c 128,-1,104
 710 547 710 547 709 573 c 1,105,-1
 809 589 l 1,106,107
 813 534 813 534 792.5 482 c 128,-1,108
 772 430 772 430 730 394 c 0,109,110
 715 380 715 380 697 368.5 c 128,-1,111
 679 357 679 357 659 348 c 1,112,-1
 659 87 l 1,113,114
 701 85 701 85 744.5 92.5 c 128,-1,115
 788 100 788 100 828 116 c 0,116,117
 891 142 891 142 940 186.5 c 128,-1,118
 989 231 989 231 1015 288 c 0,119,120
 1034 328 1034 328 1042 375 c 1,121,122
 1034 373 1034 373 1026.5 373 c 128,-1,123
 1019 373 1019 373 1011 373 c 0,124,125
 982 373 982 373 955.5 386 c 128,-1,126
 929 399 929 399 909 421 c 0,127,128
 890 443 890 443 881.5 471.5 c 128,-1,129
 873 500 873 500 878 529 c 0,130,131
 883 562 883 562 903 593 c 0,132,133
 918 615 918 615 942 638 c 0,134,135
 950 646 950 646 958 652 c 128,-1,136
 966 658 966 658 974 665 c 0,137,138
 984 673 984 673 993.5 681.5 c 128,-1,139
 1003 690 1003 690 1011 698 c 0,140,141
 1021 709 1021 709 1029 726 c 128,-1,142
 1037 743 1037 743 1041.5 760.5 c 128,-1,143
 1046 778 1046 778 1048.5 793 c 128,-1,144
 1051 808 1051 808 1051 816 c 1,145,-1
 1149 816 l 1,146,-1
 1151 536 l 2,48,49
EndSplineSet
EndChar

StartChar: uni0D94
Encoding: 3476 3476 291
Width: 907
GlyphClass: 2
Flags: W
LayerCount: 2
Fore
SplineSet
849 625 m 0,0,1
 860 602 860 602 865.5 579.5 c 128,-1,2
 871 557 871 557 873 537 c 0,3,4
 876 514 876 514 876 493 c 0,5,6
 873 455 873 455 856.5 421.5 c 128,-1,7
 840 388 840 388 812 364 c 0,8,9
 782 338 782 338 743 329 c 0,10,11
 723 325 723 325 702.5 325.5 c 128,-1,12
 682 326 682 326 663 333 c 0,13,14
 655 335 655 335 648.5 338.5 c 128,-1,15
 642 342 642 342 635 346 c 1,16,17
 639 317 639 317 653 291 c 0,18,19
 673 256 673 256 707 234 c 128,-1,20
 741 212 741 212 780 209 c 1,21,-1
 778 110 l 1,22,23
 770 109 770 109 764 106 c 128,-1,24
 758 103 758 103 751 98 c 0,25,26
 736 86 736 86 718 66 c 0,27,28
 704 52 704 52 688 36.5 c 128,-1,29
 672 21 672 21 650 9 c 0,30,31
 615 -10 615 -10 568 -10 c 0,32,33
 536 -10 536 -10 503 1 c 0,34,35
 464 16 464 16 430 47 c 1,36,37
 417 36 417 36 402.5 26 c 128,-1,38
 388 16 388 16 372 9 c 0,39,40
 340 -5 340 -5 305.5 -9 c 128,-1,41
 271 -13 271 -13 236 -6 c 0,42,43
 188 4 188 4 146.5 33.5 c 128,-1,44
 105 63 105 63 79 107 c 0,45,46
 55 148 55 148 46 195.5 c 128,-1,47
 37 243 37 243 45 293 c 0,48,49
 54 350 54 350 82 397 c 0,50,51
 99 427 99 427 123 450.5 c 128,-1,52
 147 474 147 474 175 490 c 0,53,54
 242 527 242 527 312 515 c 0,55,56
 350 508 350 508 381.5 488 c 128,-1,57
 413 468 413 468 433 436 c 0,58,59
 455 403 455 403 458 364 c 0,60,61
 463 323 463 323 446 287 c 0,62,63
 430 246 430 246 389 219 c 0,64,65
 354 194 354 194 307 191 c 0,66,67
 286 189 286 189 264 193 c 128,-1,68
 242 197 242 197 221.5 208 c 128,-1,69
 201 219 201 219 185 237.5 c 128,-1,70
 169 256 169 256 160 284 c 1,71,-1
 240 321 l 1,72,73
 245 303 245 303 259.5 291.5 c 128,-1,74
 274 280 274 280 301 282 c 0,75,76
 313 282 313 282 324.5 289 c 128,-1,77
 336 296 336 296 344 306 c 128,-1,78
 352 316 352 316 356 329 c 128,-1,79
 360 342 360 342 359 354 c 0,80,81
 357 379 357 379 338.5 394.5 c 128,-1,82
 320 410 320 410 295 417 c 0,83,84
 259 423 259 423 224 404 c 0,85,86
 192 385 192 385 170.5 352.5 c 128,-1,87
 149 320 149 320 142 281 c 0,88,89
 137 249 137 249 143.5 216.5 c 128,-1,90
 150 184 150 184 165 158 c 256,91,92
 180 132 180 132 204 114.5 c 128,-1,93
 228 97 228 97 256 91 c 0,94,95
 293 84 293 84 329 99.5 c 128,-1,96
 365 115 365 115 387 150 c 1,97,-1
 473 151 l 1,98,99
 484 133 484 133 500 119.5 c 128,-1,100
 516 106 516 106 538 95 c 0,101,102
 555 88 555 88 572 88.5 c 128,-1,103
 589 89 589 89 603 97 c 0,104,105
 614 103 614 103 624.5 113 c 128,-1,106
 635 123 635 123 646 135 c 0,107,108
 649 138 649 138 652 141 c 128,-1,109
 655 144 655 144 658 148 c 1,110,111
 599 184 599 184 566 242 c 0,112,113
 535 299 535 299 533.5 364 c 128,-1,114
 532 429 532 429 561 487 c 0,115,116
 568 501 568 501 576 514 c 128,-1,117
 584 527 584 527 595 539 c 0,118,119
 599 544 599 544 603 548.5 c 128,-1,120
 607 553 607 553 612 558 c 1,121,-1
 680 485 l 1,122,123
 675 480 675 480 671 474.5 c 128,-1,124
 667 469 667 469 667 461 c 0,125,126
 667 449 667 449 674 441 c 0,127,128
 682 432 682 432 694 427 c 0,129,130
 707 424 707 424 721 427 c 0,131,132
 735 429 735 429 748 440 c 0,133,134
 774 463 774 463 777 502 c 0,135,136
 780 540 780 540 759 581 c 0,137,138
 746 607 746 607 725.5 630 c 128,-1,139
 705 653 705 653 678 671 c 0,140,141
 652 688 652 688 622.5 701 c 128,-1,142
 593 714 593 714 559 722 c 0,143,144
 481 739 481 739 405.5 728 c 128,-1,145
 330 717 330 717 268 678 c 0,146,147
 229 654 229 654 197.5 618.5 c 128,-1,148
 166 583 166 583 146 541 c 1,149,-1
 56 583 l 1,150,151
 82 638 82 638 123 684 c 128,-1,152
 164 730 164 730 215 762 c 0,153,154
 293 812 293 812 389 826.5 c 128,-1,155
 485 841 485 841 582 818 c 0,156,157
 667 799 667 799 734 753 c 0,158,159
 811 700 811 700 849 625 c 0,0,1
EndSplineSet
EndChar

